<?xml version="1.0" encoding="UTF-8"?>
<svg width="88px" height="90px" viewBox="0 0 88 90" version="1.1" xmlns="http://www.w3.org/2000/svg" xmlns:xlink="http://www.w3.org/1999/xlink">
    <!-- Generator: Sketch 59.1 (86144) - https://sketch.com -->
    <title>Boost Bowl</title>
    <desc>Created with Sketch.</desc>
    <g id="Page-1" stroke="none" stroke-width="1" fill="none" fill-rule="evenodd">
        <g id="Boost-Bowl" transform="translate(-6.000000, -1.000000)">
            <g id="Maoam" transform="translate(67.000000, 75.000000) rotate(-30.000000) translate(-67.000000, -75.000000) translate(45.000000, 73.000000)">
                <path d="M44,-1.33226763e-15 L44,4 L41.5,2.333 L41.5,2.9 C41.5,3.23137085 41.2313708,3.5 40.9,3.5 L3.1,3.5 C2.76862915,3.5 2.5,3.23137085 2.5,2.9 L2.5,2.333 L4.4408921e-16,4 L0,-3.522407e-16 L2.5,1.667 L2.5,1.1 C2.5,0.76862915 2.76862915,0.5 3.1,0.5 L40.9,0.5 C41.2313708,0.5 41.5,0.76862915 41.5,1.1 L41.5,1.667 L44,-1.33226763e-15 Z" id="Combined-Shape" fill="#F53223"></path>
                <path d="M18.5238757,1.02563008 C20.1290775,1.10236398 21.2977877,1.14073092 22.0300063,1.14073092 C22.7604467,1.14073092 23.9089793,1.10255011 25.4756043,1.02618848 C25.751446,1.01268989 25.9859616,1.22540621 25.999407,1.5012505 C25.9998023,1.50935951 26,1.51747694 26,1.52559558 L26,2.47510851 C26.0000391,2.75127248 25.776164,2.97514762 25.5,2.97514762 C25.4920951,2.97514762 25.4841914,2.97496017 25.4762954,2.97458544 C23.8564153,2.89770786 22.687648,2.85926908 21.9699937,2.85926908 C21.2540548,2.85926908 20.1054704,2.89752432 18.5242406,2.9740348 C18.2483829,2.98745826 18.0139324,2.77464916 18.0005844,2.49878782 C18.0001949,2.49073746 18,2.48267887 18,2.47461909 L18,1.5250868 C17.9999729,1.24892948 18.2238427,1.02505974 18.5,1.02505974 C18.507962,1.02505974 18.5159228,1.02524991 18.5238757,1.02563008 Z" id="Rectangle" fill="#1E45B0" transform="translate(22.000000, 2.000000) rotate(-2.000000) translate(-22.000000, -2.000000) "></path>
            </g>
            <g id="Curly-Wurly" transform="translate(40.500000, 50.000000) rotate(80.000000) translate(-40.500000, -50.000000) translate(4.000000, 45.000000)">
                <rect id="Rectangle" fill="#7432BD" x="1" y="0" width="71" height="10"></rect>
                <path d="M13.3690154,0 L61.8048003,0 C61.1887329,1.66666667 61.8177543,3.19444444 63.6918645,4.58333333 C66.7693785,6.86405575 66.7693785,8.66961131 63.6918645,10 L5,10 C7.18389839,7.33333333 9.9735702,5.83333333 13.3690154,5.5 C16.7644607,5.16666667 16.7644607,3.33333333 13.3690154,0 Z" id="Rectangle" fill="#FFFFFF"></path>
                <path d="M71.5686275,9.16666667 L73,9.58333333 L71.5686275,10 L71.5686275,9.16666667 Z M1.43137255,9.16666667 L1.43137255,10 L1.79553063e-15,9.58333333 L1.43137255,9.16666667 Z M1.43137255,8.33333333 L1.43137255,9.16666667 L1.79553063e-15,8.75 L1.43137255,8.33333333 Z M71.5686275,8.33333333 L73,8.75 L71.5686275,9.16666667 L71.5686275,8.33333333 Z M1.43137255,7.5 L1.43137255,8.33333333 L-9.18485099e-17,7.91666667 L1.43137255,7.5 Z M71.5686275,7.5 L73,7.91666667 L71.5686275,8.33333333 L71.5686275,7.5 Z M1.43137255,6.66666667 L1.43137255,7.5 L-9.18485099e-17,7.08333333 L1.43137255,6.66666667 Z M71.5686275,6.66666667 L73,7.08333333 L71.5686275,7.5 L71.5686275,6.66666667 Z M1.43137255,5.83333333 L1.43137255,6.66666667 L-3.13893115e-16,6.25 L1.43137255,5.83333333 Z M71.5686275,5.83333333 L73,6.25 L71.5686275,6.66666667 L71.5686275,5.83333333 Z M1.43137255,5 L1.43137255,5.83333333 L-3.13893115e-16,5.41666667 L1.43137255,5 Z M71.5686275,5 L73,5.41666667 L71.5686275,5.83333333 L71.5686275,5 Z M1.43137255,4.16666667 L1.43137255,5 L-9.18485099e-17,4.58333333 L1.43137255,4.16666667 Z M71.5686275,4.16666667 L73,4.58333333 L71.5686275,5 L71.5686275,4.16666667 Z M1.43137255,3.33333333 L1.43137255,4.16666667 L1.90655293e-15,3.75 L1.43137255,3.33333333 Z M71.5686275,3.33333333 L73,3.75 L71.5686275,4.16666667 L71.5686275,3.33333333 Z M1.43137255,2.5 L1.43137255,3.33333333 L1.90655293e-15,2.91666667 L1.43137255,2.5 Z M71.5686275,2.5 L73,2.91666667 L71.5686275,3.33333333 L71.5686275,2.5 Z M1.43137255,1.66666667 L1.43137255,2.5 L1.90655293e-15,2.08333333 L1.43137255,1.66666667 Z M71.5686275,1.66666667 L73,2.08333333 L71.5686275,2.5 L71.5686275,1.66666667 Z M1.43137255,0.833333333 L1.43137255,1.66666667 L1.91737925e-17,1.25 L1.43137255,0.833333333 Z M71.5686275,0.833333333 L73,1.25 L71.5686275,1.66666667 L71.5686275,0.833333333 Z M1.43137255,-1.94744221e-12 L1.43137255,0.833333333 L-9.18485099e-17,0.416666667 L1.43137255,-1.94744221e-12 Z M71.5686275,1.65145675e-15 L73,0.416666667 L71.5686275,0.833333333 L71.5686275,1.65145675e-15 Z" id="Triangle-3" fill="#7432BD"></path>
                <rect id="Rectangle" stroke="#FFFFFF" stroke-width="0.4" fill="#05C1E9" transform="translate(39.000000, 5.028553) rotate(-3.000000) translate(-39.000000, -5.028553) " x="17.2" y="2.72855255" width="43.6" height="4.6" rx="2"></rect>
            </g>
            <g id="Maoam" transform="translate(67.000000, 47.000000) rotate(-20.000000) translate(-67.000000, -47.000000) translate(45.000000, 45.000000)">
                <path d="M44,-1.33226763e-15 L44,4 L41.5,2.333 L41.5,2.9 C41.5,3.23137085 41.2313708,3.5 40.9,3.5 L3.1,3.5 C2.76862915,3.5 2.5,3.23137085 2.5,2.9 L2.5,2.333 L4.4408921e-16,4 L0,-3.522407e-16 L2.5,1.667 L2.5,1.1 C2.5,0.76862915 2.76862915,0.5 3.1,0.5 L40.9,0.5 C41.2313708,0.5 41.5,0.76862915 41.5,1.1 L41.5,1.667 L44,-1.33226763e-15 Z" id="Combined-Shape" fill="#F49B07"></path>
                <path d="M18.5238757,1.02563008 C20.1290775,1.10236398 21.2977877,1.14073092 22.0300063,1.14073092 C22.7604467,1.14073092 23.9089793,1.10255011 25.4756043,1.02618848 C25.751446,1.01268989 25.9859616,1.22540621 25.999407,1.5012505 C25.9998023,1.50935951 26,1.51747694 26,1.52559558 L26,2.47510851 C26.0000391,2.75127248 25.776164,2.97514762 25.5,2.97514762 C25.4920951,2.97514762 25.4841914,2.97496017 25.4762954,2.97458544 C23.8564153,2.89770786 22.687648,2.85926908 21.9699937,2.85926908 C21.2540548,2.85926908 20.1054704,2.89752432 18.5242406,2.9740348 C18.2483829,2.98745826 18.0139324,2.77464916 18.0005844,2.49878782 C18.0001949,2.49073746 18,2.48267887 18,2.47461909 L18,1.5250868 C17.9999729,1.24892948 18.2238427,1.02505974 18.5,1.02505974 C18.507962,1.02505974 18.5159228,1.02524991 18.5238757,1.02563008 Z" id="Rectangle" fill="#1E45B0" transform="translate(22.000000, 2.000000) rotate(-2.000000) translate(-22.000000, -2.000000) "></path>
            </g>
            <g id="Maoam" transform="translate(66.000000, 59.000000) rotate(7.000000) translate(-66.000000, -59.000000) translate(44.000000, 57.000000)">
                <path d="M44,-1.33226763e-15 L44,4 L41.5,2.333 L41.5,2.9 C41.5,3.23137085 41.2313708,3.5 40.9,3.5 L3.1,3.5 C2.76862915,3.5 2.5,3.23137085 2.5,2.9 L2.5,2.333 L4.4408921e-16,4 L0,-3.522407e-16 L2.5,1.667 L2.5,1.1 C2.5,0.76862915 2.76862915,0.5 3.1,0.5 L40.9,0.5 C41.2313708,0.5 41.5,0.76862915 41.5,1.1 L41.5,1.667 L44,-1.33226763e-15 Z" id="Combined-Shape" fill="#F53223"></path>
                <path d="M18.5238757,1.02563008 C20.1290775,1.10236398 21.2977877,1.14073092 22.0300063,1.14073092 C22.7604467,1.14073092 23.9089793,1.10255011 25.4756043,1.02618848 C25.751446,1.01268989 25.9859616,1.22540621 25.999407,1.5012505 C25.9998023,1.50935951 26,1.51747694 26,1.52559558 L26,2.47510851 C26.0000391,2.75127248 25.776164,2.97514762 25.5,2.97514762 C25.4920951,2.97514762 25.4841914,2.97496017 25.4762954,2.97458544 C23.8564153,2.89770786 22.687648,2.85926908 21.9699937,2.85926908 C21.2540548,2.85926908 20.1054704,2.89752432 18.5242406,2.9740348 C18.2483829,2.98745826 18.0139324,2.77464916 18.0005844,2.49878782 C18.0001949,2.49073746 18,2.48267887 18,2.47461909 L18,1.5250868 C17.9999729,1.24892948 18.2238427,1.02505974 18.5,1.02505974 C18.507962,1.02505974 18.5159228,1.02524991 18.5238757,1.02563008 Z" id="Rectangle" fill="#1E45B0" transform="translate(22.000000, 2.000000) rotate(-2.000000) translate(-22.000000, -2.000000) "></path>
            </g>
            <g id="Double-Decker" transform="translate(30.500000, 28.500000) rotate(80.000000) translate(-30.500000, -28.500000) translate(5.000000, 22.000000)">
                <rect id="Rectangle" fill="#ED5F09" x="1" y="0" width="49" height="13"></rect>
                <path d="M1,0 L50,0 L50,6.03571429 C38.0302896,5.3535427 29.1969563,5.0083046 23.5,5 C17.8030437,4.9916954 10.3030437,5.31312397 1,5.96428571 L1,0 Z" id="Rectangle" fill="#56288D"></path>
                <path d="M50,12.0357143 L51,12.5 L50,12.9642857 L50,12.0357143 Z M1,12.0357143 L1,12.9642857 L1.91737925e-17,12.5 L1,12.0357143 Z M1,11.0357143 L1,11.9642857 L1.91737925e-17,11.5 L1,11.0357143 Z M50,11.0357143 L51,11.5 L50,11.9642857 L50,11.0357143 Z M1,10.0357143 L1,10.9642857 L1.91737925e-17,10.5 L1,10.0357143 Z M50,10.0357143 L51,10.5 L50,10.9642857 L50,10.0357143 Z M1,9.03571429 L1,9.96428571 L1.91737925e-17,9.5 L1,9.03571429 Z M50,9.03571429 L51,9.5 L50,9.96428571 L50,9.03571429 Z M1,8.03571429 L1,8.96428571 L1.91737925e-17,8.5 L1,8.03571429 Z M50,8.03571429 L51,8.5 L50,8.96428571 L50,8.03571429 Z M1,7.03571429 L1,7.96428571 L1.91737925e-17,7.5 L1,7.03571429 Z M50,7.03571429 L51,7.5 L50,7.96428571 L50,7.03571429 Z M1,6.03571429 L1,6.96428571 L1.91737925e-17,6.5 L1,6.03571429 Z M50,6.03571429 L51,6.5 L50,6.96428571 L50,6.03571429 Z" id="Triangle-2" fill="#ED5F09"></path>
                <path d="M1,5.03571429 L1,5.96428571 L1.91737925e-17,5.5 L1,5.03571429 Z M1,4.03571429 L1,4.96428571 L1.91737925e-17,4.5 L1,4.03571429 Z M1,3.03571429 L1,3.96428571 L1.91737925e-17,3.5 L1,3.03571429 Z M1,2.03571429 L1,2.96428571 L1.91737925e-17,2.5 L1,2.03571429 Z M1,1.03571429 L1,1.96428571 L1.91737925e-17,1.5 L1,1.03571429 Z M1,0.0357142857 L1,0.964285714 L1.91737925e-17,0.5 L1,0.0357142857 Z" id="Triangle-4" fill="#56288D"></path>
                <path d="M50,5.03571429 L51,5.5 L50,5.96428571 L50,5.03571429 Z M50,4.03571429 L51,4.5 L50,4.96428571 L50,4.03571429 Z M50,3.03571429 L51,3.5 L50,3.96428571 L50,3.03571429 Z M50,2.03571429 L51,2.5 L50,2.96428571 L50,2.03571429 Z M50,1.03571429 L51,1.5 L50,1.96428571 L50,1.03571429 Z M50,0.0357142857 L51,0.5 L50,0.964285714 L50,0.0357142857 Z" id="Triangle-5" fill="#56288D"></path>
                <rect id="Rectangle" stroke="#353434" stroke-width="0.4" fill="#FFF4F3" transform="translate(25.500000, 6.000000) rotate(-2.000000) translate(-25.500000, -6.000000) " x="10.2" y="3.2" width="30.6" height="5.6" rx="2"></rect>
            </g>
            <g id="Maoam" transform="translate(48.000000, 81.000000) rotate(5.000000) translate(-48.000000, -81.000000) translate(26.000000, 79.000000)">
                <path d="M44,-1.33226763e-15 L44,4 L41.5,2.333 L41.5,2.9 C41.5,3.23137085 41.2313708,3.5 40.9,3.5 L3.1,3.5 C2.76862915,3.5 2.5,3.23137085 2.5,2.9 L2.5,2.333 L4.4408921e-16,4 L0,-3.522407e-16 L2.5,1.667 L2.5,1.1 C2.5,0.76862915 2.76862915,0.5 3.1,0.5 L40.9,0.5 C41.2313708,0.5 41.5,0.76862915 41.5,1.1 L41.5,1.667 L44,-1.33226763e-15 Z" id="Combined-Shape" fill="#F49B07"></path>
                <path d="M18.5238757,1.02563008 C20.1290775,1.10236398 21.2977877,1.14073092 22.0300063,1.14073092 C22.7604467,1.14073092 23.9089793,1.10255011 25.4756043,1.02618848 C25.751446,1.01268989 25.9859616,1.22540621 25.999407,1.5012505 C25.9998023,1.50935951 26,1.51747694 26,1.52559558 L26,2.47510851 C26.0000391,2.75127248 25.776164,2.97514762 25.5,2.97514762 C25.4920951,2.97514762 25.4841914,2.97496017 25.4762954,2.97458544 C23.8564153,2.89770786 22.687648,2.85926908 21.9699937,2.85926908 C21.2540548,2.85926908 20.1054704,2.89752432 18.5242406,2.9740348 C18.2483829,2.98745826 18.0139324,2.77464916 18.0005844,2.49878782 C18.0001949,2.49073746 18,2.48267887 18,2.47461909 L18,1.5250868 C17.9999729,1.24892948 18.2238427,1.02505974 18.5,1.02505974 C18.507962,1.02505974 18.5159228,1.02524991 18.5238757,1.02563008 Z" id="Rectangle" fill="#1E45B0" transform="translate(22.000000, 2.000000) rotate(-2.000000) translate(-22.000000, -2.000000) "></path>
            </g>
            <g id="Maoam" transform="translate(23.000000, 63.000000) rotate(60.000000) translate(-23.000000, -63.000000) translate(1.000000, 61.000000)">
                <path d="M43.95,0.0906183917 L41.45,1.667 L41.45,1.1 C41.45,0.796243388 41.2037566,0.55 40.9,0.55 L3.1,0.55 C2.79624339,0.55 2.55,0.796243388 2.55,1.1 L2.47226115,1.70859995 L0.05,-3.57791815e-16 L-0.0277388497,3.95840005 L2.55,2.333 L2.55,2.9 C2.55,3.20375661 2.79624339,3.45 3.1,3.45 L40.9,3.45 C41.2037566,3.45 41.45,3.20375661 41.45,2.9 L41.5277388,2.29140005 L43.95,4 L43.95,0.0906183917 Z" id="Combined-Shape" stroke="#979797" stroke-width="0.1" fill="#F1F1E3"></path>
                <path d="M18.5238757,1.02563008 C20.1290775,1.10236398 21.2977877,1.14073092 22.0300063,1.14073092 C22.7604467,1.14073092 23.9089793,1.10255011 25.4756043,1.02618848 C25.751446,1.01268989 25.9859616,1.22540621 25.999407,1.5012505 C25.9998023,1.50935951 26,1.51747694 26,1.52559558 L26,2.47510851 C26.0000391,2.75127248 25.776164,2.97514762 25.5,2.97514762 C25.4920951,2.97514762 25.4841914,2.97496017 25.4762954,2.97458544 C23.8564153,2.89770786 22.687648,2.85926908 21.9699937,2.85926908 C21.2540548,2.85926908 20.1054704,2.89752432 18.5242406,2.9740348 C18.2483829,2.98745826 18.0139324,2.77464916 18.0005844,2.49878782 C18.0001949,2.49073746 18,2.48267887 18,2.47461909 L18,1.5250868 C17.9999729,1.24892948 18.2238427,1.02505974 18.5,1.02505974 C18.507962,1.02505974 18.5159228,1.02524991 18.5238757,1.02563008 Z" id="Rectangle" fill="#1E45B0" transform="translate(22.000000, 2.000000) rotate(-2.000000) translate(-22.000000, -2.000000) "></path>
            </g>
            <g id="Curly-Wurly" transform="translate(66.500000, 45.000000) rotate(80.000000) translate(-66.500000, -45.000000) translate(30.000000, 40.000000)">
                <rect id="Rectangle" fill="#7432BD" x="1" y="0" width="71" height="10"></rect>
                <path d="M13.3690154,0 L61.8048003,0 C61.1887329,1.66666667 61.8177543,3.19444444 63.6918645,4.58333333 C66.7693785,6.86405575 66.7693785,8.66961131 63.6918645,10 L5,10 C7.18389839,7.33333333 9.9735702,5.83333333 13.3690154,5.5 C16.7644607,5.16666667 16.7644607,3.33333333 13.3690154,0 Z" id="Rectangle" fill="#FFFFFF"></path>
                <path d="M71.5686275,9.16666667 L73,9.58333333 L71.5686275,10 L71.5686275,9.16666667 Z M1.43137255,9.16666667 L1.43137255,10 L1.79553063e-15,9.58333333 L1.43137255,9.16666667 Z M1.43137255,8.33333333 L1.43137255,9.16666667 L1.79553063e-15,8.75 L1.43137255,8.33333333 Z M71.5686275,8.33333333 L73,8.75 L71.5686275,9.16666667 L71.5686275,8.33333333 Z M1.43137255,7.5 L1.43137255,8.33333333 L-9.18485099e-17,7.91666667 L1.43137255,7.5 Z M71.5686275,7.5 L73,7.91666667 L71.5686275,8.33333333 L71.5686275,7.5 Z M1.43137255,6.66666667 L1.43137255,7.5 L-9.18485099e-17,7.08333333 L1.43137255,6.66666667 Z M71.5686275,6.66666667 L73,7.08333333 L71.5686275,7.5 L71.5686275,6.66666667 Z M1.43137255,5.83333333 L1.43137255,6.66666667 L-3.13893115e-16,6.25 L1.43137255,5.83333333 Z M71.5686275,5.83333333 L73,6.25 L71.5686275,6.66666667 L71.5686275,5.83333333 Z M1.43137255,5 L1.43137255,5.83333333 L-3.13893115e-16,5.41666667 L1.43137255,5 Z M71.5686275,5 L73,5.41666667 L71.5686275,5.83333333 L71.5686275,5 Z M1.43137255,4.16666667 L1.43137255,5 L-9.18485099e-17,4.58333333 L1.43137255,4.16666667 Z M71.5686275,4.16666667 L73,4.58333333 L71.5686275,5 L71.5686275,4.16666667 Z M1.43137255,3.33333333 L1.43137255,4.16666667 L1.90655293e-15,3.75 L1.43137255,3.33333333 Z M71.5686275,3.33333333 L73,3.75 L71.5686275,4.16666667 L71.5686275,3.33333333 Z M1.43137255,2.5 L1.43137255,3.33333333 L1.90655293e-15,2.91666667 L1.43137255,2.5 Z M71.5686275,2.5 L73,2.91666667 L71.5686275,3.33333333 L71.5686275,2.5 Z M1.43137255,1.66666667 L1.43137255,2.5 L1.90655293e-15,2.08333333 L1.43137255,1.66666667 Z M71.5686275,1.66666667 L73,2.08333333 L71.5686275,2.5 L71.5686275,1.66666667 Z M1.43137255,0.833333333 L1.43137255,1.66666667 L1.91737925e-17,1.25 L1.43137255,0.833333333 Z M71.5686275,0.833333333 L73,1.25 L71.5686275,1.66666667 L71.5686275,0.833333333 Z M1.43137255,-1.94744221e-12 L1.43137255,0.833333333 L-9.18485099e-17,0.416666667 L1.43137255,-1.94744221e-12 Z M71.5686275,1.65145675e-15 L73,0.416666667 L71.5686275,0.833333333 L71.5686275,1.65145675e-15 Z" id="Triangle-3" fill="#7432BD"></path>
                <rect id="Rectangle" stroke="#FFFFFF" stroke-width="0.4" fill="#05C1E9" transform="translate(39.000000, 5.028553) rotate(-3.000000) translate(-39.000000, -5.028553) " x="17.2" y="2.72855255" width="43.6" height="4.6" rx="2"></rect>
            </g>
            <g id="Maoam" transform="translate(81.000000, 47.000000) rotate(-93.000000) translate(-81.000000, -47.000000) translate(59.000000, 45.000000)">
                <path d="M43.95,0.0906183917 L41.45,1.667 L41.45,1.1 C41.45,0.796243388 41.2037566,0.55 40.9,0.55 L3.1,0.55 C2.79624339,0.55 2.55,0.796243388 2.55,1.1 L2.47226115,1.70859995 L0.05,-3.57791815e-16 L-0.0277388497,3.95840005 L2.55,2.333 L2.55,2.9 C2.55,3.20375661 2.79624339,3.45 3.1,3.45 L40.9,3.45 C41.2037566,3.45 41.45,3.20375661 41.45,2.9 L41.5277388,2.29140005 L43.95,4 L43.95,0.0906183917 Z" id="Combined-Shape" stroke="#979797" stroke-width="0.1" fill="#FAFC29"></path>
                <path d="M18.5238757,1.02563008 C20.1290775,1.10236398 21.2977877,1.14073092 22.0300063,1.14073092 C22.7604467,1.14073092 23.9089793,1.10255011 25.4756043,1.02618848 C25.751446,1.01268989 25.9859616,1.22540621 25.999407,1.5012505 C25.9998023,1.50935951 26,1.51747694 26,1.52559558 L26,2.47510851 C26.0000391,2.75127248 25.776164,2.97514762 25.5,2.97514762 C25.4920951,2.97514762 25.4841914,2.97496017 25.4762954,2.97458544 C23.8564153,2.89770786 22.687648,2.85926908 21.9699937,2.85926908 C21.2540548,2.85926908 20.1054704,2.89752432 18.5242406,2.9740348 C18.2483829,2.98745826 18.0139324,2.77464916 18.0005844,2.49878782 C18.0001949,2.49073746 18,2.48267887 18,2.47461909 L18,1.5250868 C17.9999729,1.24892948 18.2238427,1.02505974 18.5,1.02505974 C18.507962,1.02505974 18.5159228,1.02524991 18.5238757,1.02563008 Z" id="Rectangle" fill="#1E45B0" transform="translate(22.000000, 2.000000) rotate(-2.000000) translate(-22.000000, -2.000000) "></path>
            </g>
            <g id="Double-Decker" transform="translate(38.000000, 37.000000)">
                <rect id="Rectangle" fill="#ED5F09" x="1" y="0" width="49" height="13"></rect>
                <path d="M1,0 L50,0 L50,6.03571429 C38.0302896,5.3535427 29.1969563,5.0083046 23.5,5 C17.8030437,4.9916954 10.3030437,5.31312397 1,5.96428571 L1,0 Z" id="Rectangle" fill="#56288D"></path>
                <path d="M50,12.0357143 L51,12.5 L50,12.9642857 L50,12.0357143 Z M1,12.0357143 L1,12.9642857 L1.91737925e-17,12.5 L1,12.0357143 Z M1,11.0357143 L1,11.9642857 L1.91737925e-17,11.5 L1,11.0357143 Z M50,11.0357143 L51,11.5 L50,11.9642857 L50,11.0357143 Z M1,10.0357143 L1,10.9642857 L1.91737925e-17,10.5 L1,10.0357143 Z M50,10.0357143 L51,10.5 L50,10.9642857 L50,10.0357143 Z M1,9.03571429 L1,9.96428571 L1.91737925e-17,9.5 L1,9.03571429 Z M50,9.03571429 L51,9.5 L50,9.96428571 L50,9.03571429 Z M1,8.03571429 L1,8.96428571 L1.91737925e-17,8.5 L1,8.03571429 Z M50,8.03571429 L51,8.5 L50,8.96428571 L50,8.03571429 Z M1,7.03571429 L1,7.96428571 L1.91737925e-17,7.5 L1,7.03571429 Z M50,7.03571429 L51,7.5 L50,7.96428571 L50,7.03571429 Z M1,6.03571429 L1,6.96428571 L1.91737925e-17,6.5 L1,6.03571429 Z M50,6.03571429 L51,6.5 L50,6.96428571 L50,6.03571429 Z" id="Triangle-2" fill="#ED5F09"></path>
                <path d="M1,5.03571429 L1,5.96428571 L1.91737925e-17,5.5 L1,5.03571429 Z M1,4.03571429 L1,4.96428571 L1.91737925e-17,4.5 L1,4.03571429 Z M1,3.03571429 L1,3.96428571 L1.91737925e-17,3.5 L1,3.03571429 Z M1,2.03571429 L1,2.96428571 L1.91737925e-17,2.5 L1,2.03571429 Z M1,1.03571429 L1,1.96428571 L1.91737925e-17,1.5 L1,1.03571429 Z M1,0.0357142857 L1,0.964285714 L1.91737925e-17,0.5 L1,0.0357142857 Z" id="Triangle-4" fill="#56288D"></path>
                <path d="M50,5.03571429 L51,5.5 L50,5.96428571 L50,5.03571429 Z M50,4.03571429 L51,4.5 L50,4.96428571 L50,4.03571429 Z M50,3.03571429 L51,3.5 L50,3.96428571 L50,3.03571429 Z M50,2.03571429 L51,2.5 L50,2.96428571 L50,2.03571429 Z M50,1.03571429 L51,1.5 L50,1.96428571 L50,1.03571429 Z M50,0.0357142857 L51,0.5 L50,0.964285714 L50,0.0357142857 Z" id="Triangle-5" fill="#56288D"></path>
                <rect id="Rectangle" stroke="#353434" stroke-width="0.4" fill="#FFF4F3" transform="translate(25.500000, 6.000000) rotate(-2.000000) translate(-25.500000, -6.000000) " x="10.2" y="3.2" width="30.6" height="5.6" rx="2"></rect>
            </g>
            <g id="Crunchie" transform="translate(65.500000, 63.000000) rotate(-60.000000) translate(-65.500000, -63.000000) translate(40.000000, 57.000000)">
                <rect id="Rectangle" fill="#7432BD" x="1" y="0" width="49" height="12"></rect>
                <path d="M9.47251924,0 L43.6157774,0 C43.1815004,2 43.6249089,3.83333333 44.946003,5.5 C47.1153981,8.23686691 47.1153981,10.4035336 44.946003,12 L3.57304934,12 C5.1125187,8.8 7.07900867,7 9.47251924,6.6 C11.8660298,6.2 11.8660298,4 9.47251924,0 Z" id="Rectangle" fill="#EFBD21"></path>
                <path d="M50,11 L51,11.5 L50,12 L50,11 Z M1,11 L1,12 L1.91737925e-17,11.5 L1,11 Z M1,10 L1,11 L1.91737925e-17,10.5 L1,10 Z M50,10 L51,10.5 L50,11 L50,10 Z M1,9 L1,10 L1.91737925e-17,9.5 L1,9 Z M50,9 L51,9.5 L50,10 L50,9 Z M1,8 L1,9 L1.91737925e-17,8.5 L1,8 Z M50,8 L51,8.5 L50,9 L50,8 Z M1,7 L1,8 L1.91737925e-17,7.5 L1,7 Z M50,7 L51,7.5 L50,8 L50,7 Z M1,6 L1,7 L1.91737925e-17,6.5 L1,6 Z M50,6 L51,6.5 L50,7 L50,6 Z M1,5 L1,6 L1.91737925e-17,5.5 L1,5 Z M50,5 L51,5.5 L50,6 L50,5 Z M1,4 L1,5 L1.91737925e-17,4.5 L1,4 Z M50,4 L51,4.5 L50,5 L50,4 Z M1,3 L1,4 L1.91737925e-17,3.5 L1,3 Z M50,3 L51,3.5 L50,4 L50,3 Z M1,2 L1,3 L1.91737925e-17,2.5 L1,2 Z M50,2 L51,2.5 L50,3 L50,2 Z M50,1 L51,1.5 L50,2 L50,1 Z M1,1 L1,2 L1.91737925e-17,1.5 L1,1 Z M50,3.061617e-17 L51,0.5 L50,1 L50,3.061617e-17 Z M1,-2.22044605e-16 L1,1 L1.91737925e-17,0.5 L1,-2.22044605e-16 Z" id="Triangle-3" fill="#7432BD"></path>
                <rect id="Rectangle" stroke="#FFFFFF" stroke-width="0.4" fill="#CA302A" x="12.24099" y="3.1283515" width="30.6" height="5.6" rx="2"></rect>
            </g>
            <g id="Maoam" transform="translate(68.000000, 55.000000) rotate(-10.000000) translate(-68.000000, -55.000000) translate(46.000000, 53.000000)">
                <path d="M43.95,0.0906183917 L41.45,1.667 L41.45,1.1 C41.45,0.796243388 41.2037566,0.55 40.9,0.55 L3.1,0.55 C2.79624339,0.55 2.55,0.796243388 2.55,1.1 L2.47226115,1.70859995 L0.05,-3.57791815e-16 L-0.0277388497,3.95840005 L2.55,2.333 L2.55,2.9 C2.55,3.20375661 2.79624339,3.45 3.1,3.45 L40.9,3.45 C41.2037566,3.45 41.45,3.20375661 41.45,2.9 L41.5277388,2.29140005 L43.95,4 L43.95,0.0906183917 Z" id="Combined-Shape" stroke="#979797" stroke-width="0.1" fill="#F1F1E3"></path>
                <path d="M18.5238757,1.02563008 C20.1290775,1.10236398 21.2977877,1.14073092 22.0300063,1.14073092 C22.7604467,1.14073092 23.9089793,1.10255011 25.4756043,1.02618848 C25.751446,1.01268989 25.9859616,1.22540621 25.999407,1.5012505 C25.9998023,1.50935951 26,1.51747694 26,1.52559558 L26,2.47510851 C26.0000391,2.75127248 25.776164,2.97514762 25.5,2.97514762 C25.4920951,2.97514762 25.4841914,2.97496017 25.4762954,2.97458544 C23.8564153,2.89770786 22.687648,2.85926908 21.9699937,2.85926908 C21.2540548,2.85926908 20.1054704,2.89752432 18.5242406,2.9740348 C18.2483829,2.98745826 18.0139324,2.77464916 18.0005844,2.49878782 C18.0001949,2.49073746 18,2.48267887 18,2.47461909 L18,1.5250868 C17.9999729,1.24892948 18.2238427,1.02505974 18.5,1.02505974 C18.507962,1.02505974 18.5159228,1.02524991 18.5238757,1.02563008 Z" id="Rectangle" fill="#1E45B0" transform="translate(22.000000, 2.000000) rotate(-2.000000) translate(-22.000000, -2.000000) "></path>
            </g>
            <g id="Maoam" transform="translate(66.000000, 40.000000) rotate(-30.000000) translate(-66.000000, -40.000000) translate(44.000000, 38.000000)">
                <path d="M44,-1.33226763e-15 L44,4 L41.5,2.333 L41.5,2.9 C41.5,3.23137085 41.2313708,3.5 40.9,3.5 L3.1,3.5 C2.76862915,3.5 2.5,3.23137085 2.5,2.9 L2.5,2.333 L4.4408921e-16,4 L0,-3.522407e-16 L2.5,1.667 L2.5,1.1 C2.5,0.76862915 2.76862915,0.5 3.1,0.5 L40.9,0.5 C41.2313708,0.5 41.5,0.76862915 41.5,1.1 L41.5,1.667 L44,-1.33226763e-15 Z" id="Combined-Shape" fill="#F44D94"></path>
                <path d="M18.5238757,1.02563008 C20.1290775,1.10236398 21.2977877,1.14073092 22.0300063,1.14073092 C22.7604467,1.14073092 23.9089793,1.10255011 25.4756043,1.02618848 C25.751446,1.01268989 25.9859616,1.22540621 25.999407,1.5012505 C25.9998023,1.50935951 26,1.51747694 26,1.52559558 L26,2.47510851 C26.0000391,2.75127248 25.776164,2.97514762 25.5,2.97514762 C25.4920951,2.97514762 25.4841914,2.97496017 25.4762954,2.97458544 C23.8564153,2.89770786 22.687648,2.85926908 21.9699937,2.85926908 C21.2540548,2.85926908 20.1054704,2.89752432 18.5242406,2.9740348 C18.2483829,2.98745826 18.0139324,2.77464916 18.0005844,2.49878782 C18.0001949,2.49073746 18,2.48267887 18,2.47461909 L18,1.5250868 C17.9999729,1.24892948 18.2238427,1.02505974 18.5,1.02505974 C18.507962,1.02505974 18.5159228,1.02524991 18.5238757,1.02563008 Z" id="Rectangle" fill="#1E45B0" transform="translate(22.000000, 2.000000) rotate(-2.000000) translate(-22.000000, -2.000000) "></path>
            </g>
            <g id="Curly-Wurly" transform="translate(59.500000, 42.000000) rotate(90.000000) translate(-59.500000, -42.000000) translate(23.000000, 37.000000)">
                <rect id="Rectangle" fill="#7432BD" x="1" y="0" width="71" height="10"></rect>
                <path d="M13.3690154,0 L61.8048003,0 C61.1887329,1.66666667 61.8177543,3.19444444 63.6918645,4.58333333 C66.7693785,6.86405575 66.7693785,8.66961131 63.6918645,10 L5,10 C7.18389839,7.33333333 9.9735702,5.83333333 13.3690154,5.5 C16.7644607,5.16666667 16.7644607,3.33333333 13.3690154,0 Z" id="Rectangle" fill="#FFFFFF"></path>
                <path d="M71.5686275,9.16666667 L73,9.58333333 L71.5686275,10 L71.5686275,9.16666667 Z M1.43137255,9.16666667 L1.43137255,10 L1.79553063e-15,9.58333333 L1.43137255,9.16666667 Z M1.43137255,8.33333333 L1.43137255,9.16666667 L1.79553063e-15,8.75 L1.43137255,8.33333333 Z M71.5686275,8.33333333 L73,8.75 L71.5686275,9.16666667 L71.5686275,8.33333333 Z M1.43137255,7.5 L1.43137255,8.33333333 L-9.18485099e-17,7.91666667 L1.43137255,7.5 Z M71.5686275,7.5 L73,7.91666667 L71.5686275,8.33333333 L71.5686275,7.5 Z M1.43137255,6.66666667 L1.43137255,7.5 L-9.18485099e-17,7.08333333 L1.43137255,6.66666667 Z M71.5686275,6.66666667 L73,7.08333333 L71.5686275,7.5 L71.5686275,6.66666667 Z M1.43137255,5.83333333 L1.43137255,6.66666667 L-3.13893115e-16,6.25 L1.43137255,5.83333333 Z M71.5686275,5.83333333 L73,6.25 L71.5686275,6.66666667 L71.5686275,5.83333333 Z M1.43137255,5 L1.43137255,5.83333333 L-3.13893115e-16,5.41666667 L1.43137255,5 Z M71.5686275,5 L73,5.41666667 L71.5686275,5.83333333 L71.5686275,5 Z M1.43137255,4.16666667 L1.43137255,5 L-9.18485099e-17,4.58333333 L1.43137255,4.16666667 Z M71.5686275,4.16666667 L73,4.58333333 L71.5686275,5 L71.5686275,4.16666667 Z M1.43137255,3.33333333 L1.43137255,4.16666667 L1.90655293e-15,3.75 L1.43137255,3.33333333 Z M71.5686275,3.33333333 L73,3.75 L71.5686275,4.16666667 L71.5686275,3.33333333 Z M1.43137255,2.5 L1.43137255,3.33333333 L1.90655293e-15,2.91666667 L1.43137255,2.5 Z M71.5686275,2.5 L73,2.91666667 L71.5686275,3.33333333 L71.5686275,2.5 Z M1.43137255,1.66666667 L1.43137255,2.5 L1.90655293e-15,2.08333333 L1.43137255,1.66666667 Z M71.5686275,1.66666667 L73,2.08333333 L71.5686275,2.5 L71.5686275,1.66666667 Z M1.43137255,0.833333333 L1.43137255,1.66666667 L1.91737925e-17,1.25 L1.43137255,0.833333333 Z M71.5686275,0.833333333 L73,1.25 L71.5686275,1.66666667 L71.5686275,0.833333333 Z M1.43137255,-1.94744221e-12 L1.43137255,0.833333333 L-9.18485099e-17,0.416666667 L1.43137255,-1.94744221e-12 Z M71.5686275,1.65145675e-15 L73,0.416666667 L71.5686275,0.833333333 L71.5686275,1.65145675e-15 Z" id="Triangle-3" fill="#7432BD"></path>
                <rect id="Rectangle" stroke="#FFFFFF" stroke-width="0.4" fill="#05C1E9" transform="translate(39.000000, 5.028553) rotate(-3.000000) translate(-39.000000, -5.028553) " x="17.2" y="2.72855255" width="43.6" height="4.6" rx="2"></rect>
            </g>
            <g id="Curly-Wurly" transform="translate(51.500000, 38.000000) rotate(80.000000) translate(-51.500000, -38.000000) translate(15.000000, 33.000000)">
                <rect id="Rectangle" fill="#7432BD" x="1" y="0" width="71" height="10"></rect>
                <path d="M13.3690154,0 L61.8048003,0 C61.1887329,1.66666667 61.8177543,3.19444444 63.6918645,4.58333333 C66.7693785,6.86405575 66.7693785,8.66961131 63.6918645,10 L5,10 C7.18389839,7.33333333 9.9735702,5.83333333 13.3690154,5.5 C16.7644607,5.16666667 16.7644607,3.33333333 13.3690154,0 Z" id="Rectangle" fill="#FFFFFF"></path>
                <path d="M71.5686275,9.16666667 L73,9.58333333 L71.5686275,10 L71.5686275,9.16666667 Z M1.43137255,9.16666667 L1.43137255,10 L1.79553063e-15,9.58333333 L1.43137255,9.16666667 Z M1.43137255,8.33333333 L1.43137255,9.16666667 L1.79553063e-15,8.75 L1.43137255,8.33333333 Z M71.5686275,8.33333333 L73,8.75 L71.5686275,9.16666667 L71.5686275,8.33333333 Z M1.43137255,7.5 L1.43137255,8.33333333 L-9.18485099e-17,7.91666667 L1.43137255,7.5 Z M71.5686275,7.5 L73,7.91666667 L71.5686275,8.33333333 L71.5686275,7.5 Z M1.43137255,6.66666667 L1.43137255,7.5 L-9.18485099e-17,7.08333333 L1.43137255,6.66666667 Z M71.5686275,6.66666667 L73,7.08333333 L71.5686275,7.5 L71.5686275,6.66666667 Z M1.43137255,5.83333333 L1.43137255,6.66666667 L-3.13893115e-16,6.25 L1.43137255,5.83333333 Z M71.5686275,5.83333333 L73,6.25 L71.5686275,6.66666667 L71.5686275,5.83333333 Z M1.43137255,5 L1.43137255,5.83333333 L-3.13893115e-16,5.41666667 L1.43137255,5 Z M71.5686275,5 L73,5.41666667 L71.5686275,5.83333333 L71.5686275,5 Z M1.43137255,4.16666667 L1.43137255,5 L-9.18485099e-17,4.58333333 L1.43137255,4.16666667 Z M71.5686275,4.16666667 L73,4.58333333 L71.5686275,5 L71.5686275,4.16666667 Z M1.43137255,3.33333333 L1.43137255,4.16666667 L1.90655293e-15,3.75 L1.43137255,3.33333333 Z M71.5686275,3.33333333 L73,3.75 L71.5686275,4.16666667 L71.5686275,3.33333333 Z M1.43137255,2.5 L1.43137255,3.33333333 L1.90655293e-15,2.91666667 L1.43137255,2.5 Z M71.5686275,2.5 L73,2.91666667 L71.5686275,3.33333333 L71.5686275,2.5 Z M1.43137255,1.66666667 L1.43137255,2.5 L1.90655293e-15,2.08333333 L1.43137255,1.66666667 Z M71.5686275,1.66666667 L73,2.08333333 L71.5686275,2.5 L71.5686275,1.66666667 Z M1.43137255,0.833333333 L1.43137255,1.66666667 L1.91737925e-17,1.25 L1.43137255,0.833333333 Z M71.5686275,0.833333333 L73,1.25 L71.5686275,1.66666667 L71.5686275,0.833333333 Z M1.43137255,-1.94744221e-12 L1.43137255,0.833333333 L-9.18485099e-17,0.416666667 L1.43137255,-1.94744221e-12 Z M71.5686275,1.65145675e-15 L73,0.416666667 L71.5686275,0.833333333 L71.5686275,1.65145675e-15 Z" id="Triangle-3" fill="#7432BD"></path>
                <rect id="Rectangle" stroke="#FFFFFF" stroke-width="0.4" fill="#05C1E9" transform="translate(39.000000, 5.028553) rotate(-3.000000) translate(-39.000000, -5.028553) " x="17.2" y="2.72855255" width="43.6" height="4.6" rx="2"></rect>
            </g>
            <g id="Crunchie" transform="translate(77.500000, 33.000000) rotate(80.000000) translate(-77.500000, -33.000000) translate(52.000000, 27.000000)">
                <rect id="Rectangle" fill="#7432BD" x="1" y="0" width="49" height="12"></rect>
                <path d="M9.47251924,0 L43.6157774,0 C43.1815004,2 43.6249089,3.83333333 44.946003,5.5 C47.1153981,8.23686691 47.1153981,10.4035336 44.946003,12 L3.57304934,12 C5.1125187,8.8 7.07900867,7 9.47251924,6.6 C11.8660298,6.2 11.8660298,4 9.47251924,0 Z" id="Rectangle" fill="#EFBD21"></path>
                <path d="M50,11 L51,11.5 L50,12 L50,11 Z M1,11 L1,12 L1.91737925e-17,11.5 L1,11 Z M1,10 L1,11 L1.91737925e-17,10.5 L1,10 Z M50,10 L51,10.5 L50,11 L50,10 Z M1,9 L1,10 L1.91737925e-17,9.5 L1,9 Z M50,9 L51,9.5 L50,10 L50,9 Z M1,8 L1,9 L1.91737925e-17,8.5 L1,8 Z M50,8 L51,8.5 L50,9 L50,8 Z M1,7 L1,8 L1.91737925e-17,7.5 L1,7 Z M50,7 L51,7.5 L50,8 L50,7 Z M1,6 L1,7 L1.91737925e-17,6.5 L1,6 Z M50,6 L51,6.5 L50,7 L50,6 Z M1,5 L1,6 L1.91737925e-17,5.5 L1,5 Z M50,5 L51,5.5 L50,6 L50,5 Z M1,4 L1,5 L1.91737925e-17,4.5 L1,4 Z M50,4 L51,4.5 L50,5 L50,4 Z M1,3 L1,4 L1.91737925e-17,3.5 L1,3 Z M50,3 L51,3.5 L50,4 L50,3 Z M1,2 L1,3 L1.91737925e-17,2.5 L1,2 Z M50,2 L51,2.5 L50,3 L50,2 Z M50,1 L51,1.5 L50,2 L50,1 Z M1,1 L1,2 L1.91737925e-17,1.5 L1,1 Z M50,3.061617e-17 L51,0.5 L50,1 L50,3.061617e-17 Z M1,-2.22044605e-16 L1,1 L1.91737925e-17,0.5 L1,-2.22044605e-16 Z" id="Triangle-3" fill="#7432BD"></path>
                <rect id="Rectangle" stroke="#FFFFFF" stroke-width="0.4" fill="#CA302A" x="12.24099" y="3.1283515" width="30.6" height="5.6" rx="2"></rect>
            </g>
            <g id="Double-Decker" transform="translate(52.500000, 73.500000) rotate(-10.000000) translate(-52.500000, -73.500000) translate(27.000000, 67.000000)">
                <rect id="Rectangle" fill="#ED5F09" x="1" y="0" width="49" height="13"></rect>
                <path d="M1,0 L50,0 L50,6.03571429 C38.0302896,5.3535427 29.1969563,5.0083046 23.5,5 C17.8030437,4.9916954 10.3030437,5.31312397 1,5.96428571 L1,0 Z" id="Rectangle" fill="#56288D"></path>
                <path d="M50,12.0357143 L51,12.5 L50,12.9642857 L50,12.0357143 Z M1,12.0357143 L1,12.9642857 L1.91737925e-17,12.5 L1,12.0357143 Z M1,11.0357143 L1,11.9642857 L1.91737925e-17,11.5 L1,11.0357143 Z M50,11.0357143 L51,11.5 L50,11.9642857 L50,11.0357143 Z M1,10.0357143 L1,10.9642857 L1.91737925e-17,10.5 L1,10.0357143 Z M50,10.0357143 L51,10.5 L50,10.9642857 L50,10.0357143 Z M1,9.03571429 L1,9.96428571 L1.91737925e-17,9.5 L1,9.03571429 Z M50,9.03571429 L51,9.5 L50,9.96428571 L50,9.03571429 Z M1,8.03571429 L1,8.96428571 L1.91737925e-17,8.5 L1,8.03571429 Z M50,8.03571429 L51,8.5 L50,8.96428571 L50,8.03571429 Z M1,7.03571429 L1,7.96428571 L1.91737925e-17,7.5 L1,7.03571429 Z M50,7.03571429 L51,7.5 L50,7.96428571 L50,7.03571429 Z M1,6.03571429 L1,6.96428571 L1.91737925e-17,6.5 L1,6.03571429 Z M50,6.03571429 L51,6.5 L50,6.96428571 L50,6.03571429 Z" id="Triangle-2" fill="#ED5F09"></path>
                <path d="M1,5.03571429 L1,5.96428571 L1.91737925e-17,5.5 L1,5.03571429 Z M1,4.03571429 L1,4.96428571 L1.91737925e-17,4.5 L1,4.03571429 Z M1,3.03571429 L1,3.96428571 L1.91737925e-17,3.5 L1,3.03571429 Z M1,2.03571429 L1,2.96428571 L1.91737925e-17,2.5 L1,2.03571429 Z M1,1.03571429 L1,1.96428571 L1.91737925e-17,1.5 L1,1.03571429 Z M1,0.0357142857 L1,0.964285714 L1.91737925e-17,0.5 L1,0.0357142857 Z" id="Triangle-4" fill="#56288D"></path>
                <path d="M50,5.03571429 L51,5.5 L50,5.96428571 L50,5.03571429 Z M50,4.03571429 L51,4.5 L50,4.96428571 L50,4.03571429 Z M50,3.03571429 L51,3.5 L50,3.96428571 L50,3.03571429 Z M50,2.03571429 L51,2.5 L50,2.96428571 L50,2.03571429 Z M50,1.03571429 L51,1.5 L50,1.96428571 L50,1.03571429 Z M50,0.0357142857 L51,0.5 L50,0.964285714 L50,0.0357142857 Z" id="Triangle-5" fill="#56288D"></path>
                <rect id="Rectangle" stroke="#353434" stroke-width="0.4" fill="#FFF4F3" transform="translate(25.500000, 6.000000) rotate(-2.000000) translate(-25.500000, -6.000000) " x="10.2" y="3.2" width="30.6" height="5.6" rx="2"></rect>
            </g>
            <g id="Maoam" transform="translate(32.000000, 55.000000) rotate(10.000000) translate(-32.000000, -55.000000) translate(10.000000, 53.000000)">
                <path d="M44,-1.33226763e-15 L44,4 L41.5,2.333 L41.5,2.9 C41.5,3.23137085 41.2313708,3.5 40.9,3.5 L3.1,3.5 C2.76862915,3.5 2.5,3.23137085 2.5,2.9 L2.5,2.333 L4.4408921e-16,4 L0,-3.522407e-16 L2.5,1.667 L2.5,1.1 C2.5,0.76862915 2.76862915,0.5 3.1,0.5 L40.9,0.5 C41.2313708,0.5 41.5,0.76862915 41.5,1.1 L41.5,1.667 L44,-1.33226763e-15 Z" id="Combined-Shape" fill="#F49B07"></path>
                <path d="M18.5238757,1.02563008 C20.1290775,1.10236398 21.2977877,1.14073092 22.0300063,1.14073092 C22.7604467,1.14073092 23.9089793,1.10255011 25.4756043,1.02618848 C25.751446,1.01268989 25.9859616,1.22540621 25.999407,1.5012505 C25.9998023,1.50935951 26,1.51747694 26,1.52559558 L26,2.47510851 C26.0000391,2.75127248 25.776164,2.97514762 25.5,2.97514762 C25.4920951,2.97514762 25.4841914,2.97496017 25.4762954,2.97458544 C23.8564153,2.89770786 22.687648,2.85926908 21.9699937,2.85926908 C21.2540548,2.85926908 20.1054704,2.89752432 18.5242406,2.9740348 C18.2483829,2.98745826 18.0139324,2.77464916 18.0005844,2.49878782 C18.0001949,2.49073746 18,2.48267887 18,2.47461909 L18,1.5250868 C17.9999729,1.24892948 18.2238427,1.02505974 18.5,1.02505974 C18.507962,1.02505974 18.5159228,1.02524991 18.5238757,1.02563008 Z" id="Rectangle" fill="#1E45B0" transform="translate(22.000000, 2.000000) rotate(-2.000000) translate(-22.000000, -2.000000) "></path>
            </g>
            <g id="Maoam" transform="translate(50.000000, 81.000000) rotate(-7.000000) translate(-50.000000, -81.000000) translate(28.000000, 79.000000)">
                <path d="M43.95,0.0906183917 L41.45,1.667 L41.45,1.1 C41.45,0.796243388 41.2037566,0.55 40.9,0.55 L3.1,0.55 C2.79624339,0.55 2.55,0.796243388 2.55,1.1 L2.47226115,1.70859995 L0.05,-3.57791815e-16 L-0.0277388497,3.95840005 L2.55,2.333 L2.55,2.9 C2.55,3.20375661 2.79624339,3.45 3.1,3.45 L40.9,3.45 C41.2037566,3.45 41.45,3.20375661 41.45,2.9 L41.5277388,2.29140005 L43.95,4 L43.95,0.0906183917 Z" id="Combined-Shape" stroke="#979797" stroke-width="0.1" fill="#F1F1E3"></path>
                <path d="M18.5238757,1.02563008 C20.1290775,1.10236398 21.2977877,1.14073092 22.0300063,1.14073092 C22.7604467,1.14073092 23.9089793,1.10255011 25.4756043,1.02618848 C25.751446,1.01268989 25.9859616,1.22540621 25.999407,1.5012505 C25.9998023,1.50935951 26,1.51747694 26,1.52559558 L26,2.47510851 C26.0000391,2.75127248 25.776164,2.97514762 25.5,2.97514762 C25.4920951,2.97514762 25.4841914,2.97496017 25.4762954,2.97458544 C23.8564153,2.89770786 22.687648,2.85926908 21.9699937,2.85926908 C21.2540548,2.85926908 20.1054704,2.89752432 18.5242406,2.9740348 C18.2483829,2.98745826 18.0139324,2.77464916 18.0005844,2.49878782 C18.0001949,2.49073746 18,2.48267887 18,2.47461909 L18,1.5250868 C17.9999729,1.24892948 18.2238427,1.02505974 18.5,1.02505974 C18.507962,1.02505974 18.5159228,1.02524991 18.5238757,1.02563008 Z" id="Rectangle" fill="#1E45B0" transform="translate(22.000000, 2.000000) rotate(-2.000000) translate(-22.000000, -2.000000) "></path>
            </g>
            <g id="Maoam" transform="translate(32.000000, 51.000000) rotate(-20.000000) translate(-32.000000, -51.000000) translate(10.000000, 49.000000)">
                <path d="M44,-1.33226763e-15 L44,4 L41.5,2.333 L41.5,2.9 C41.5,3.23137085 41.2313708,3.5 40.9,3.5 L3.1,3.5 C2.76862915,3.5 2.5,3.23137085 2.5,2.9 L2.5,2.333 L4.4408921e-16,4 L0,-3.522407e-16 L2.5,1.667 L2.5,1.1 C2.5,0.76862915 2.76862915,0.5 3.1,0.5 L40.9,0.5 C41.2313708,0.5 41.5,0.76862915 41.5,1.1 L41.5,1.667 L44,-1.33226763e-15 Z" id="Combined-Shape" fill="#F44D94"></path>
                <path d="M18.5238757,1.02563008 C20.1290775,1.10236398 21.2977877,1.14073092 22.0300063,1.14073092 C22.7604467,1.14073092 23.9089793,1.10255011 25.4756043,1.02618848 C25.751446,1.01268989 25.9859616,1.22540621 25.999407,1.5012505 C25.9998023,1.50935951 26,1.51747694 26,1.52559558 L26,2.47510851 C26.0000391,2.75127248 25.776164,2.97514762 25.5,2.97514762 C25.4920951,2.97514762 25.4841914,2.97496017 25.4762954,2.97458544 C23.8564153,2.89770786 22.687648,2.85926908 21.9699937,2.85926908 C21.2540548,2.85926908 20.1054704,2.89752432 18.5242406,2.9740348 C18.2483829,2.98745826 18.0139324,2.77464916 18.0005844,2.49878782 C18.0001949,2.49073746 18,2.48267887 18,2.47461909 L18,1.5250868 C17.9999729,1.24892948 18.2238427,1.02505974 18.5,1.02505974 C18.507962,1.02505974 18.5159228,1.02524991 18.5238757,1.02563008 Z" id="Rectangle" fill="#1E45B0" transform="translate(22.000000, 2.000000) rotate(-2.000000) translate(-22.000000, -2.000000) "></path>
            </g>
            <g id="Maoam" transform="translate(45.000000, 66.000000) rotate(89.000000) translate(-45.000000, -66.000000) translate(23.000000, 64.000000)">
                <path d="M43.95,0.0906183917 L41.45,1.667 L41.45,1.1 C41.45,0.796243388 41.2037566,0.55 40.9,0.55 L3.1,0.55 C2.79624339,0.55 2.55,0.796243388 2.55,1.1 L2.47226115,1.70859995 L0.05,-3.57791815e-16 L-0.0277388497,3.95840005 L2.55,2.333 L2.55,2.9 C2.55,3.20375661 2.79624339,3.45 3.1,3.45 L40.9,3.45 C41.2037566,3.45 41.45,3.20375661 41.45,2.9 L41.5277388,2.29140005 L43.95,4 L43.95,0.0906183917 Z" id="Combined-Shape" stroke="#979797" stroke-width="0.1" fill="#FAFC29"></path>
                <path d="M18.5238757,1.02563008 C20.1290775,1.10236398 21.2977877,1.14073092 22.0300063,1.14073092 C22.7604467,1.14073092 23.9089793,1.10255011 25.4756043,1.02618848 C25.751446,1.01268989 25.9859616,1.22540621 25.999407,1.5012505 C25.9998023,1.50935951 26,1.51747694 26,1.52559558 L26,2.47510851 C26.0000391,2.75127248 25.776164,2.97514762 25.5,2.97514762 C25.4920951,2.97514762 25.4841914,2.97496017 25.4762954,2.97458544 C23.8564153,2.89770786 22.687648,2.85926908 21.9699937,2.85926908 C21.2540548,2.85926908 20.1054704,2.89752432 18.5242406,2.9740348 C18.2483829,2.98745826 18.0139324,2.77464916 18.0005844,2.49878782 C18.0001949,2.49073746 18,2.48267887 18,2.47461909 L18,1.5250868 C17.9999729,1.24892948 18.2238427,1.02505974 18.5,1.02505974 C18.507962,1.02505974 18.5159228,1.02524991 18.5238757,1.02563008 Z" id="Rectangle" fill="#1E45B0" transform="translate(22.000000, 2.000000) rotate(-2.000000) translate(-22.000000, -2.000000) "></path>
            </g>
            <g id="Crispy-Roll" transform="translate(24.500000, 46.000000) rotate(95.000000) translate(-24.500000, -46.000000) translate(-1.000000, 40.000000)">
                <rect id="Rectangle" fill="#054CBF" x="1" y="0" width="49" height="12"></rect>
                <path d="M5.43613297,1 L45,1 L45,11 L2,11 C2.51764905,10 2.77647357,8.33333333 2.77647357,6 C2.77647357,3.66666667 3.6630267,2 5.43613297,1 Z" id="Rectangle" fill="#68C1F2"></path>
                <path d="M23.4976846,1 L45.7562952,1 C47.448506,2 48.2946114,3.33333333 48.2946114,5 C48.2946114,7.32994132 48.529773,9.32994132 49.0000962,11 L22,11 C24.3333333,10 25.5,8.5 25.5,6.5 C25.5,4.5 24.8325615,2.66666667 23.4976846,1 Z" id="Rectangle" fill="#FFEDA9"></path>
                <polygon id="Triangle" fill="#054CBF" transform="translate(0.500000, 4.500000) rotate(270.000000) translate(-0.500000, -4.500000) " points="0.5 4 1 5 0 5"></polygon>
                <polygon id="Triangle" fill="#054CBF" transform="translate(0.500000, 1.500000) rotate(270.000000) translate(-0.500000, -1.500000) " points="0.5 1 1 2 0 2"></polygon>
                <polygon id="Triangle" fill="#054CBF" transform="translate(0.500000, 2.500000) rotate(270.000000) translate(-0.500000, -2.500000) " points="0.5 2 1 3 0 3"></polygon>
                <polygon id="Triangle" fill="#054CBF" transform="translate(0.500000, 3.500000) rotate(270.000000) translate(-0.500000, -3.500000) " points="0.5 3 1 4 0 4"></polygon>
                <polygon id="Triangle" fill="#054CBF" transform="translate(0.500000, 5.500000) rotate(270.000000) translate(-0.500000, -5.500000) " points="0.5 5 1 6 0 6"></polygon>
                <polygon id="Triangle" fill="#054CBF" transform="translate(0.500000, 6.500000) rotate(270.000000) translate(-0.500000, -6.500000) " points="0.5 6 1 7 0 7"></polygon>
                <polygon id="Triangle" fill="#054CBF" transform="translate(0.500000, 7.500000) rotate(270.000000) translate(-0.500000, -7.500000) " points="0.5 7 1 8 0 8"></polygon>
                <polygon id="Triangle" fill="#054CBF" transform="translate(0.500000, 8.500000) rotate(270.000000) translate(-0.500000, -8.500000) " points="0.5 8 1 9 0 9"></polygon>
                <polygon id="Triangle" fill="#054CBF" transform="translate(0.500000, 0.500000) rotate(270.000000) translate(-0.500000, -0.500000) " points="0.5 0 1 1 0 1"></polygon>
                <polygon id="Triangle" fill="#054CBF" transform="translate(0.500000, 9.500000) rotate(270.000000) translate(-0.500000, -9.500000) " points="0.5 9 1 10 0 10"></polygon>
                <polygon id="Triangle" fill="#054CBF" transform="translate(0.500000, 10.500000) rotate(270.000000) translate(-0.500000, -10.500000) " points="0.5 10 1 11 0 11"></polygon>
                <polygon id="Triangle" fill="#054CBF" transform="translate(0.500000, 11.500000) rotate(270.000000) translate(-0.500000, -11.500000) " points="0.5 11 1 12 0 12"></polygon>
                <polygon id="Triangle" fill="#054CBF" transform="translate(50.500000, 4.500000) rotate(90.000000) translate(-50.500000, -4.500000) " points="50.5 4 51 5 50 5"></polygon>
                <polygon id="Triangle" fill="#054CBF" transform="translate(50.500000, 1.500000) rotate(90.000000) translate(-50.500000, -1.500000) " points="50.5 1 51 2 50 2"></polygon>
                <polygon id="Triangle" fill="#054CBF" transform="translate(50.500000, 2.500000) rotate(90.000000) translate(-50.500000, -2.500000) " points="50.5 2 51 3 50 3"></polygon>
                <polygon id="Triangle" fill="#054CBF" transform="translate(50.500000, 3.500000) rotate(90.000000) translate(-50.500000, -3.500000) " points="50.5 3 51 4 50 4"></polygon>
                <polygon id="Triangle" fill="#054CBF" transform="translate(50.500000, 5.500000) rotate(90.000000) translate(-50.500000, -5.500000) " points="50.5 5 51 6 50 6"></polygon>
                <polygon id="Triangle" fill="#054CBF" transform="translate(50.500000, 6.500000) rotate(90.000000) translate(-50.500000, -6.500000) " points="50.5 6 51 7 50 7"></polygon>
                <polygon id="Triangle" fill="#054CBF" transform="translate(50.500000, 7.500000) rotate(90.000000) translate(-50.500000, -7.500000) " points="50.5 7 51 8 50 8"></polygon>
                <polygon id="Triangle" fill="#054CBF" transform="translate(50.500000, 8.500000) rotate(90.000000) translate(-50.500000, -8.500000) " points="50.5 8 51 9 50 9"></polygon>
                <polygon id="Triangle" fill="#054CBF" transform="translate(50.500000, 0.500000) rotate(90.000000) translate(-50.500000, -0.500000) " points="50.5 0 51 1 50 1"></polygon>
                <polygon id="Triangle" fill="#054CBF" transform="translate(50.500000, 9.500000) rotate(90.000000) translate(-50.500000, -9.500000) " points="50.5 9 51 10 50 10"></polygon>
                <polygon id="Triangle" fill="#054CBF" transform="translate(50.500000, 10.500000) rotate(90.000000) translate(-50.500000, -10.500000) " points="50.5 10 51 11 50 11"></polygon>
                <polygon id="Triangle" fill="#054CBF" transform="translate(50.500000, 11.500000) rotate(90.000000) translate(-50.500000, -11.500000) " points="50.5 11 51 12 50 12"></polygon>
                <ellipse id="Oval" fill="#9E1B1B" transform="translate(13.000000, 6.000000) rotate(354.000000) translate(-13.000000, -6.000000) " cx="13" cy="6" rx="8" ry="4"></ellipse>
            </g>
            <g id="Crispy-Roll" transform="translate(28.500000, 50.000000) rotate(95.000000) translate(-28.500000, -50.000000) translate(3.000000, 44.000000)">
                <rect id="Rectangle" fill="#054CBF" x="1" y="0" width="49" height="12"></rect>
                <path d="M5.43613297,1 L45,1 L45,11 L2,11 C2.51764905,10 2.77647357,8.33333333 2.77647357,6 C2.77647357,3.66666667 3.6630267,2 5.43613297,1 Z" id="Rectangle" fill="#68C1F2"></path>
                <path d="M23.4976846,1 L45.7562952,1 C47.448506,2 48.2946114,3.33333333 48.2946114,5 C48.2946114,7.32994132 48.529773,9.32994132 49.0000962,11 L22,11 C24.3333333,10 25.5,8.5 25.5,6.5 C25.5,4.5 24.8325615,2.66666667 23.4976846,1 Z" id="Rectangle" fill="#FFEDA9"></path>
                <polygon id="Triangle" fill="#054CBF" transform="translate(0.500000, 4.500000) rotate(270.000000) translate(-0.500000, -4.500000) " points="0.5 4 1 5 0 5"></polygon>
                <polygon id="Triangle" fill="#054CBF" transform="translate(0.500000, 1.500000) rotate(270.000000) translate(-0.500000, -1.500000) " points="0.5 1 1 2 0 2"></polygon>
                <polygon id="Triangle" fill="#054CBF" transform="translate(0.500000, 2.500000) rotate(270.000000) translate(-0.500000, -2.500000) " points="0.5 2 1 3 0 3"></polygon>
                <polygon id="Triangle" fill="#054CBF" transform="translate(0.500000, 3.500000) rotate(270.000000) translate(-0.500000, -3.500000) " points="0.5 3 1 4 0 4"></polygon>
                <polygon id="Triangle" fill="#054CBF" transform="translate(0.500000, 5.500000) rotate(270.000000) translate(-0.500000, -5.500000) " points="0.5 5 1 6 0 6"></polygon>
                <polygon id="Triangle" fill="#054CBF" transform="translate(0.500000, 6.500000) rotate(270.000000) translate(-0.500000, -6.500000) " points="0.5 6 1 7 0 7"></polygon>
                <polygon id="Triangle" fill="#054CBF" transform="translate(0.500000, 7.500000) rotate(270.000000) translate(-0.500000, -7.500000) " points="0.5 7 1 8 0 8"></polygon>
                <polygon id="Triangle" fill="#054CBF" transform="translate(0.500000, 8.500000) rotate(270.000000) translate(-0.500000, -8.500000) " points="0.5 8 1 9 0 9"></polygon>
                <polygon id="Triangle" fill="#054CBF" transform="translate(0.500000, 0.500000) rotate(270.000000) translate(-0.500000, -0.500000) " points="0.5 0 1 1 0 1"></polygon>
                <polygon id="Triangle" fill="#054CBF" transform="translate(0.500000, 9.500000) rotate(270.000000) translate(-0.500000, -9.500000) " points="0.5 9 1 10 0 10"></polygon>
                <polygon id="Triangle" fill="#054CBF" transform="translate(0.500000, 10.500000) rotate(270.000000) translate(-0.500000, -10.500000) " points="0.5 10 1 11 0 11"></polygon>
                <polygon id="Triangle" fill="#054CBF" transform="translate(0.500000, 11.500000) rotate(270.000000) translate(-0.500000, -11.500000) " points="0.5 11 1 12 0 12"></polygon>
                <polygon id="Triangle" fill="#054CBF" transform="translate(50.500000, 4.500000) rotate(90.000000) translate(-50.500000, -4.500000) " points="50.5 4 51 5 50 5"></polygon>
                <polygon id="Triangle" fill="#054CBF" transform="translate(50.500000, 1.500000) rotate(90.000000) translate(-50.500000, -1.500000) " points="50.5 1 51 2 50 2"></polygon>
                <polygon id="Triangle" fill="#054CBF" transform="translate(50.500000, 2.500000) rotate(90.000000) translate(-50.500000, -2.500000) " points="50.5 2 51 3 50 3"></polygon>
                <polygon id="Triangle" fill="#054CBF" transform="translate(50.500000, 3.500000) rotate(90.000000) translate(-50.500000, -3.500000) " points="50.5 3 51 4 50 4"></polygon>
                <polygon id="Triangle" fill="#054CBF" transform="translate(50.500000, 5.500000) rotate(90.000000) translate(-50.500000, -5.500000) " points="50.5 5 51 6 50 6"></polygon>
                <polygon id="Triangle" fill="#054CBF" transform="translate(50.500000, 6.500000) rotate(90.000000) translate(-50.500000, -6.500000) " points="50.5 6 51 7 50 7"></polygon>
                <polygon id="Triangle" fill="#054CBF" transform="translate(50.500000, 7.500000) rotate(90.000000) translate(-50.500000, -7.500000) " points="50.5 7 51 8 50 8"></polygon>
                <polygon id="Triangle" fill="#054CBF" transform="translate(50.500000, 8.500000) rotate(90.000000) translate(-50.500000, -8.500000) " points="50.5 8 51 9 50 9"></polygon>
                <polygon id="Triangle" fill="#054CBF" transform="translate(50.500000, 0.500000) rotate(90.000000) translate(-50.500000, -0.500000) " points="50.5 0 51 1 50 1"></polygon>
                <polygon id="Triangle" fill="#054CBF" transform="translate(50.500000, 9.500000) rotate(90.000000) translate(-50.500000, -9.500000) " points="50.5 9 51 10 50 10"></polygon>
                <polygon id="Triangle" fill="#054CBF" transform="translate(50.500000, 10.500000) rotate(90.000000) translate(-50.500000, -10.500000) " points="50.5 10 51 11 50 11"></polygon>
                <polygon id="Triangle" fill="#054CBF" transform="translate(50.500000, 11.500000) rotate(90.000000) translate(-50.500000, -11.500000) " points="50.5 11 51 12 50 12"></polygon>
                <ellipse id="Oval" fill="#9E1B1B" transform="translate(13.000000, 6.000000) rotate(354.000000) translate(-13.000000, -6.000000) " cx="13" cy="6" rx="8" ry="4"></ellipse>
            </g>
            <g id="Double-Decker" transform="translate(23.500000, 53.500000) rotate(75.000000) translate(-23.500000, -53.500000) translate(-2.000000, 47.000000)">
                <rect id="Rectangle" fill="#ED5F09" x="1" y="0" width="49" height="13"></rect>
                <path d="M1,0 L50,0 L50,6.03571429 C38.0302896,5.3535427 29.1969563,5.0083046 23.5,5 C17.8030437,4.9916954 10.3030437,5.31312397 1,5.96428571 L1,0 Z" id="Rectangle" fill="#56288D"></path>
                <path d="M50,12.0357143 L51,12.5 L50,12.9642857 L50,12.0357143 Z M1,12.0357143 L1,12.9642857 L1.91737925e-17,12.5 L1,12.0357143 Z M1,11.0357143 L1,11.9642857 L1.91737925e-17,11.5 L1,11.0357143 Z M50,11.0357143 L51,11.5 L50,11.9642857 L50,11.0357143 Z M1,10.0357143 L1,10.9642857 L1.91737925e-17,10.5 L1,10.0357143 Z M50,10.0357143 L51,10.5 L50,10.9642857 L50,10.0357143 Z M1,9.03571429 L1,9.96428571 L1.91737925e-17,9.5 L1,9.03571429 Z M50,9.03571429 L51,9.5 L50,9.96428571 L50,9.03571429 Z M1,8.03571429 L1,8.96428571 L1.91737925e-17,8.5 L1,8.03571429 Z M50,8.03571429 L51,8.5 L50,8.96428571 L50,8.03571429 Z M1,7.03571429 L1,7.96428571 L1.91737925e-17,7.5 L1,7.03571429 Z M50,7.03571429 L51,7.5 L50,7.96428571 L50,7.03571429 Z M1,6.03571429 L1,6.96428571 L1.91737925e-17,6.5 L1,6.03571429 Z M50,6.03571429 L51,6.5 L50,6.96428571 L50,6.03571429 Z" id="Triangle-2" fill="#ED5F09"></path>
                <path d="M1,5.03571429 L1,5.96428571 L1.91737925e-17,5.5 L1,5.03571429 Z M1,4.03571429 L1,4.96428571 L1.91737925e-17,4.5 L1,4.03571429 Z M1,3.03571429 L1,3.96428571 L1.91737925e-17,3.5 L1,3.03571429 Z M1,2.03571429 L1,2.96428571 L1.91737925e-17,2.5 L1,2.03571429 Z M1,1.03571429 L1,1.96428571 L1.91737925e-17,1.5 L1,1.03571429 Z M1,0.0357142857 L1,0.964285714 L1.91737925e-17,0.5 L1,0.0357142857 Z" id="Triangle-4" fill="#56288D"></path>
                <path d="M50,5.03571429 L51,5.5 L50,5.96428571 L50,5.03571429 Z M50,4.03571429 L51,4.5 L50,4.96428571 L50,4.03571429 Z M50,3.03571429 L51,3.5 L50,3.96428571 L50,3.03571429 Z M50,2.03571429 L51,2.5 L50,2.96428571 L50,2.03571429 Z M50,1.03571429 L51,1.5 L50,1.96428571 L50,1.03571429 Z M50,0.0357142857 L51,0.5 L50,0.964285714 L50,0.0357142857 Z" id="Triangle-5" fill="#56288D"></path>
                <rect id="Rectangle" stroke="#353434" stroke-width="0.4" fill="#FFF4F3" transform="translate(25.500000, 6.000000) rotate(-2.000000) translate(-25.500000, -6.000000) " x="10.2" y="3.2" width="30.6" height="5.6" rx="2"></rect>
            </g>
            <g id="Crispy-Roll" transform="translate(32.500000, 55.000000) rotate(95.000000) translate(-32.500000, -55.000000) translate(7.000000, 49.000000)">
                <rect id="Rectangle" fill="#054CBF" x="1" y="0" width="49" height="12"></rect>
                <path d="M5.43613297,1 L45,1 L45,11 L2,11 C2.51764905,10 2.77647357,8.33333333 2.77647357,6 C2.77647357,3.66666667 3.6630267,2 5.43613297,1 Z" id="Rectangle" fill="#68C1F2"></path>
                <path d="M23.4976846,1 L45.7562952,1 C47.448506,2 48.2946114,3.33333333 48.2946114,5 C48.2946114,7.32994132 48.529773,9.32994132 49.0000962,11 L22,11 C24.3333333,10 25.5,8.5 25.5,6.5 C25.5,4.5 24.8325615,2.66666667 23.4976846,1 Z" id="Rectangle" fill="#FFEDA9"></path>
                <polygon id="Triangle" fill="#054CBF" transform="translate(0.500000, 4.500000) rotate(270.000000) translate(-0.500000, -4.500000) " points="0.5 4 1 5 0 5"></polygon>
                <polygon id="Triangle" fill="#054CBF" transform="translate(0.500000, 1.500000) rotate(270.000000) translate(-0.500000, -1.500000) " points="0.5 1 1 2 0 2"></polygon>
                <polygon id="Triangle" fill="#054CBF" transform="translate(0.500000, 2.500000) rotate(270.000000) translate(-0.500000, -2.500000) " points="0.5 2 1 3 0 3"></polygon>
                <polygon id="Triangle" fill="#054CBF" transform="translate(0.500000, 3.500000) rotate(270.000000) translate(-0.500000, -3.500000) " points="0.5 3 1 4 0 4"></polygon>
                <polygon id="Triangle" fill="#054CBF" transform="translate(0.500000, 5.500000) rotate(270.000000) translate(-0.500000, -5.500000) " points="0.5 5 1 6 0 6"></polygon>
                <polygon id="Triangle" fill="#054CBF" transform="translate(0.500000, 6.500000) rotate(270.000000) translate(-0.500000, -6.500000) " points="0.5 6 1 7 0 7"></polygon>
                <polygon id="Triangle" fill="#054CBF" transform="translate(0.500000, 7.500000) rotate(270.000000) translate(-0.500000, -7.500000) " points="0.5 7 1 8 0 8"></polygon>
                <polygon id="Triangle" fill="#054CBF" transform="translate(0.500000, 8.500000) rotate(270.000000) translate(-0.500000, -8.500000) " points="0.5 8 1 9 0 9"></polygon>
                <polygon id="Triangle" fill="#054CBF" transform="translate(0.500000, 0.500000) rotate(270.000000) translate(-0.500000, -0.500000) " points="0.5 0 1 1 0 1"></polygon>
                <polygon id="Triangle" fill="#054CBF" transform="translate(0.500000, 9.500000) rotate(270.000000) translate(-0.500000, -9.500000) " points="0.5 9 1 10 0 10"></polygon>
                <polygon id="Triangle" fill="#054CBF" transform="translate(0.500000, 10.500000) rotate(270.000000) translate(-0.500000, -10.500000) " points="0.5 10 1 11 0 11"></polygon>
                <polygon id="Triangle" fill="#054CBF" transform="translate(0.500000, 11.500000) rotate(270.000000) translate(-0.500000, -11.500000) " points="0.5 11 1 12 0 12"></polygon>
                <polygon id="Triangle" fill="#054CBF" transform="translate(50.500000, 4.500000) rotate(90.000000) translate(-50.500000, -4.500000) " points="50.5 4 51 5 50 5"></polygon>
                <polygon id="Triangle" fill="#054CBF" transform="translate(50.500000, 1.500000) rotate(90.000000) translate(-50.500000, -1.500000) " points="50.5 1 51 2 50 2"></polygon>
                <polygon id="Triangle" fill="#054CBF" transform="translate(50.500000, 2.500000) rotate(90.000000) translate(-50.500000, -2.500000) " points="50.5 2 51 3 50 3"></polygon>
                <polygon id="Triangle" fill="#054CBF" transform="translate(50.500000, 3.500000) rotate(90.000000) translate(-50.500000, -3.500000) " points="50.5 3 51 4 50 4"></polygon>
                <polygon id="Triangle" fill="#054CBF" transform="translate(50.500000, 5.500000) rotate(90.000000) translate(-50.500000, -5.500000) " points="50.5 5 51 6 50 6"></polygon>
                <polygon id="Triangle" fill="#054CBF" transform="translate(50.500000, 6.500000) rotate(90.000000) translate(-50.500000, -6.500000) " points="50.5 6 51 7 50 7"></polygon>
                <polygon id="Triangle" fill="#054CBF" transform="translate(50.500000, 7.500000) rotate(90.000000) translate(-50.500000, -7.500000) " points="50.5 7 51 8 50 8"></polygon>
                <polygon id="Triangle" fill="#054CBF" transform="translate(50.500000, 8.500000) rotate(90.000000) translate(-50.500000, -8.500000) " points="50.5 8 51 9 50 9"></polygon>
                <polygon id="Triangle" fill="#054CBF" transform="translate(50.500000, 0.500000) rotate(90.000000) translate(-50.500000, -0.500000) " points="50.5 0 51 1 50 1"></polygon>
                <polygon id="Triangle" fill="#054CBF" transform="translate(50.500000, 9.500000) rotate(90.000000) translate(-50.500000, -9.500000) " points="50.5 9 51 10 50 10"></polygon>
                <polygon id="Triangle" fill="#054CBF" transform="translate(50.500000, 10.500000) rotate(90.000000) translate(-50.500000, -10.500000) " points="50.5 10 51 11 50 11"></polygon>
                <polygon id="Triangle" fill="#054CBF" transform="translate(50.500000, 11.500000) rotate(90.000000) translate(-50.500000, -11.500000) " points="50.5 11 51 12 50 12"></polygon>
                <ellipse id="Oval" fill="#9E1B1B" transform="translate(13.000000, 6.000000) rotate(354.000000) translate(-13.000000, -6.000000) " cx="13" cy="6" rx="8" ry="4"></ellipse>
            </g>
            <g id="Crunchie" transform="translate(45.500000, 61.000000) rotate(107.000000) translate(-45.500000, -61.000000) translate(20.000000, 55.000000)">
                <rect id="Rectangle" fill="#7432BD" x="1" y="0" width="49" height="12"></rect>
                <path d="M9.47251924,0 L43.6157774,0 C43.1815004,2 43.6249089,3.83333333 44.946003,5.5 C47.1153981,8.23686691 47.1153981,10.4035336 44.946003,12 L3.57304934,12 C5.1125187,8.8 7.07900867,7 9.47251924,6.6 C11.8660298,6.2 11.8660298,4 9.47251924,0 Z" id="Rectangle" fill="#EFBD21"></path>
                <path d="M50,11 L51,11.5 L50,12 L50,11 Z M1,11 L1,12 L1.91737925e-17,11.5 L1,11 Z M1,10 L1,11 L1.91737925e-17,10.5 L1,10 Z M50,10 L51,10.5 L50,11 L50,10 Z M1,9 L1,10 L1.91737925e-17,9.5 L1,9 Z M50,9 L51,9.5 L50,10 L50,9 Z M1,8 L1,9 L1.91737925e-17,8.5 L1,8 Z M50,8 L51,8.5 L50,9 L50,8 Z M1,7 L1,8 L1.91737925e-17,7.5 L1,7 Z M50,7 L51,7.5 L50,8 L50,7 Z M1,6 L1,7 L1.91737925e-17,6.5 L1,6 Z M50,6 L51,6.5 L50,7 L50,6 Z M1,5 L1,6 L1.91737925e-17,5.5 L1,5 Z M50,5 L51,5.5 L50,6 L50,5 Z M1,4 L1,5 L1.91737925e-17,4.5 L1,4 Z M50,4 L51,4.5 L50,5 L50,4 Z M1,3 L1,4 L1.91737925e-17,3.5 L1,3 Z M50,3 L51,3.5 L50,4 L50,3 Z M1,2 L1,3 L1.91737925e-17,2.5 L1,2 Z M50,2 L51,2.5 L50,3 L50,2 Z M50,1 L51,1.5 L50,2 L50,1 Z M1,1 L1,2 L1.91737925e-17,1.5 L1,1 Z M50,3.061617e-17 L51,0.5 L50,1 L50,3.061617e-17 Z M1,-2.22044605e-16 L1,1 L1.91737925e-17,0.5 L1,-2.22044605e-16 Z" id="Triangle-3" fill="#7432BD"></path>
                <rect id="Rectangle" stroke="#FFFFFF" stroke-width="0.4" fill="#CA302A" x="12.24099" y="3.1283515" width="30.6" height="5.6" rx="2"></rect>
            </g>
            <g id="Crispy-Roll" transform="translate(36.500000, 58.000000) rotate(95.000000) translate(-36.500000, -58.000000) translate(11.000000, 52.000000)">
                <rect id="Rectangle" fill="#054CBF" x="1" y="0" width="49" height="12"></rect>
                <path d="M5.43613297,1 L45,1 L45,11 L2,11 C2.51764905,10 2.77647357,8.33333333 2.77647357,6 C2.77647357,3.66666667 3.6630267,2 5.43613297,1 Z" id="Rectangle" fill="#68C1F2"></path>
                <path d="M23.4976846,1 L45.7562952,1 C47.448506,2 48.2946114,3.33333333 48.2946114,5 C48.2946114,7.32994132 48.529773,9.32994132 49.0000962,11 L22,11 C24.3333333,10 25.5,8.5 25.5,6.5 C25.5,4.5 24.8325615,2.66666667 23.4976846,1 Z" id="Rectangle" fill="#FFEDA9"></path>
                <polygon id="Triangle" fill="#054CBF" transform="translate(0.500000, 4.500000) rotate(270.000000) translate(-0.500000, -4.500000) " points="0.5 4 1 5 0 5"></polygon>
                <polygon id="Triangle" fill="#054CBF" transform="translate(0.500000, 1.500000) rotate(270.000000) translate(-0.500000, -1.500000) " points="0.5 1 1 2 0 2"></polygon>
                <polygon id="Triangle" fill="#054CBF" transform="translate(0.500000, 2.500000) rotate(270.000000) translate(-0.500000, -2.500000) " points="0.5 2 1 3 0 3"></polygon>
                <polygon id="Triangle" fill="#054CBF" transform="translate(0.500000, 3.500000) rotate(270.000000) translate(-0.500000, -3.500000) " points="0.5 3 1 4 0 4"></polygon>
                <polygon id="Triangle" fill="#054CBF" transform="translate(0.500000, 5.500000) rotate(270.000000) translate(-0.500000, -5.500000) " points="0.5 5 1 6 0 6"></polygon>
                <polygon id="Triangle" fill="#054CBF" transform="translate(0.500000, 6.500000) rotate(270.000000) translate(-0.500000, -6.500000) " points="0.5 6 1 7 0 7"></polygon>
                <polygon id="Triangle" fill="#054CBF" transform="translate(0.500000, 7.500000) rotate(270.000000) translate(-0.500000, -7.500000) " points="0.5 7 1 8 0 8"></polygon>
                <polygon id="Triangle" fill="#054CBF" transform="translate(0.500000, 8.500000) rotate(270.000000) translate(-0.500000, -8.500000) " points="0.5 8 1 9 0 9"></polygon>
                <polygon id="Triangle" fill="#054CBF" transform="translate(0.500000, 0.500000) rotate(270.000000) translate(-0.500000, -0.500000) " points="0.5 0 1 1 0 1"></polygon>
                <polygon id="Triangle" fill="#054CBF" transform="translate(0.500000, 9.500000) rotate(270.000000) translate(-0.500000, -9.500000) " points="0.5 9 1 10 0 10"></polygon>
                <polygon id="Triangle" fill="#054CBF" transform="translate(0.500000, 10.500000) rotate(270.000000) translate(-0.500000, -10.500000) " points="0.5 10 1 11 0 11"></polygon>
                <polygon id="Triangle" fill="#054CBF" transform="translate(0.500000, 11.500000) rotate(270.000000) translate(-0.500000, -11.500000) " points="0.5 11 1 12 0 12"></polygon>
                <polygon id="Triangle" fill="#054CBF" transform="translate(50.500000, 4.500000) rotate(90.000000) translate(-50.500000, -4.500000) " points="50.5 4 51 5 50 5"></polygon>
                <polygon id="Triangle" fill="#054CBF" transform="translate(50.500000, 1.500000) rotate(90.000000) translate(-50.500000, -1.500000) " points="50.5 1 51 2 50 2"></polygon>
                <polygon id="Triangle" fill="#054CBF" transform="translate(50.500000, 2.500000) rotate(90.000000) translate(-50.500000, -2.500000) " points="50.5 2 51 3 50 3"></polygon>
                <polygon id="Triangle" fill="#054CBF" transform="translate(50.500000, 3.500000) rotate(90.000000) translate(-50.500000, -3.500000) " points="50.5 3 51 4 50 4"></polygon>
                <polygon id="Triangle" fill="#054CBF" transform="translate(50.500000, 5.500000) rotate(90.000000) translate(-50.500000, -5.500000) " points="50.5 5 51 6 50 6"></polygon>
                <polygon id="Triangle" fill="#054CBF" transform="translate(50.500000, 6.500000) rotate(90.000000) translate(-50.500000, -6.500000) " points="50.5 6 51 7 50 7"></polygon>
                <polygon id="Triangle" fill="#054CBF" transform="translate(50.500000, 7.500000) rotate(90.000000) translate(-50.500000, -7.500000) " points="50.5 7 51 8 50 8"></polygon>
                <polygon id="Triangle" fill="#054CBF" transform="translate(50.500000, 8.500000) rotate(90.000000) translate(-50.500000, -8.500000) " points="50.5 8 51 9 50 9"></polygon>
                <polygon id="Triangle" fill="#054CBF" transform="translate(50.500000, 0.500000) rotate(90.000000) translate(-50.500000, -0.500000) " points="50.5 0 51 1 50 1"></polygon>
                <polygon id="Triangle" fill="#054CBF" transform="translate(50.500000, 9.500000) rotate(90.000000) translate(-50.500000, -9.500000) " points="50.5 9 51 10 50 10"></polygon>
                <polygon id="Triangle" fill="#054CBF" transform="translate(50.500000, 10.500000) rotate(90.000000) translate(-50.500000, -10.500000) " points="50.5 10 51 11 50 11"></polygon>
                <polygon id="Triangle" fill="#054CBF" transform="translate(50.500000, 11.500000) rotate(90.000000) translate(-50.500000, -11.500000) " points="50.5 11 51 12 50 12"></polygon>
                <ellipse id="Oval" fill="#9E1B1B" transform="translate(13.000000, 6.000000) rotate(354.000000) translate(-13.000000, -6.000000) " cx="13" cy="6" rx="8" ry="4"></ellipse>
            </g>
            <g id="Maoam" transform="translate(63.000000, 59.000000) rotate(60.000000) translate(-63.000000, -59.000000) translate(41.000000, 57.000000)">
                <path d="M44,-1.33226763e-15 L44,4 L41.5,2.333 L41.5,2.9 C41.5,3.23137085 41.2313708,3.5 40.9,3.5 L3.1,3.5 C2.76862915,3.5 2.5,3.23137085 2.5,2.9 L2.5,2.333 L4.4408921e-16,4 L0,-3.522407e-16 L2.5,1.667 L2.5,1.1 C2.5,0.76862915 2.76862915,0.5 3.1,0.5 L40.9,0.5 C41.2313708,0.5 41.5,0.76862915 41.5,1.1 L41.5,1.667 L44,-1.33226763e-15 Z" id="Combined-Shape" fill="#F44D94"></path>
                <path d="M18.5238757,1.02563008 C20.1290775,1.10236398 21.2977877,1.14073092 22.0300063,1.14073092 C22.7604467,1.14073092 23.9089793,1.10255011 25.4756043,1.02618848 C25.751446,1.01268989 25.9859616,1.22540621 25.999407,1.5012505 C25.9998023,1.50935951 26,1.51747694 26,1.52559558 L26,2.47510851 C26.0000391,2.75127248 25.776164,2.97514762 25.5,2.97514762 C25.4920951,2.97514762 25.4841914,2.97496017 25.4762954,2.97458544 C23.8564153,2.89770786 22.687648,2.85926908 21.9699937,2.85926908 C21.2540548,2.85926908 20.1054704,2.89752432 18.5242406,2.9740348 C18.2483829,2.98745826 18.0139324,2.77464916 18.0005844,2.49878782 C18.0001949,2.49073746 18,2.48267887 18,2.47461909 L18,1.5250868 C17.9999729,1.24892948 18.2238427,1.02505974 18.5,1.02505974 C18.507962,1.02505974 18.5159228,1.02524991 18.5238757,1.02563008 Z" id="Rectangle" fill="#1E45B0" transform="translate(22.000000, 2.000000) rotate(-2.000000) translate(-22.000000, -2.000000) "></path>
            </g>
            <g id="Bowl" transform="translate(6.000000, 9.000000)" fill="#000000" fill-rule="nonzero">
                <path d="M65.23,61.534 C63.459,63.864 61.017,65.632 58.232,66.58 C57.448,66.847 57.028,67.699 57.295,68.483 C57.562,69.267 58.414,69.686 59.198,69.42 C62.552,68.277 65.485,66.155 67.618,63.35 C68.119,62.691 67.991,61.749 67.331,61.248 C66.673,60.747 65.732,60.875 65.23,61.534 L65.23,61.534 Z" id="Glare"></path>
                <g id="Group">
                    <path d="M74.916,7.939 L76.544,2.582 C76.729,1.975 76.616,1.319 76.237,0.81 C75.859,0.299 75.266,0 74.631,0 L13.369,0 C12.734,0 12.14,0.299 11.762,0.809 C11.384,1.32 11.27,1.974 11.455,2.582 L13.083,7.939 C5.319,15.79 0.499,26.583 0.499999844,38.5 C0.501,62.524 19.976,81.999 43.9999998,82 C68.024,81.999 87.499,62.524 87.4999998,38.5 C87.501,26.583 82.68,15.79 74.916,7.939 Z M71.93,66.431 C64.775,73.582 54.913,77.999 44,78 C33.086,77.999 23.224,73.582 16.069,66.431 C8.918,59.275 4.501,49.413 4.5,38.5 C4.501,30.733 6.53762684,19.1000127 16.727,9.948 C17.2885595,9.44361177 17.477,8.64 17.258,7.92 L16.067,4 L71.932,4 L70.74,7.921 C70.521,8.642 70.727,9.429 71.272,9.949 C78.804,17.149 83.499,27.263 83.5,38.5 C83.499,49.413 79.082,59.275 71.93,66.431 Z" id="Shape"></path>
                </g>
            </g>
        </g>
    </g>
</svg>