<svg height="90" viewBox="0 0 88 90" width="88" xmlns="http://www.w3.org/2000/svg"><g fill="none" fill-rule="evenodd" transform="translate(-6 -1)"><g transform="matrix(.8660254 -.5 .5 .8660254 46.947441 84.267949)"><path d="m44 0v4l-2.5-1.667v.567c0 .33137085-.2686292.6-.6.6h-37.8c-.33137085 0-.6-.26862915-.6-.6v-.567l-2.5 1.667v-4l2.5 1.667v-.567c0-.33137085.26862915-.6.6-.6h37.8c.3313708 0 .6.26862915.6.6v.567z" fill="#f53223"/><path d="m18.5238757 1.02563008c1.6052018.0767339 2.773912.11510084 3.5061306.11510084.7304404 0 1.878973-.03818081 3.445598-.11454244.2758417-.01349859.5103573.19921773.5238027.47506202.0003953.00810901.000593.01622644.000593.02434508v.94951293c.0000391.27616397-.223836.50003911-.5.50003911-.0079049 0-.0158086-.00018745-.0237046-.00056218-1.6198801-.07687758-2.7886474-.11531636-3.5063017-.11531636-.7159389 0-1.8645233.03825524-3.4457531.11476572-.2758577.01342346-.5103082-.19938564-.5236562-.47524698-.0003895-.00805036-.0005844-.01610895-.0005844-.02416873v-.94953229c-.0000271-.27615732.2238427-.50002706.5-.50002706.007962 0 .0159228.00019017.0238757.00057034z" fill="#1e45b0" transform="matrix(.99939083 -.0348995 .0348995 .99939083 -.056397 .769007)"/></g><g transform="matrix(.17364818 .98480775 -.98480775 .17364818 39.08588 13.186276)"><path d="m1 0h71v10h-71z" fill="#7432bd"/><path d="m13.3690154 0h48.4357849c-.6160674 1.66666667.012954 3.19444444 1.8870642 4.58333333 3.077514 2.28072242 3.077514 4.08627798 0 5.41666667h-58.6918645c2.18389839-2.66666667 4.9735702-4.16666667 8.3690154-4.5 3.3954453-.33333333 3.3954453-2.16666667 0-5.5z" fill="#fff"/><path d="m71.5686275 9.16666667 1.4313725.41666666-1.4313725.41666667zm-70.13725495 0v.83333333l-1.43137255-.41666667zm0-.83333334v.83333334l-1.43137255-.41666667zm70.13725495 0 1.4313725.41666667-1.4313725.41666667zm-70.13725495-.83333333v.83333333l-1.43137255-.41666666zm70.13725495 0 1.4313725.41666667-1.4313725.41666666zm-70.13725495-.83333333v.83333333l-1.43137255-.41666667zm70.13725495 0 1.4313725.41666666-1.4313725.41666667zm-70.13725495-.83333334v.83333334l-1.43137255-.41666667zm70.13725495 0 1.4313725.41666667-1.4313725.41666667zm-70.13725495-.83333333v.83333333l-1.43137255-.41666666zm70.13725495 0 1.4313725.41666667-1.4313725.41666666zm-70.13725495-.83333333v.83333333l-1.43137255-.41666667zm70.13725495 0 1.4313725.41666666-1.4313725.41666667zm-70.13725495-.83333334v.83333334l-1.43137255-.41666667zm70.13725495 0 1.4313725.41666667-1.4313725.41666667zm-70.13725495-.83333333v.83333333l-1.43137255-.41666666zm70.13725495 0 1.4313725.41666667-1.4313725.41666666zm-70.13725495-.83333333v.83333333l-1.43137255-.41666667zm70.13725495 0 1.4313725.41666666-1.4313725.41666667zm-70.13725495-.83333334v.83333334l-1.43137255-.41666667zm70.13725495 0 1.4313725.41666667-1.4313725.41666667zm-70.13725495-.83333333v.83333333l-1.43137255-.41666666zm70.13725495 0 1.4313725.41666667-1.4313725.41666666z" fill="#7432bd"/><rect fill="#05c1e9" height="4.6" rx="2" stroke="#fff" stroke-width=".4" transform="matrix(.99862953 -.05233596 .05233596 .99862953 -.209726 2.047994)" width="43.6" x="17.2" y="2.728553"/></g><g transform="matrix(.93969262 -.34202014 .34202014 .93969262 45.642722 52.645058)"><path d="m44 0v4l-2.5-1.667v.567c0 .33137085-.2686292.6-.6.6h-37.8c-.33137085 0-.6-.26862915-.6-.6v-.567l-2.5 1.667v-4l2.5 1.667v-.567c0-.33137085.26862915-.6.6-.6h37.8c.3313708 0 .6.26862915.6.6v.567z" fill="#f49b07"/><path d="m18.5238757 1.02563008c1.6052018.0767339 2.773912.11510084 3.5061306.11510084.7304404 0 1.878973-.03818081 3.445598-.11454244.2758417-.01349859.5103573.19921773.5238027.47506202.0003953.00810901.000593.01622644.000593.02434508v.94951293c.0000391.27616397-.223836.50003911-.5.50003911-.0079049 0-.0158086-.00018745-.0237046-.00056218-1.6198801-.07687758-2.7886474-.11531636-3.5063017-.11531636-.7159389 0-1.8645233.03825524-3.4457531.11476572-.2758577.01342346-.5103082-.19938564-.5236562-.47524698-.0003895-.00805036-.0005844-.01610895-.0005844-.02416873v-.94953229c-.0000271-.27615732.2238427-.50002706.5-.50002706.007962 0 .0159228.00019017.0238757.00057034z" fill="#1e45b0" transform="matrix(.99939083 -.0348995 .0348995 .99939083 -.056397 .769007)"/></g><g transform="matrix(.99254615 .12186934 -.12186934 .99254615 44.407723 54.333782)"><path d="m44 0v4l-2.5-1.667v.567c0 .33137085-.2686292.6-.6.6h-37.8c-.33137085 0-.6-.26862915-.6-.6v-.567l-2.5 1.667v-4l2.5 1.667v-.567c0-.33137085.26862915-.6.6-.6h37.8c.3313708 0 .6.26862915.6.6v.567z" fill="#f53223"/><path d="m18.5238757 1.02563008c1.6052018.0767339 2.773912.11510084 3.5061306.11510084.7304404 0 1.878973-.03818081 3.445598-.11454244.2758417-.01349859.5103573.19921773.5238027.47506202.0003953.00810901.000593.01622644.000593.02434508v.94951293c.0000391.27616397-.223836.50003911-.5.50003911-.0079049 0-.0158086-.00018745-.0237046-.00056218-1.6198801-.07687758-2.7886474-.11531636-3.5063017-.11531636-.7159389 0-1.8645233.03825524-3.4457531.11476572-.2758577.01342346-.5103082-.19938564-.5236562-.47524698-.0003895-.00805036-.0005844-.01610895-.0005844-.02416873v-.94953229c-.0000271-.27615732.2238427-.50002706.5-.50002706.007962 0 .0159228.00019017.0238757.00057034z" fill="#1e45b0" transform="matrix(.99939083 -.0348995 .0348995 .99939083 -.056397 .769007)"/></g><g transform="matrix(.17364818 .98480775 -.98480775 .17364818 32.473222 2.258689)"><path d="m1 0h49v13h-49z" fill="#ed5f09"/><path d="m1 0h49v6.03571429c-11.9697104-.68217159-20.8030437-1.02740969-26.5-1.03571429s-13.1969563.31312397-22.5.96428571z" fill="#56288d"/><path d="m50 12.0357143 1 .4642857-1 .4642857zm-49 0v.9285714l-1-.4642857zm0-1v.9285714l-1-.4642857zm49 0 1 .4642857-1 .4642857zm-49-1v.9285714l-1-.4642857zm49 0 1 .4642857-1 .4642857zm-49-1.00000001v.92857142l-1-.46428571zm49 0 1 .46428571-1 .46428571zm-49-1v.92857142l-1-.46428571zm49 0 1 .46428571-1 .46428571zm-49-1v.92857142l-1-.46428571zm49 0 1 .46428571-1 .46428571zm-49-1v.92857142l-1-.46428571zm49 0 1 .46428571-1 .46428571z" fill="#ed5f09"/><path d="m1 5.03571429v.92857142l-1-.46428571zm0-1v.92857142l-1-.46428571zm0-1v.92857142l-1-.46428571zm0-1v.92857142l-1-.46428571zm0-1v.92857142l-1-.46428571zm0-1v.92857142l-1-.46428571z" fill="#56288d"/><path d="m50 5.03571429 1 .46428571-1 .46428571zm0-1 1 .46428571-1 .46428571zm0-1 1 .46428571-1 .46428571zm0-1 1 .46428571-1 .46428571zm0-1 1 .46428571-1 .46428571zm0-1 1 .46428571-1 .46428571z" fill="#56288d"/><rect fill="#fff4f3" height="5.6" rx="2" stroke="#353434" stroke-width=".4" transform="matrix(.99939083 -.0348995 .0348995 .99939083 -.193863 .893592)" width="30.6" x="10.2" y="3.2"/></g><g transform="matrix(.9961947 .08715574 -.08715574 .9961947 26.258028 77.090184)"><path d="m44 0v4l-2.5-1.667v.567c0 .33137085-.2686292.6-.6.6h-37.8c-.33137085 0-.6-.26862915-.6-.6v-.567l-2.5 1.667v-4l2.5 1.667v-.567c0-.33137085.26862915-.6.6-.6h37.8c.3313708 0 .6.26862915.6.6v.567z" fill="#f49b07"/><path d="m18.5238757 1.02563008c1.6052018.0767339 2.773912.11510084 3.5061306.11510084.7304404 0 1.878973-.03818081 3.445598-.11454244.2758417-.01349859.5103573.19921773.5238027.47506202.0003953.00810901.000593.01622644.000593.02434508v.94951293c.0000391.27616397-.223836.50003911-.5.50003911-.0079049 0-.0158086-.00018745-.0237046-.00056218-1.6198801-.07687758-2.7886474-.11531636-3.5063017-.11531636-.7159389 0-1.8645233.03825524-3.4457531.11476572-.2758577.01342346-.5103082-.19938564-.5236562-.47524698-.0003895-.00805036-.0005844-.01610895-.0005844-.02416873v-.94953229c-.0000271-.27615732.2238427-.50002706.5-.50002706.007962 0 .0159228.00019017.0238757.00057034z" fill="#1e45b0" transform="matrix(.99939083 -.0348995 .0348995 .99939083 -.056397 .769007)"/></g><g transform="matrix(.5 .8660254 -.8660254 .5 13.732051 42.947441)"><path d="m43.95.09061839-2.5 1.57638161v-.567c0-.30375661-.2462434-.55-.55-.55h-37.8c-.30375661 0-.55.24624339-.55.55l-.07773885.60859995-2.42226115-1.70859995-.07773885 3.95840005 2.57773885-1.62540005v.567c0 .30375661.24624339.55.55.55h37.8c.3037566 0 .55-.24624339.55-.55l.0777388-.60859995 2.4222612 1.70859995z" fill="#f1f1e3" stroke="#979797" stroke-width=".1"/><path d="m18.5238757 1.02563008c1.6052018.0767339 2.773912.11510084 3.5061306.11510084.7304404 0 1.878973-.03818081 3.445598-.11454244.2758417-.01349859.5103573.19921773.5238027.47506202.0003953.00810901.000593.01622644.000593.02434508v.94951293c.0000391.27616397-.223836.50003911-.5.50003911-.0079049 0-.0158086-.00018745-.0237046-.00056218-1.6198801-.07687758-2.7886474-.11531636-3.5063017-.11531636-.7159389 0-1.8645233.03825524-3.4457531.11476572-.2758577.01342346-.5103082-.19938564-.5236562-.47524698-.0003895-.00805036-.0005844-.01610895-.0005844-.02416873v-.94953229c-.0000271-.27615732.2238427-.50002706.5-.50002706.007962 0 .0159228.00019017.0238757.00057034z" fill="#1e45b0" transform="matrix(.99939083 -.0348995 .0348995 .99939083 -.056397 .769007)"/></g><g transform="matrix(.17364818 .98480775 -.98480775 .17364818 65.08588 8.186276)"><path d="m1 0h71v10h-71z" fill="#7432bd"/><path d="m13.3690154 0h48.4357849c-.6160674 1.66666667.012954 3.19444444 1.8870642 4.58333333 3.077514 2.28072242 3.077514 4.08627798 0 5.41666667h-58.6918645c2.18389839-2.66666667 4.9735702-4.16666667 8.3690154-4.5 3.3954453-.33333333 3.3954453-2.16666667 0-5.5z" fill="#fff"/><path d="m71.5686275 9.16666667 1.4313725.41666666-1.4313725.41666667zm-70.13725495 0v.83333333l-1.43137255-.41666667zm0-.83333334v.83333334l-1.43137255-.41666667zm70.13725495 0 1.4313725.41666667-1.4313725.41666667zm-70.13725495-.83333333v.83333333l-1.43137255-.41666666zm70.13725495 0 1.4313725.41666667-1.4313725.41666666zm-70.13725495-.83333333v.83333333l-1.43137255-.41666667zm70.13725495 0 1.4313725.41666666-1.4313725.41666667zm-70.13725495-.83333334v.83333334l-1.43137255-.41666667zm70.13725495 0 1.4313725.41666667-1.4313725.41666667zm-70.13725495-.83333333v.83333333l-1.43137255-.41666666zm70.13725495 0 1.4313725.41666667-1.4313725.41666666zm-70.13725495-.83333333v.83333333l-1.43137255-.41666667zm70.13725495 0 1.4313725.41666666-1.4313725.41666667zm-70.13725495-.83333334v.83333334l-1.43137255-.41666667zm70.13725495 0 1.4313725.41666667-1.4313725.41666667zm-70.13725495-.83333333v.83333333l-1.43137255-.41666666zm70.13725495 0 1.4313725.41666667-1.4313725.41666666zm-70.13725495-.83333333v.83333333l-1.43137255-.41666667zm70.13725495 0 1.4313725.41666666-1.4313725.41666667zm-70.13725495-.83333334v.83333334l-1.43137255-.41666667zm70.13725495 0 1.4313725.41666667-1.4313725.41666667zm-70.13725495-.83333333v.83333333l-1.43137255-.41666666zm70.13725495 0 1.4313725.41666667-1.4313725.41666666z" fill="#7432bd"/><rect fill="#05c1e9" height="4.6" rx="2" stroke="#fff" stroke-width=".4" transform="matrix(.99862953 -.05233596 .05233596 .99862953 -.209726 2.047994)" width="43.6" x="17.2" y="2.728553"/></g><g transform="matrix(-.05233596 -.99862953 .99862953 -.05233596 80.154132 69.074522)"><path d="m43.95.09061839-2.5 1.57638161v-.567c0-.30375661-.2462434-.55-.55-.55h-37.8c-.30375661 0-.55.24624339-.55.55l-.07773885.60859995-2.42226115-1.70859995-.07773885 3.95840005 2.57773885-1.62540005v.567c0 .30375661.24624339.55.55.55h37.8c.3037566 0 .55-.24624339.55-.55l.0777388-.60859995 2.4222612 1.70859995z" fill="#fafc29" stroke="#979797" stroke-width=".1"/><path d="m18.5238757 1.02563008c1.6052018.0767339 2.773912.11510084 3.5061306.11510084.7304404 0 1.878973-.03818081 3.445598-.11454244.2758417-.01349859.5103573.19921773.5238027.47506202.0003953.00810901.000593.01622644.000593.02434508v.94951293c.0000391.27616397-.223836.50003911-.5.50003911-.0079049 0-.0158086-.00018745-.0237046-.00056218-1.6198801-.07687758-2.7886474-.11531636-3.5063017-.11531636-.7159389 0-1.8645233.03825524-3.4457531.11476572-.2758577.01342346-.5103082-.19938564-.5236562-.47524698-.0003895-.00805036-.0005844-.01610895-.0005844-.02416873v-.94953229c-.0000271-.27615732.2238427-.50002706.5-.50002706.007962 0 .0159228.00019017.0238757.00057034z" fill="#1e45b0" transform="matrix(.99939083 -.0348995 .0348995 .99939083 -.056397 .769007)"/></g><g transform="translate(38 37)"><path d="m1 0h49v13h-49z" fill="#ed5f09"/><path d="m1 0h49v6.03571429c-11.9697104-.68217159-20.8030437-1.02740969-26.5-1.03571429s-13.1969563.31312397-22.5.96428571z" fill="#56288d"/><path d="m50 12.0357143 1 .4642857-1 .4642857zm-49 0v.9285714l-1-.4642857zm0-1v.9285714l-1-.4642857zm49 0 1 .4642857-1 .4642857zm-49-1v.9285714l-1-.4642857zm49 0 1 .4642857-1 .4642857zm-49-1.00000001v.92857142l-1-.46428571zm49 0 1 .46428571-1 .46428571zm-49-1v.92857142l-1-.46428571zm49 0 1 .46428571-1 .46428571zm-49-1v.92857142l-1-.46428571zm49 0 1 .46428571-1 .46428571zm-49-1v.92857142l-1-.46428571zm49 0 1 .46428571-1 .46428571z" fill="#ed5f09"/><path d="m1 5.03571429v.92857142l-1-.46428571zm0-1v.92857142l-1-.46428571zm0-1v.92857142l-1-.46428571zm0-1v.92857142l-1-.46428571zm0-1v.92857142l-1-.46428571zm0-1v.92857142l-1-.46428571z" fill="#56288d"/><path d="m50 5.03571429 1 .46428571-1 .46428571zm0-1 1 .46428571-1 .46428571zm0-1 1 .46428571-1 .46428571zm0-1 1 .46428571-1 .46428571zm0-1 1 .46428571-1 .46428571zm0-1 1 .46428571-1 .46428571z" fill="#56288d"/><rect fill="#fff4f3" height="5.6" rx="2" stroke="#353434" stroke-width=".4" transform="matrix(.99939083 -.0348995 .0348995 .99939083 -.193863 .893592)" width="30.6" x="10.2" y="3.2"/></g><g transform="matrix(.5 -.8660254 .8660254 .5 47.553848 82.083648)"><path d="m1 0h49v12h-49z" fill="#7432bd"/><path d="m9.47251924 0h34.14325816c-.434277 2 .0091315 3.83333333 1.3302256 5.5 2.1693951 2.73686691 2.1693951 4.9035336 0 6.5h-41.37295366c1.53946936-3.2 3.50595933-5 5.8994699-5.4 2.39351056-.4 2.39351056-2.6 0-6.6z" fill="#efbd21"/><path d="m50 11 1 .5-1 .5zm-49 0v1l-1-.5zm0-1v1l-1-.5zm49 0 1 .5-1 .5zm-49-1v1l-1-.5zm49 0 1 .5-1 .5zm-49-1v1l-1-.5zm49 0 1 .5-1 .5zm-49-1v1l-1-.5zm49 0 1 .5-1 .5zm-49-1v1l-1-.5zm49 0 1 .5-1 .5zm-49-1v1l-1-.5zm49 0 1 .5-1 .5zm-49-1v1l-1-.5zm49 0 1 .5-1 .5zm-49-1v1l-1-.5zm49 0 1 .5-1 .5zm-49-1v1l-1-.5zm49 0 1 .5-1 .5zm0-1 1 .5-1 .5zm-49 0v1l-1-.5zm49-1 1 .5-1 .5zm-49 0v1l-1-.5z" fill="#7432bd"/><rect fill="#ca302a" height="5.6" rx="2" stroke="#fff" stroke-width=".4" width="30.6" x="12.24099" y="3.128352"/></g><g transform="matrix(.98480775 -.17364818 .17364818 .98480775 45.986933 56.850644)"><path d="m43.95.09061839-2.5 1.57638161v-.567c0-.30375661-.2462434-.55-.55-.55h-37.8c-.30375661 0-.55.24624339-.55.55l-.07773885.60859995-2.42226115-1.70859995-.07773885 3.95840005 2.57773885-1.62540005v.567c0 .30375661.24624339.55.55.55h37.8c.3037566 0 .55-.24624339.55-.55l.0777388-.60859995 2.4222612 1.70859995z" fill="#f1f1e3" stroke="#979797" stroke-width=".1"/><path d="m18.5238757 1.02563008c1.6052018.0767339 2.773912.11510084 3.5061306.11510084.7304404 0 1.878973-.03818081 3.445598-.11454244.2758417-.01349859.5103573.19921773.5238027.47506202.0003953.00810901.000593.01622644.000593.02434508v.94951293c.0000391.27616397-.223836.50003911-.5.50003911-.0079049 0-.0158086-.00018745-.0237046-.00056218-1.6198801-.07687758-2.7886474-.11531636-3.5063017-.11531636-.7159389 0-1.8645233.03825524-3.4457531.11476572-.2758577.01342346-.5103082-.19938564-.5236562-.47524698-.0003895-.00805036-.0005844-.01610895-.0005844-.02416873v-.94953229c-.0000271-.27615732.2238427-.50002706.5-.50002706.007962 0 .0159228.00019017.0238757.00057034z" fill="#1e45b0" transform="matrix(.99939083 -.0348995 .0348995 .99939083 -.056397 .769007)"/></g><g transform="matrix(.8660254 -.5 .5 .8660254 45.947441 49.267949)"><path d="m44 0v4l-2.5-1.667v.567c0 .33137085-.2686292.6-.6.6h-37.8c-.33137085 0-.6-.26862915-.6-.6v-.567l-2.5 1.667v-4l2.5 1.667v-.567c0-.33137085.26862915-.6.6-.6h37.8c.3313708 0 .6.26862915.6.6v.567z" fill="#f44d94"/><path d="m18.5238757 1.02563008c1.6052018.0767339 2.773912.11510084 3.5061306.11510084.7304404 0 1.878973-.03818081 3.445598-.11454244.2758417-.01349859.5103573.19921773.5238027.47506202.0003953.00810901.000593.01622644.000593.02434508v.94951293c.0000391.27616397-.223836.50003911-.5.50003911-.0079049 0-.0158086-.00018745-.0237046-.00056218-1.6198801-.07687758-2.7886474-.11531636-3.5063017-.11531636-.7159389 0-1.8645233.03825524-3.4457531.11476572-.2758577.01342346-.5103082-.19938564-.5236562-.47524698-.0003895-.00805036-.0005844-.01610895-.0005844-.02416873v-.94953229c-.0000271-.27615732.2238427-.50002706.5-.50002706.007962 0 .0159228.00019017.0238757.00057034z" fill="#1e45b0" transform="matrix(.99939083 -.0348995 .0348995 .99939083 -.056397 .769007)"/></g><g transform="matrix(0 1 -1 0 64.5 5.5)"><path d="m1 0h71v10h-71z" fill="#7432bd"/><path d="m13.3690154 0h48.4357849c-.6160674 1.66666667.012954 3.19444444 1.8870642 4.58333333 3.077514 2.28072242 3.077514 4.08627798 0 5.41666667h-58.6918645c2.18389839-2.66666667 4.9735702-4.16666667 8.3690154-4.5 3.3954453-.33333333 3.3954453-2.16666667 0-5.5z" fill="#fff"/><path d="m71.5686275 9.16666667 1.4313725.41666666-1.4313725.41666667zm-70.13725495 0v.83333333l-1.43137255-.41666667zm0-.83333334v.83333334l-1.43137255-.41666667zm70.13725495 0 1.4313725.41666667-1.4313725.41666667zm-70.13725495-.83333333v.83333333l-1.43137255-.41666666zm70.13725495 0 1.4313725.41666667-1.4313725.41666666zm-70.13725495-.83333333v.83333333l-1.43137255-.41666667zm70.13725495 0 1.4313725.41666666-1.4313725.41666667zm-70.13725495-.83333334v.83333334l-1.43137255-.41666667zm70.13725495 0 1.4313725.41666667-1.4313725.41666667zm-70.13725495-.83333333v.83333333l-1.43137255-.41666666zm70.13725495 0 1.4313725.41666667-1.4313725.41666666zm-70.13725495-.83333333v.83333333l-1.43137255-.41666667zm70.13725495 0 1.4313725.41666666-1.4313725.41666667zm-70.13725495-.83333334v.83333334l-1.43137255-.41666667zm70.13725495 0 1.4313725.41666667-1.4313725.41666667zm-70.13725495-.83333333v.83333333l-1.43137255-.41666666zm70.13725495 0 1.4313725.41666667-1.4313725.41666666zm-70.13725495-.83333333v.83333333l-1.43137255-.41666667zm70.13725495 0 1.4313725.41666666-1.4313725.41666667zm-70.13725495-.83333334v.83333334l-1.43137255-.41666667zm70.13725495 0 1.4313725.41666667-1.4313725.41666667zm-70.13725495-.83333333v.83333333l-1.43137255-.41666666zm70.13725495 0 1.4313725.41666667-1.4313725.41666666z" fill="#7432bd"/><rect fill="#05c1e9" height="4.6" rx="2" stroke="#fff" stroke-width=".4" transform="matrix(.99862953 -.05233596 .05233596 .99862953 -.209726 2.047994)" width="43.6" x="17.2" y="2.728553"/></g><g transform="matrix(.17364818 .98480775 -.98480775 .17364818 50.08588 1.186276)"><path d="m1 0h71v10h-71z" fill="#7432bd"/><path d="m13.3690154 0h48.4357849c-.6160674 1.66666667.012954 3.19444444 1.8870642 4.58333333 3.077514 2.28072242 3.077514 4.08627798 0 5.41666667h-58.6918645c2.18389839-2.66666667 4.9735702-4.16666667 8.3690154-4.5 3.3954453-.33333333 3.3954453-2.16666667 0-5.5z" fill="#fff"/><path d="m71.5686275 9.16666667 1.4313725.41666666-1.4313725.41666667zm-70.13725495 0v.83333333l-1.43137255-.41666667zm0-.83333334v.83333334l-1.43137255-.41666667zm70.13725495 0 1.4313725.41666667-1.4313725.41666667zm-70.13725495-.83333333v.83333333l-1.43137255-.41666666zm70.13725495 0 1.4313725.41666667-1.4313725.41666666zm-70.13725495-.83333333v.83333333l-1.43137255-.41666667zm70.13725495 0 1.4313725.41666666-1.4313725.41666667zm-70.13725495-.83333334v.83333334l-1.43137255-.41666667zm70.13725495 0 1.4313725.41666667-1.4313725.41666667zm-70.13725495-.83333333v.83333333l-1.43137255-.41666666zm70.13725495 0 1.4313725.41666667-1.4313725.41666666zm-70.13725495-.83333333v.83333333l-1.43137255-.41666667zm70.13725495 0 1.4313725.41666666-1.4313725.41666667zm-70.13725495-.83333334v.83333334l-1.43137255-.41666667zm70.13725495 0 1.4313725.41666667-1.4313725.41666667zm-70.13725495-.83333333v.83333333l-1.43137255-.41666666zm70.13725495 0 1.4313725.41666667-1.4313725.41666666zm-70.13725495-.83333333v.83333333l-1.43137255-.41666667zm70.13725495 0 1.4313725.41666666-1.4313725.41666667zm-70.13725495-.83333334v.83333334l-1.43137255-.41666667zm70.13725495 0 1.4313725.41666667-1.4313725.41666667zm-70.13725495-.83333333v.83333333l-1.43137255-.41666666zm70.13725495 0 1.4313725.41666667-1.4313725.41666666z" fill="#7432bd"/><rect fill="#05c1e9" height="4.6" rx="2" stroke="#fff" stroke-width=".4" transform="matrix(.99862953 -.05233596 .05233596 .99862953 -.209726 2.047994)" width="43.6" x="17.2" y="2.728553"/></g><g transform="matrix(.17364818 .98480775 -.98480775 .17364818 78.980818 6.845513)"><path d="m1 0h49v12h-49z" fill="#7432bd"/><path d="m9.47251924 0h34.14325816c-.434277 2 .0091315 3.83333333 1.3302256 5.5 2.1693951 2.73686691 2.1693951 4.9035336 0 6.5h-41.37295366c1.53946936-3.2 3.50595933-5 5.8994699-5.4 2.39351056-.4 2.39351056-2.6 0-6.6z" fill="#efbd21"/><path d="m50 11 1 .5-1 .5zm-49 0v1l-1-.5zm0-1v1l-1-.5zm49 0 1 .5-1 .5zm-49-1v1l-1-.5zm49 0 1 .5-1 .5zm-49-1v1l-1-.5zm49 0 1 .5-1 .5zm-49-1v1l-1-.5zm49 0 1 .5-1 .5zm-49-1v1l-1-.5zm49 0 1 .5-1 .5zm-49-1v1l-1-.5zm49 0 1 .5-1 .5zm-49-1v1l-1-.5zm49 0 1 .5-1 .5zm-49-1v1l-1-.5zm49 0 1 .5-1 .5zm-49-1v1l-1-.5zm49 0 1 .5-1 .5zm0-1 1 .5-1 .5zm-49 0v1l-1-.5zm49-1 1 .5-1 .5zm-49 0v1l-1-.5z" fill="#7432bd"/><rect fill="#ca302a" height="5.6" rx="2" stroke="#fff" stroke-width=".4" width="30.6" x="12.24099" y="3.128352"/></g><g transform="matrix(.98480775 -.17364818 .17364818 .98480775 26.258689 71.526778)"><path d="m1 0h49v13h-49z" fill="#ed5f09"/><path d="m1 0h49v6.03571429c-11.9697104-.68217159-20.8030437-1.02740969-26.5-1.03571429s-13.1969563.31312397-22.5.96428571z" fill="#56288d"/><path d="m50 12.0357143 1 .4642857-1 .4642857zm-49 0v.9285714l-1-.4642857zm0-1v.9285714l-1-.4642857zm49 0 1 .4642857-1 .4642857zm-49-1v.9285714l-1-.4642857zm49 0 1 .4642857-1 .4642857zm-49-1.00000001v.92857142l-1-.46428571zm49 0 1 .46428571-1 .46428571zm-49-1v.92857142l-1-.46428571zm49 0 1 .46428571-1 .46428571zm-49-1v.92857142l-1-.46428571zm49 0 1 .46428571-1 .46428571zm-49-1v.92857142l-1-.46428571zm49 0 1 .46428571-1 .46428571z" fill="#ed5f09"/><path d="m1 5.03571429v.92857142l-1-.46428571zm0-1v.92857142l-1-.46428571zm0-1v.92857142l-1-.46428571zm0-1v.92857142l-1-.46428571zm0-1v.92857142l-1-.46428571zm0-1v.92857142l-1-.46428571z" fill="#56288d"/><path d="m50 5.03571429 1 .46428571-1 .46428571zm0-1 1 .46428571-1 .46428571zm0-1 1 .46428571-1 .46428571zm0-1 1 .46428571-1 .46428571zm0-1 1 .46428571-1 .46428571zm0-1 1 .46428571-1 .46428571z" fill="#56288d"/><rect fill="#fff4f3" height="5.6" rx="2" stroke="#353434" stroke-width=".4" transform="matrix(.99939083 -.0348995 .0348995 .99939083 -.193863 .893592)" width="30.6" x="10.2" y="3.2"/></g><g transform="matrix(.98480775 .17364818 -.17364818 .98480775 10.681526 49.210125)"><path d="m44 0v4l-2.5-1.667v.567c0 .33137085-.2686292.6-.6.6h-37.8c-.33137085 0-.6-.26862915-.6-.6v-.567l-2.5 1.667v-4l2.5 1.667v-.567c0-.33137085.26862915-.6.6-.6h37.8c.3313708 0 .6.26862915.6.6v.567z" fill="#f49b07"/><path d="m18.5238757 1.02563008c1.6052018.0767339 2.773912.11510084 3.5061306.11510084.7304404 0 1.878973-.03818081 3.445598-.11454244.2758417-.01349859.5103573.19921773.5238027.47506202.0003953.00810901.000593.01622644.000593.02434508v.94951293c.0000391.27616397-.223836.50003911-.5.50003911-.0079049 0-.0158086-.00018745-.0237046-.00056218-1.6198801-.07687758-2.7886474-.11531636-3.5063017-.11531636-.7159389 0-1.8645233.03825524-3.4457531.11476572-.2758577.01342346-.5103082-.19938564-.5236562-.47524698-.0003895-.00805036-.0005844-.01610895-.0005844-.02416873v-.94953229c-.0000271-.27615732.2238427-.50002706.5-.50002706.007962 0 .0159228.00019017.0238757.00057034z" fill="#1e45b0" transform="matrix(.99939083 -.0348995 .0348995 .99939083 -.056397 .769007)"/></g><g transform="matrix(.99254615 -.12186934 .12186934 .99254615 29.920246 81.696033)"><path d="m43.95.09061839-2.5 1.57638161v-.567c0-.30375661-.2462434-.55-.55-.55h-37.8c-.30375661 0-.55.24624339-.55.55l-.07773885.60859995-2.42226115-1.70859995-.07773885 3.95840005 2.57773885-1.62540005v.567c0 .30375661.24624339.55.55.55h37.8c.3037566 0 .55-.24624339.55-.55l.0777388-.60859995 2.4222612 1.70859995z" fill="#f1f1e3" stroke="#979797" stroke-width=".1"/><path d="m18.5238757 1.02563008c1.6052018.0767339 2.773912.11510084 3.5061306.11510084.7304404 0 1.878973-.03818081 3.445598-.11454244.2758417-.01349859.5103573.19921773.5238027.47506202.0003953.00810901.000593.01622644.000593.02434508v.94951293c.0000391.27616397-.223836.50003911-.5.50003911-.0079049 0-.0158086-.00018745-.0237046-.00056218-1.6198801-.07687758-2.7886474-.11531636-3.5063017-.11531636-.7159389 0-1.8645233.03825524-3.4457531.11476572-.2758577.01342346-.5103082-.19938564-.5236562-.47524698-.0003895-.00805036-.0005844-.01610895-.0005844-.02416873v-.94953229c-.0000271-.27615732.2238427-.50002706.5-.50002706.007962 0 .0159228.00019017.0238757.00057034z" fill="#1e45b0" transform="matrix(.99939083 -.0348995 .0348995 .99939083 -.056397 .769007)"/></g><g transform="matrix(.93969262 -.34202014 .34202014 .93969262 10.642722 56.645058)"><path d="m44 0v4l-2.5-1.667v.567c0 .33137085-.2686292.6-.6.6h-37.8c-.33137085 0-.6-.26862915-.6-.6v-.567l-2.5 1.667v-4l2.5 1.667v-.567c0-.33137085.26862915-.6.6-.6h37.8c.3313708 0 .6.26862915.6.6v.567z" fill="#f44d94"/><path d="m18.5238757 1.02563008c1.6052018.0767339 2.773912.11510084 3.5061306.11510084.7304404 0 1.878973-.03818081 3.445598-.11454244.2758417-.01349859.5103573.19921773.5238027.47506202.0003953.00810901.000593.01622644.000593.02434508v.94951293c.0000391.27616397-.223836.50003911-.5.50003911-.0079049 0-.0158086-.00018745-.0237046-.00056218-1.6198801-.07687758-2.7886474-.11531636-3.5063017-.11531636-.7159389 0-1.8645233.03825524-3.4457531.11476572-.2758577.01342346-.5103082-.19938564-.5236562-.47524698-.0003895-.00805036-.0005844-.01610895-.0005844-.02416873v-.94953229c-.0000271-.27615732.2238427-.50002706.5-.50002706.007962 0 .0159228.00019017.0238757.00057034z" fill="#1e45b0" transform="matrix(.99939083 -.0348995 .0348995 .99939083 -.056397 .769007)"/></g><g transform="matrix(.01745241 .9998477 -.9998477 .01745241 46.615742 43.968446)"><path d="m43.95.09061839-2.5 1.57638161v-.567c0-.30375661-.2462434-.55-.55-.55h-37.8c-.30375661 0-.55.24624339-.55.55l-.07773885.60859995-2.42226115-1.70859995-.07773885 3.95840005 2.57773885-1.62540005v.567c0 .30375661.24624339.55.55.55h37.8c.3037566 0 .55-.24624339.55-.55l.0777388-.60859995 2.4222612 1.70859995z" fill="#fafc29" stroke="#979797" stroke-width=".1"/><path d="m18.5238757 1.02563008c1.6052018.0767339 2.773912.11510084 3.5061306.11510084.7304404 0 1.878973-.03818081 3.445598-.11454244.2758417-.01349859.5103573.19921773.5238027.47506202.0003953.00810901.000593.01622644.000593.02434508v.94951293c.0000391.27616397-.223836.50003911-.5.50003911-.0079049 0-.0158086-.00018745-.0237046-.00056218-1.6198801-.07687758-2.7886474-.11531636-3.5063017-.11531636-.7159389 0-1.8645233.03825524-3.4457531.11476572-.2758577.01342346-.5103082-.19938564-.5236562-.47524698-.0003895-.00805036-.0005844-.01610895-.0005844-.02416873v-.94953229c-.0000271-.27615732.2238427-.50002706.5-.50002706.007962 0 .0159228.00019017.0238757.00057034z" fill="#1e45b0" transform="matrix(.99939083 -.0348995 .0348995 .99939083 -.056397 .769007)"/></g><g transform="matrix(-.08715574 .9961947 -.9961947 -.08715574 32.69964 21.11997)"><path d="m1 0h49v12h-49z" fill="#054cbf"/><path d="m5.43613297 1h39.56386703v10h-43c.51764905-1 .77647357-2.66666667.77647357-5s.88655313-4 2.6596594-5z" fill="#68c1f2"/><path d="m23.4976846 1h22.2586106c1.6922108 1 2.5383162 2.33333333 2.5383162 4 0 2.32994132.2351616 4.32994132.7054848 6h-27.0000962c2.3333333-1 3.5-2.5 3.5-4.5s-.6674385-3.83333333-2.0023154-5.5z" fill="#ffeda9"/><g fill="#054cbf"><path d="m.5 4 .5 1h-1z" transform="matrix(0 -1 1 0 -4 5)"/><path d="m.5 1 .5 1h-1z" transform="matrix(0 -1 1 0 -1 2)"/><path d="m.5 2 .5 1h-1z" transform="matrix(0 -1 1 0 -2 3)"/><path d="m.5 3 .5 1h-1z" transform="matrix(0 -1 1 0 -3 4)"/><path d="m.5 5 .5 1h-1z" transform="matrix(0 -1 1 0 -5 6)"/><path d="m.5 6 .5 1h-1z" transform="matrix(0 -1 1 0 -6 7)"/><path d="m.5 7 .5 1h-1z" transform="matrix(0 -1 1 0 -7 8)"/><path d="m.5 8 .5 1h-1z" transform="matrix(0 -1 1 0 -8 9)"/><path d="m.5 0 .5 1h-1z" transform="matrix(0 -1 1 0 0 1)"/><path d="m.5 9 .5 1h-1z" transform="matrix(0 -1 1 0 -9 10)"/><path d="m.5 10 .5 1h-1z" transform="matrix(0 -1 1 0 -10 11)"/><path d="m.5 11 .5 1h-1z" transform="matrix(0 -1 1 0 -11 12)"/><path d="m50.5 4 .5 1h-1z" transform="matrix(0 1 -1 0 55 -46)"/><path d="m50.5 1 .5 1h-1z" transform="matrix(0 1 -1 0 52 -49)"/><path d="m50.5 2 .5 1h-1z" transform="matrix(0 1 -1 0 53 -48)"/><path d="m50.5 3 .5 1h-1z" transform="matrix(0 1 -1 0 54 -47)"/><path d="m50.5 5 .5 1h-1z" transform="matrix(0 1 -1 0 56 -45)"/><path d="m50.5 6 .5 1h-1z" transform="matrix(0 1 -1 0 57 -44)"/><path d="m50.5 7 .5 1h-1z" transform="matrix(0 1 -1 0 58 -43)"/><path d="m50.5 8 .5 1h-1z" transform="matrix(0 1 -1 0 59 -42)"/><path d="m50.5 0 .5 1h-1z" transform="matrix(0 1 -1 0 51 -50)"/><path d="m50.5 9 .5 1h-1z" transform="matrix(0 1 -1 0 60 -41)"/><path d="m50.5 10 .5 1h-1z" transform="matrix(0 1 -1 0 61 -40)"/><path d="m50.5 11 .5 1h-1z" transform="matrix(0 1 -1 0 62 -39)"/></g><ellipse cx="13" cy="6" fill="#9e1b1b" rx="8" ry="4" transform="matrix(.9945219 -.10452846 .10452846 .9945219 -.555955 1.391739)"/></g><g transform="matrix(-.08715574 .9961947 -.9961947 -.08715574 36.69964 25.11997)"><path d="m1 0h49v12h-49z" fill="#054cbf"/><path d="m5.43613297 1h39.56386703v10h-43c.51764905-1 .77647357-2.66666667.77647357-5s.88655313-4 2.6596594-5z" fill="#68c1f2"/><path d="m23.4976846 1h22.2586106c1.6922108 1 2.5383162 2.33333333 2.5383162 4 0 2.32994132.2351616 4.32994132.7054848 6h-27.0000962c2.3333333-1 3.5-2.5 3.5-4.5s-.6674385-3.83333333-2.0023154-5.5z" fill="#ffeda9"/><g fill="#054cbf"><path d="m.5 4 .5 1h-1z" transform="matrix(0 -1 1 0 -4 5)"/><path d="m.5 1 .5 1h-1z" transform="matrix(0 -1 1 0 -1 2)"/><path d="m.5 2 .5 1h-1z" transform="matrix(0 -1 1 0 -2 3)"/><path d="m.5 3 .5 1h-1z" transform="matrix(0 -1 1 0 -3 4)"/><path d="m.5 5 .5 1h-1z" transform="matrix(0 -1 1 0 -5 6)"/><path d="m.5 6 .5 1h-1z" transform="matrix(0 -1 1 0 -6 7)"/><path d="m.5 7 .5 1h-1z" transform="matrix(0 -1 1 0 -7 8)"/><path d="m.5 8 .5 1h-1z" transform="matrix(0 -1 1 0 -8 9)"/><path d="m.5 0 .5 1h-1z" transform="matrix(0 -1 1 0 0 1)"/><path d="m.5 9 .5 1h-1z" transform="matrix(0 -1 1 0 -9 10)"/><path d="m.5 10 .5 1h-1z" transform="matrix(0 -1 1 0 -10 11)"/><path d="m.5 11 .5 1h-1z" transform="matrix(0 -1 1 0 -11 12)"/><path d="m50.5 4 .5 1h-1z" transform="matrix(0 1 -1 0 55 -46)"/><path d="m50.5 1 .5 1h-1z" transform="matrix(0 1 -1 0 52 -49)"/><path d="m50.5 2 .5 1h-1z" transform="matrix(0 1 -1 0 53 -48)"/><path d="m50.5 3 .5 1h-1z" transform="matrix(0 1 -1 0 54 -47)"/><path d="m50.5 5 .5 1h-1z" transform="matrix(0 1 -1 0 56 -45)"/><path d="m50.5 6 .5 1h-1z" transform="matrix(0 1 -1 0 57 -44)"/><path d="m50.5 7 .5 1h-1z" transform="matrix(0 1 -1 0 58 -43)"/><path d="m50.5 8 .5 1h-1z" transform="matrix(0 1 -1 0 59 -42)"/><path d="m50.5 0 .5 1h-1z" transform="matrix(0 1 -1 0 51 -50)"/><path d="m50.5 9 .5 1h-1z" transform="matrix(0 1 -1 0 60 -41)"/><path d="m50.5 10 .5 1h-1z" transform="matrix(0 1 -1 0 61 -40)"/><path d="m50.5 11 .5 1h-1z" transform="matrix(0 1 -1 0 62 -39)"/></g><ellipse cx="13" cy="6" fill="#9e1b1b" rx="8" ry="4" transform="matrix(.9945219 -.10452846 .10452846 .9945219 -.555955 1.391739)"/></g><g transform="matrix(.25881905 .96592583 -.96592583 .25881905 23.178632 27.186568)"><path d="m1 0h49v13h-49z" fill="#ed5f09"/><path d="m1 0h49v6.03571429c-11.9697104-.68217159-20.8030437-1.02740969-26.5-1.03571429s-13.1969563.31312397-22.5.96428571z" fill="#56288d"/><path d="m50 12.0357143 1 .4642857-1 .4642857zm-49 0v.9285714l-1-.4642857zm0-1v.9285714l-1-.4642857zm49 0 1 .4642857-1 .4642857zm-49-1v.9285714l-1-.4642857zm49 0 1 .4642857-1 .4642857zm-49-1.00000001v.92857142l-1-.46428571zm49 0 1 .46428571-1 .46428571zm-49-1v.92857142l-1-.46428571zm49 0 1 .46428571-1 .46428571zm-49-1v.92857142l-1-.46428571zm49 0 1 .46428571-1 .46428571zm-49-1v.92857142l-1-.46428571zm49 0 1 .46428571-1 .46428571z" fill="#ed5f09"/><path d="m1 5.03571429v.92857142l-1-.46428571zm0-1v.92857142l-1-.46428571zm0-1v.92857142l-1-.46428571zm0-1v.92857142l-1-.46428571zm0-1v.92857142l-1-.46428571zm0-1v.92857142l-1-.46428571z" fill="#56288d"/><path d="m50 5.03571429 1 .46428571-1 .46428571zm0-1 1 .46428571-1 .46428571zm0-1 1 .46428571-1 .46428571zm0-1 1 .46428571-1 .46428571zm0-1 1 .46428571-1 .46428571zm0-1 1 .46428571-1 .46428571z" fill="#56288d"/><rect fill="#fff4f3" height="5.6" rx="2" stroke="#353434" stroke-width=".4" transform="matrix(.99939083 -.0348995 .0348995 .99939083 -.193863 .893592)" width="30.6" x="10.2" y="3.2"/></g><g transform="matrix(-.08715574 .9961947 -.9961947 -.08715574 40.69964 30.11997)"><path d="m1 0h49v12h-49z" fill="#054cbf"/><path d="m5.43613297 1h39.56386703v10h-43c.51764905-1 .77647357-2.66666667.77647357-5s.88655313-4 2.6596594-5z" fill="#68c1f2"/><path d="m23.4976846 1h22.2586106c1.6922108 1 2.5383162 2.33333333 2.5383162 4 0 2.32994132.2351616 4.32994132.7054848 6h-27.0000962c2.3333333-1 3.5-2.5 3.5-4.5s-.6674385-3.83333333-2.0023154-5.5z" fill="#ffeda9"/><g fill="#054cbf"><path d="m.5 4 .5 1h-1z" transform="matrix(0 -1 1 0 -4 5)"/><path d="m.5 1 .5 1h-1z" transform="matrix(0 -1 1 0 -1 2)"/><path d="m.5 2 .5 1h-1z" transform="matrix(0 -1 1 0 -2 3)"/><path d="m.5 3 .5 1h-1z" transform="matrix(0 -1 1 0 -3 4)"/><path d="m.5 5 .5 1h-1z" transform="matrix(0 -1 1 0 -5 6)"/><path d="m.5 6 .5 1h-1z" transform="matrix(0 -1 1 0 -6 7)"/><path d="m.5 7 .5 1h-1z" transform="matrix(0 -1 1 0 -7 8)"/><path d="m.5 8 .5 1h-1z" transform="matrix(0 -1 1 0 -8 9)"/><path d="m.5 0 .5 1h-1z" transform="matrix(0 -1 1 0 0 1)"/><path d="m.5 9 .5 1h-1z" transform="matrix(0 -1 1 0 -9 10)"/><path d="m.5 10 .5 1h-1z" transform="matrix(0 -1 1 0 -10 11)"/><path d="m.5 11 .5 1h-1z" transform="matrix(0 -1 1 0 -11 12)"/><path d="m50.5 4 .5 1h-1z" transform="matrix(0 1 -1 0 55 -46)"/><path d="m50.5 1 .5 1h-1z" transform="matrix(0 1 -1 0 52 -49)"/><path d="m50.5 2 .5 1h-1z" transform="matrix(0 1 -1 0 53 -48)"/><path d="m50.5 3 .5 1h-1z" transform="matrix(0 1 -1 0 54 -47)"/><path d="m50.5 5 .5 1h-1z" transform="matrix(0 1 -1 0 56 -45)"/><path d="m50.5 6 .5 1h-1z" transform="matrix(0 1 -1 0 57 -44)"/><path d="m50.5 7 .5 1h-1z" transform="matrix(0 1 -1 0 58 -43)"/><path d="m50.5 8 .5 1h-1z" transform="matrix(0 1 -1 0 59 -42)"/><path d="m50.5 0 .5 1h-1z" transform="matrix(0 1 -1 0 51 -50)"/><path d="m50.5 9 .5 1h-1z" transform="matrix(0 1 -1 0 60 -41)"/><path d="m50.5 10 .5 1h-1z" transform="matrix(0 1 -1 0 61 -40)"/><path d="m50.5 11 .5 1h-1z" transform="matrix(0 1 -1 0 62 -39)"/></g><ellipse cx="13" cy="6" fill="#9e1b1b" rx="8" ry="4" transform="matrix(.9945219 -.10452846 .10452846 .9945219 -.555955 1.391739)"/></g><g transform="matrix(-.2923717 .95630476 -.95630476 -.2923717 58.693307 38.368459)"><path d="m1 0h49v12h-49z" fill="#7432bd"/><path d="m9.47251924 0h34.14325816c-.434277 2 .0091315 3.83333333 1.3302256 5.5 2.1693951 2.73686691 2.1693951 4.9035336 0 6.5h-41.37295366c1.53946936-3.2 3.50595933-5 5.8994699-5.4 2.39351056-.4 2.39351056-2.6 0-6.6z" fill="#efbd21"/><path d="m50 11 1 .5-1 .5zm-49 0v1l-1-.5zm0-1v1l-1-.5zm49 0 1 .5-1 .5zm-49-1v1l-1-.5zm49 0 1 .5-1 .5zm-49-1v1l-1-.5zm49 0 1 .5-1 .5zm-49-1v1l-1-.5zm49 0 1 .5-1 .5zm-49-1v1l-1-.5zm49 0 1 .5-1 .5zm-49-1v1l-1-.5zm49 0 1 .5-1 .5zm-49-1v1l-1-.5zm49 0 1 .5-1 .5zm-49-1v1l-1-.5zm49 0 1 .5-1 .5zm-49-1v1l-1-.5zm49 0 1 .5-1 .5zm0-1 1 .5-1 .5zm-49 0v1l-1-.5zm49-1 1 .5-1 .5zm-49 0v1l-1-.5z" fill="#7432bd"/><rect fill="#ca302a" height="5.6" rx="2" stroke="#fff" stroke-width=".4" width="30.6" x="12.24099" y="3.128352"/></g><g transform="matrix(-.08715574 .9961947 -.9961947 -.08715574 44.69964 33.11997)"><path d="m1 0h49v12h-49z" fill="#054cbf"/><path d="m5.43613297 1h39.56386703v10h-43c.51764905-1 .77647357-2.66666667.77647357-5s.88655313-4 2.6596594-5z" fill="#68c1f2"/><path d="m23.4976846 1h22.2586106c1.6922108 1 2.5383162 2.33333333 2.5383162 4 0 2.32994132.2351616 4.32994132.7054848 6h-27.0000962c2.3333333-1 3.5-2.5 3.5-4.5s-.6674385-3.83333333-2.0023154-5.5z" fill="#ffeda9"/><g fill="#054cbf"><path d="m.5 4 .5 1h-1z" transform="matrix(0 -1 1 0 -4 5)"/><path d="m.5 1 .5 1h-1z" transform="matrix(0 -1 1 0 -1 2)"/><path d="m.5 2 .5 1h-1z" transform="matrix(0 -1 1 0 -2 3)"/><path d="m.5 3 .5 1h-1z" transform="matrix(0 -1 1 0 -3 4)"/><path d="m.5 5 .5 1h-1z" transform="matrix(0 -1 1 0 -5 6)"/><path d="m.5 6 .5 1h-1z" transform="matrix(0 -1 1 0 -6 7)"/><path d="m.5 7 .5 1h-1z" transform="matrix(0 -1 1 0 -7 8)"/><path d="m.5 8 .5 1h-1z" transform="matrix(0 -1 1 0 -8 9)"/><path d="m.5 0 .5 1h-1z" transform="matrix(0 -1 1 0 0 1)"/><path d="m.5 9 .5 1h-1z" transform="matrix(0 -1 1 0 -9 10)"/><path d="m.5 10 .5 1h-1z" transform="matrix(0 -1 1 0 -10 11)"/><path d="m.5 11 .5 1h-1z" transform="matrix(0 -1 1 0 -11 12)"/><path d="m50.5 4 .5 1h-1z" transform="matrix(0 1 -1 0 55 -46)"/><path d="m50.5 1 .5 1h-1z" transform="matrix(0 1 -1 0 52 -49)"/><path d="m50.5 2 .5 1h-1z" transform="matrix(0 1 -1 0 53 -48)"/><path d="m50.5 3 .5 1h-1z" transform="matrix(0 1 -1 0 54 -47)"/><path d="m50.5 5 .5 1h-1z" transform="matrix(0 1 -1 0 56 -45)"/><path d="m50.5 6 .5 1h-1z" transform="matrix(0 1 -1 0 57 -44)"/><path d="m50.5 7 .5 1h-1z" transform="matrix(0 1 -1 0 58 -43)"/><path d="m50.5 8 .5 1h-1z" transform="matrix(0 1 -1 0 59 -42)"/><path d="m50.5 0 .5 1h-1z" transform="matrix(0 1 -1 0 51 -50)"/><path d="m50.5 9 .5 1h-1z" transform="matrix(0 1 -1 0 60 -41)"/><path d="m50.5 10 .5 1h-1z" transform="matrix(0 1 -1 0 61 -40)"/><path d="m50.5 11 .5 1h-1z" transform="matrix(0 1 -1 0 62 -39)"/></g><ellipse cx="13" cy="6" fill="#9e1b1b" rx="8" ry="4" transform="matrix(.9945219 -.10452846 .10452846 .9945219 -.555955 1.391739)"/></g><g transform="matrix(.5 .8660254 -.8660254 .5 53.732051 38.947441)"><path d="m44 0v4l-2.5-1.667v.567c0 .33137085-.2686292.6-.6.6h-37.8c-.33137085 0-.6-.26862915-.6-.6v-.567l-2.5 1.667v-4l2.5 1.667v-.567c0-.33137085.26862915-.6.6-.6h37.8c.3313708 0 .6.26862915.6.6v.567z" fill="#f44d94"/><path d="m18.5238757 1.02563008c1.6052018.0767339 2.773912.11510084 3.5061306.11510084.7304404 0 1.878973-.03818081 3.445598-.11454244.2758417-.01349859.5103573.19921773.5238027.47506202.0003953.00810901.000593.01622644.000593.02434508v.94951293c.0000391.27616397-.223836.50003911-.5.50003911-.0079049 0-.0158086-.00018745-.0237046-.00056218-1.6198801-.07687758-2.7886474-.11531636-3.5063017-.11531636-.7159389 0-1.8645233.03825524-3.4457531.11476572-.2758577.01342346-.5103082-.19938564-.5236562-.47524698-.0003895-.00805036-.0005844-.01610895-.0005844-.02416873v-.94953229c-.0000271-.27615732.2238427-.50002706.5-.50002706.007962 0 .0159228.00019017.0238757.00057034z" fill="#1e45b0" transform="matrix(.99939083 -.0348995 .0348995 .99939083 -.056397 .769007)"/></g><g fill="#000" fill-rule="nonzero" transform="translate(6 9)"><path d="m65.23 61.534c-1.771 2.33-4.213 4.098-6.998 5.046-.784.267-1.204 1.119-.937 1.903s1.119 1.203 1.903.937c3.354-1.143 6.287-3.265 8.42-6.07.501-.659.373-1.601-.287-2.102-.658-.501-1.599-.373-2.101.286z"/><path d="m74.916 7.939 1.628-5.357c.185-.607.072-1.263-.307-1.772-.378-.511-.971-.81-1.606-.81h-61.262c-.635 0-1.229.299-1.607.809-.378.511-.492 1.165-.307 1.773l1.628 5.357c-7.764 7.851-12.584 18.644-12.58300016 30.561.00100016 24.024 19.47600016 43.499 43.49999996 43.5 24.0240002-.001 43.4990002-19.476 43.5-43.5.0010002-11.917-4.8199998-22.71-12.5839998-30.561zm-2.986 58.492c-7.155 7.151-17.017 11.568-27.93 11.569-10.914-.001-20.776-4.418-27.931-11.569-7.151-7.156-11.568-17.018-11.569-27.931.001-7.767 2.03762684-19.3999873 12.227-28.552.5615595-.50438823.75-1.308.531-2.028l-1.191-3.92h55.865l-1.192 3.921c-.219.721-.013 1.508.532 2.028 7.532 7.2 12.227 17.314 12.228 28.551-.001 10.913-4.418 20.775-11.57 27.931z"/></g></g></svg>