<svg height="80" viewBox="0 0 26 80" width="26" xmlns="http://www.w3.org/2000/svg"><g fill="none" fill-rule="evenodd"><path d="m24.328 56.81 1.283-5.134c.258-1.029.389-2.09.389-3.153v-17.336c0-2.259-.592-4.489-1.713-6.45l-4.838-8.466c-.948-1.66-1.449-3.547-1.449-5.458v-2.813c.553 0 1-.448 1-1v-6c0-.552-.447-1-1-1h-10c-.552 0-1 .448-1 1v6c0 .552.448 1 1 1v2.813c0 1.911-.501 3.798-1.449 5.457l-4.838 8.466c-1.121 1.962-1.713 4.192-1.713 6.451v17.336c0 1.063.131 2.124.388 3.153l1.283 5.133c.219.871.329 1.769.329 2.668v1.842c0 1.023-.143 2.04-.423 3.022l-.889 3.111c-.467 1.634-.608 3.318-.42 5.007l.541 4.872c.169 1.522 1.451 2.669 2.981 2.669h2.21c.334 0 .646-.167.832-.445l1.168-1.2021351 1.168 1.2021351c.186.278.498.445.832.445h6c.334 0 .646-.167.832-.445l1.168-1.752 1.168 1.752c.186.278.498.445.832.445h2.21c1.531 0 2.813-1.147 2.981-2.669l.542-4.872c.187-1.689.045-3.374-.421-5.007l-.889-3.112c-.28-.981-.423-1.998-.423-3.021v-1.842c0-.899.11-1.797.328-2.667z" fill="#000" fill-rule="nonzero"/><path d="m24 48v.523c0 .899-.11 1.797-.328 2.667l-1.283 5.134c-.258 1.029-.389 2.09-.389 3.153v1.842c0 1.209.168 2.411.5 3.571l.889 3.111c.396 1.382.515 2.808.356 4.237l-.542 4.872c-.056.508-.483.89-.993.89h-1.675l-1.703-2.555c-.371-.557-1.293-.557-1.664 0l-1.703 2.555h-4.93l-1.703-2.555c-.371-.557-1.293-.557-1.664 0l-1.703 2.555h-1.675c-.51 0-.938-.383-.994-.89l-.541-4.872c-.159-1.429-.039-2.854.356-4.237l.889-3.111c.332-1.161.5-2.363.5-3.572v-1.842c0-1.063-.131-2.124-.388-3.153l-1.283-5.133c-.219-.87-.329-1.768-.329-2.667v-.523zm-8-40v2.813c0 2.259.592 4.489 1.713 6.45l4.838 8.466c.948 1.66 1.449 3.547 1.449 5.458v.813h-22v-.813c0-1.911.501-3.798 1.449-5.458l4.838-8.466c1.121-1.961 1.713-4.191 1.713-6.45v-2.813z" fill="#2b0304" fill-rule="nonzero"/><circle cx="13" cy="40" fill="#fff" r="6"/><path d="m14.5004683 40.9977269c2.374361-.8682726 4.1403498-1.2532926 5.2979664-1.1550601l.0000759.0226531c0 3.2032515-2.5967485 5.8-5.8 5.8-3.2032516 0-5.80000002-2.5967485-5.80000002-5.8l.00222141.1796158c1.77682366 1.5212535 3.87673571 1.8388506 6.29973631.9527912z" fill="#274a97" transform="matrix(.93969262 -.34202014 .34202014 .93969262 -13.775952 7.365702)"/><path d="m14.525202 34.4329913c1.2219588-.0042677 2.2069533.287478 2.9549836.8752372-.1143095 1.1165428-.5522524 2.2107203-1.3272013 3.1342684-2.0590104 2.4538331-5.7173929 2.7739-8.17122594.7148896-.90145476-.7564103-1.51494123-1.7286683-1.82829717-2.7777587 3.97130541-1.2923209 6.76170241-1.9410135 8.37174081-1.9466365z" fill="#db0915" transform="matrix(-.92118541 .38912395 -.38912395 -.92118541 37.284224 67.395754)"/></g></svg>