<svg height="90" viewBox="0 0 65 90" width="65" xmlns="http://www.w3.org/2000/svg"><g fill="none" fill-rule="evenodd" transform="translate(-18 -5)"><path d="m21.8524187 60.4577468 56.0247526.149053-.5529504 7.4356731.047712 6.2526169 1.4328974 7.261342 2.0227757 5.3030305-20.8300863-.6499978-13.2427273.7948864c-.0093844-.0010902-.0125431.0009048-.0163141.0009893l-4.40991.2646568-.0099994-.0019077c-.0068407 0-.012454.0034939-.0192084.0036602l-4.396933.2639074c-.0050873-.0000845-.0092981-.0027445-.0144745-.0027445-.0098241 0-.0179811.0049902-.0277161.0053227l-3.4036469.2042726-13.0452831-.802959 1.1203696-6.3998329.7003085-6.7995641.6820659-5.4508298c.0112999-.0834282.0055818-.1681384-.0168429-.2495199zm44.1980769-48.9002516 13.1171212.8404677-.5101447 7.4693161-.1347289 6.0373705-.4968025 7.8471315.3719092 7.5146806-1.3086077 4.6541655-55.4920741-.0144568-.3075411-4.5143499.5094433-7.8014152c.00426-.0683196-.0014109-.1368893-.01684-.2036226l-1.5830637-6.7749901-.1768304-6.7763717-.5035627-7.3639515 20.9893725.6817727 13.2429027-.8273046c.0091227.0010383.0121062-.0009475.0157852-.0010411l4.4115828-.2755659c.0170154.0019858.0226316-.0017361.0294722-.001912l4.3967576-.2746098c.0242958.0028567.0325419-.0023376.0422798-.0026837z" fill="#fff" fill-rule="nonzero"/><g fill-rule="nonzero" transform="translate(18 5)"><g transform="translate(1.8 5.3)"><path d="m17.9636708 46.9266642c-1.084501-.8080962-2.4657214-1.1071539-3.7873568-.8200273-1.3216354.2871267-2.4542658 1.1323212-3.105714 2.3175541-.7421049-1.3500925-2.10146011-2.2481518-3.63445534-2.4011064-1.53299523-.1529545-3.04299357.4588151-4.03722406 1.6356648-1.9402306 2.2913506-1.1750816 6.1881974.684684 8.630237 1.70956305 2.2467561 4.39525218 3.5343446 7.2174905 3.4602506 2.8222383-.0740939 5.4366666-1.5008297 7.0259849-3.8341934 1.0495132-1.5461334 1.5858244-3.3833498 1.5329314-5.2512922-.0314458-1.4691258-.7292314-2.8442403-1.8963406-3.7370872z" fill="#dd8856"/><path d="m11.0646519 53.0224c-1.75055956 1.1765879-2.62637686 2.2494545-2.6274519 3.2186 0 1.7556 1.712881 2.0482 2.6334006 2.0482s2.635101-.6252138 2.6334007-2.0482c-.0011353-.9486575-.8809184-2.0215242-2.6393494-3.2186z" fill="#fff"/><path d="m8.7221924 53.63686.0544236-.0637868c.4874716-.5696922.9913288-1.158696 1.1010538-2.0221586.05174162-.4019493.0429637-.8093827-.0260414-1.2087306-.2732884-1.5706768-1.4027244-2.5865846-2.8774284-2.5865846-.78649434-.0005007-1.53898063.3206644-2.0827268.8889194-.55743438.5762073-.85919646 1.3527094-.8371286 2.1541212.0532532 1.6921058.9726024 3.345881 1.6441194 4.5537338.13934013.2505083.39221793.4172001.677369.4465076.02916013.0030359.05846247.004501.08778.004395.25579833 0 .49888449-.1115293.665665-.3054804.53272707-.6181663 1.06369853-1.2384783 1.5929144-1.860936z" fill="#fff"/><path d="m15.167 47.7555902c-.8236485.0006845-1.6089554.348093-2.1634844.9571044-.4057678.4575698-.6634468 1.0272994-.7391076 1.634171-.0439461.313829-.0537567.6314961-.02926.9474388.076076 1.0755976.6981436 1.7872008 1.3000218 2.4751034l1.5534134 1.8044642c.167249.1955373.4118696.3078467.6691762.3072325h.0400862c.2644958-.0104861.5093172-.1425622.6633242-.3578523 1.0079911-1.3856393 1.5749336-3.0429263 1.626856-4.7556278.00543-.8067137-.3089317-1.5827284-.8742888-2.1582176-.5397877-.5480844-1.2774755-.8558146-2.046737-.8538166z" fill="#fff"/><g fill="#d8d0d0"><path d="m14.8744 46.8778h1v1h-1z"/><path d="m14.8744 56.5336h1v1h-1z"/><path d="m18.3856 51.5594h1v1h-1z"/><path d="m10.1928 52.1446h1v1h-1z"/><path d="m11.3632 49.2186h1v1h-1z"/><path d="m11.9484 52.7298h1v1h-1z"/><path d="m7.2668 55.6558h1v1h-1z"/><path d="m7.5594 46.2926h1v1h-1z"/><path d="m3.1704 51.5594h1v1h-1z"/><path d="m4.3408 47.7556h1v1h-1z"/><path d="m10.778 58.5818h1v1h-1z"/><path d="m6.9742 57.704h1v1h-1z"/></g><g transform="translate(2 63.1)"><path d="m15.9636708.9266642c-1.084501-.80809618-2.4657214-1.10715394-3.7873568-.82002727-1.3216354.28712666-2.45426584 1.13232113-3.105714 2.31755407-.74210491-1.35009251-2.10146011-2.24815181-3.63445534-2.40110637-1.53299523-.15295455-3.04299357.45881508-4.03722406 1.63566477-1.9402306 2.2913506-1.1750816 6.1881974.684684 8.630237 1.70956305 2.2467561 4.39525218 3.5343446 7.21749048 3.4602506 2.82223832-.0740939 5.43666662-1.5008297 7.02598492-3.8341934 1.0495132-1.54613338 1.5858244-3.38334984 1.5329314-5.2512922-.0314458-1.4691258-.7292314-2.8442403-1.8963406-3.7370872z" fill="#dd8856"/><path d="m9.06465191 7.0224c-1.75055957 1.17658787-2.62637687 2.24945454-2.62745191 3.2186 0 1.7556 1.71288103 2.0482 2.63340063 2.0482s2.63510097-.6252138 2.63340067-2.0482c-.0011353-.9486575-.8809184-2.02152417-2.63934939-3.2186z" fill="#fff"/><path d="m6.7221924 7.63686.0544236-.0637868c.4874716-.5696922.9913288-1.158696 1.1010538-2.0221586.05174162-.40194927.0429637-.80938274-.0260414-1.2087306-.2732884-1.5706768-1.4027244-2.58658459-2.8774284-2.58658459-.78649434-.0005007-1.53898063.32066442-2.0827268.88891939-.55743438.57620728-.85919646 1.35270937-.8371286 2.1541212.0532532 1.6921058.9726024 3.345881 1.6441194 4.5537338.13934013.25050826.39221793.41720006.677369.4465076.02916013.00303591.05846247.00450102.08778.00439497.25579833 0 .49888449-.11152922.665665-.30548037.53272707-.61816627 1.06369853-1.23847827 1.5929144-1.860936z" fill="#fff"/><path d="m13.167 1.75559024c-.8236485.00068442-1.6089554.34809296-2.1634844.95710436-.4057678.45756981-.6634468 1.02729942-.7391076 1.634171-.0439461.31382901-.0537567.63149605-.02926.9474388.076076 1.0755976.6981436 1.7872008 1.3000218 2.4751034l1.5534134 1.8044642c.167249.1955373.4118696.30784668.6691762.30723253h.0400862c.2644958-.01048615.5093172-.14256227.6633242-.35785233 1.0079911-1.38563925 1.5749336-3.04292634 1.626856-4.7556278.00543-.80671368-.3089317-1.58272839-.8742888-2.1582176-.5397877-.5480844-1.2774755-.85581465-2.046737-.85381656z" fill="#fff"/><g fill="#d8d0d0"><path d="m12.8744.8778h1v1h-1z"/><path d="m12.8744 10.5336h1v1h-1z"/><path d="m16.3856 5.5594h1v1h-1z"/><path d="m8.1928 6.1446h1v1h-1z"/><path d="m9.3632 3.2186h1v1h-1z"/><path d="m9.9484 6.7298h1v1h-1z"/><path d="m5.2668 9.6558h1v1h-1z"/><path d="m5.5594.2926h1v1h-1z"/><path d="m1.1704 5.5594h1v1h-1z"/><path d="m2.3408 1.7556h1v1h-1z"/><path d="m8.778 12.5818h1v1h-1z"/><path d="m4.9742 11.704h1v1h-1z"/></g></g><g transform="translate(15.3 63.1)"><path d="m15.9636708.9266642c-1.084501-.80809618-2.4657214-1.10715394-3.7873568-.82002727-1.3216354.28712666-2.45426584 1.13232113-3.105714 2.31755407-.74210491-1.35009251-2.10146011-2.24815181-3.63445534-2.40110637-1.53299523-.15295455-3.04299357.45881508-4.03722406 1.63566477-1.9402306 2.2913506-1.1750816 6.1881974.684684 8.630237 1.70956305 2.2467561 4.39525218 3.5343446 7.21749048 3.4602506 2.82223832-.0740939 5.43666662-1.5008297 7.02598492-3.8341934 1.0495132-1.54613338 1.5858244-3.38334984 1.5329314-5.2512922-.0314458-1.4691258-.7292314-2.8442403-1.8963406-3.7370872z" fill="#dd8856"/><path d="m9.06465191 7.0224c-1.75055957 1.17658787-2.62637687 2.24945454-2.62745191 3.2186 0 1.7556 1.71288103 2.0482 2.63340063 2.0482s2.63510097-.6252138 2.63340067-2.0482c-.0011353-.9486575-.8809184-2.02152417-2.63934939-3.2186z" fill="#fff"/><path d="m6.7221924 7.63686.0544236-.0637868c.4874716-.5696922.9913288-1.158696 1.1010538-2.0221586.05174162-.40194927.0429637-.80938274-.0260414-1.2087306-.2732884-1.5706768-1.4027244-2.58658459-2.8774284-2.58658459-.78649434-.0005007-1.53898063.32066442-2.0827268.88891939-.55743438.57620728-.85919646 1.35270937-.8371286 2.1541212.0532532 1.6921058.9726024 3.345881 1.6441194 4.5537338.13934013.25050826.39221793.41720006.677369.4465076.02916013.00303591.05846247.00450102.08778.00439497.25579833 0 .49888449-.11152922.665665-.30548037.53272707-.61816627 1.06369853-1.23847827 1.5929144-1.860936z" fill="#fff"/><path d="m13.167 1.75559024c-.8236485.00068442-1.6089554.34809296-2.1634844.95710436-.4057678.45756981-.6634468 1.02729942-.7391076 1.634171-.0439461.31382901-.0537567.63149605-.02926.9474388.076076 1.0755976.6981436 1.7872008 1.3000218 2.4751034l1.5534134 1.8044642c.167249.1955373.4118696.30784668.6691762.30723253h.0400862c.2644958-.01048615.5093172-.14256227.6633242-.35785233 1.0079911-1.38563925 1.5749336-3.04292634 1.626856-4.7556278.00543-.80671368-.3089317-1.58272839-.8742888-2.1582176-.5397877-.5480844-1.2774755-.85581465-2.046737-.85381656z" fill="#fff"/><g fill="#d8d0d0"><path d="m12.8744.8778h1v1h-1z"/><path d="m12.8744 10.5336h1v1h-1z"/><path d="m16.3856 5.5594h1v1h-1z"/><path d="m8.1928 6.1446h1v1h-1z"/><path d="m9.3632 3.2186h1v1h-1z"/><path d="m9.9484 6.7298h1v1h-1z"/><path d="m5.2668 9.6558h1v1h-1z"/><path d="m5.5594.2926h1v1h-1z"/><path d="m1.1704 5.5594h1v1h-1z"/><path d="m2.3408 1.7556h1v1h-1z"/><path d="m8.778 12.5818h1v1h-1z"/><path d="m4.9742 11.704h1v1h-1z"/></g></g><g transform="translate(26.7 51.7)"><path d="m15.9636708.9266642c-1.084501-.80809618-2.4657214-1.10715394-3.7873568-.82002727-1.3216354.28712666-2.45426584 1.13232113-3.105714 2.31755407-.74210491-1.35009251-2.10146011-2.24815181-3.63445534-2.40110637-1.53299523-.15295455-3.04299357.45881508-4.03722406 1.63566477-1.9402306 2.2913506-1.1750816 6.1881974.684684 8.630237 1.70956305 2.2467561 4.39525218 3.5343446 7.21749048 3.4602506 2.82223832-.0740939 5.43666662-1.5008297 7.02598492-3.8341934 1.0495132-1.54613338 1.5858244-3.38334984 1.5329314-5.2512922-.0314458-1.4691258-.7292314-2.8442403-1.8963406-3.7370872z" fill="#dd8856"/><path d="m9.06465191 7.0224c-1.75055957 1.17658787-2.62637687 2.24945454-2.62745191 3.2186 0 1.7556 1.71288103 2.0482 2.63340063 2.0482s2.63510097-.6252138 2.63340067-2.0482c-.0011353-.9486575-.8809184-2.02152417-2.63934939-3.2186z" fill="#fff"/><path d="m6.7221924 7.63686.0544236-.0637868c.4874716-.5696922.9913288-1.158696 1.1010538-2.0221586.05174162-.40194927.0429637-.80938274-.0260414-1.2087306-.2732884-1.5706768-1.4027244-2.58658459-2.8774284-2.58658459-.78649434-.0005007-1.53898063.32066442-2.0827268.88891939-.55743438.57620728-.85919646 1.35270937-.8371286 2.1541212.0532532 1.6921058.9726024 3.345881 1.6441194 4.5537338.13934013.25050826.39221793.41720006.677369.4465076.02916013.00303591.05846247.00450102.08778.00439497.25579833 0 .49888449-.11152922.665665-.30548037.53272707-.61816627 1.06369853-1.23847827 1.5929144-1.860936z" fill="#fff"/><path d="m13.167 1.75559024c-.8236485.00068442-1.6089554.34809296-2.1634844.95710436-.4057678.45756981-.6634468 1.02729942-.7391076 1.634171-.0439461.31382901-.0537567.63149605-.02926.9474388.076076 1.0755976.6981436 1.7872008 1.3000218 2.4751034l1.5534134 1.8044642c.167249.1955373.4118696.30784668.6691762.30723253h.0400862c.2644958-.01048615.5093172-.14256227.6633242-.35785233 1.0079911-1.38563925 1.5749336-3.04292634 1.626856-4.7556278.00543-.80671368-.3089317-1.58272839-.8742888-2.1582176-.5397877-.5480844-1.2774755-.85581465-2.046737-.85381656z" fill="#fff"/><g fill="#d8d0d0"><path d="m12.8744.8778h1v1h-1z"/><path d="m12.8744 10.5336h1v1h-1z"/><path d="m16.3856 5.5594h1v1h-1z"/><path d="m8.1928 6.1446h1v1h-1z"/><path d="m9.3632 3.2186h1v1h-1z"/><path d="m9.9484 6.7298h1v1h-1z"/><path d="m5.2668 9.6558h1v1h-1z"/><path d="m5.5594.2926h1v1h-1z"/><path d="m1.1704 5.5594h1v1h-1z"/><path d="m2.3408 1.7556h1v1h-1z"/><path d="m8.778 12.5818h1v1h-1z"/><path d="m4.9742 11.704h1v1h-1z"/></g></g><g transform="translate(41.9 .4)"><path d="m15.9636708.9266642c-1.084501-.80809618-2.4657214-1.10715394-3.7873568-.82002727-1.3216354.28712666-2.45426584 1.13232113-3.105714 2.31755407-.74210491-1.35009251-2.10146011-2.24815181-3.63445534-2.40110637-1.53299523-.15295455-3.04299357.45881508-4.03722406 1.63566477-1.9402306 2.2913506-1.1750816 6.1881974.684684 8.630237 1.70956305 2.2467561 4.39525218 3.5343446 7.21749048 3.4602506 2.82223832-.0740939 5.43666662-1.5008297 7.02598492-3.8341934 1.0495132-1.54613338 1.5858244-3.38334984 1.5329314-5.2512922-.0314458-1.4691258-.7292314-2.8442403-1.8963406-3.7370872z" fill="#dd8856"/><path d="m9.06465191 7.0224c-1.75055957 1.17658787-2.62637687 2.24945454-2.62745191 3.2186 0 1.7556 1.71288103 2.0482 2.63340063 2.0482s2.63510097-.6252138 2.63340067-2.0482c-.0011353-.9486575-.8809184-2.02152417-2.63934939-3.2186z" fill="#fff"/><path d="m6.7221924 7.63686.0544236-.0637868c.4874716-.5696922.9913288-1.158696 1.1010538-2.0221586.05174162-.40194927.0429637-.80938274-.0260414-1.2087306-.2732884-1.5706768-1.4027244-2.58658459-2.8774284-2.58658459-.78649434-.0005007-1.53898063.32066442-2.0827268.88891939-.55743438.57620728-.85919646 1.35270937-.8371286 2.1541212.0532532 1.6921058.9726024 3.345881 1.6441194 4.5537338.13934013.25050826.39221793.41720006.677369.4465076.02916013.00303591.05846247.00450102.08778.00439497.25579833 0 .49888449-.11152922.665665-.30548037.53272707-.61816627 1.06369853-1.23847827 1.5929144-1.860936z" fill="#fff"/><path d="m13.167 1.75559024c-.8236485.00068442-1.6089554.34809296-2.1634844.95710436-.4057678.45756981-.6634468 1.02729942-.7391076 1.634171-.0439461.31382901-.0537567.63149605-.02926.9474388.076076 1.0755976.6981436 1.7872008 1.3000218 2.4751034l1.5534134 1.8044642c.167249.1955373.4118696.30784668.6691762.30723253h.0400862c.2644958-.01048615.5093172-.14256227.6633242-.35785233 1.0079911-1.38563925 1.5749336-3.04292634 1.626856-4.7556278.00543-.80671368-.3089317-1.58272839-.8742888-2.1582176-.5397877-.5480844-1.2774755-.85581465-2.046737-.85381656z" fill="#fff"/><g fill="#d8d0d0"><path d="m12.8744.8778h1v1h-1z"/><path d="m12.8744 10.5336h1v1h-1z"/><path d="m16.3856 5.5594h1v1h-1z"/><path d="m8.1928 6.1446h1v1h-1z"/><path d="m9.3632 3.2186h1v1h-1z"/><path d="m9.9484 6.7298h1v1h-1z"/><path d="m5.2668 9.6558h1v1h-1z"/><path d="m5.5594.2926h1v1h-1z"/><path d="m1.1704 5.5594h1v1h-1z"/><path d="m2.3408 1.7556h1v1h-1z"/><path d="m8.778 12.5818h1v1h-1z"/><path d="m4.9742 11.704h1v1h-1z"/></g></g><g transform="translate(32.4 .4)"><path d="m15.9636708.9266642c-1.084501-.80809618-2.4657214-1.10715394-3.7873568-.82002727-1.3216354.28712666-2.45426584 1.13232113-3.105714 2.31755407-.74210491-1.35009251-2.10146011-2.24815181-3.63445534-2.40110637-1.53299523-.15295455-3.04299357.45881508-4.03722406 1.63566477-1.9402306 2.2913506-1.1750816 6.1881974.684684 8.630237 1.70956305 2.2467561 4.39525218 3.5343446 7.21749048 3.4602506 2.82223832-.0740939 5.43666662-1.5008297 7.02598492-3.8341934 1.0495132-1.54613338 1.5858244-3.38334984 1.5329314-5.2512922-.0314458-1.4691258-.7292314-2.8442403-1.8963406-3.7370872z" fill="#dd8856"/><path d="m9.06465191 7.0224c-1.75055957 1.17658787-2.62637687 2.24945454-2.62745191 3.2186 0 1.7556 1.71288103 2.0482 2.63340063 2.0482s2.63510097-.6252138 2.63340067-2.0482c-.0011353-.9486575-.8809184-2.02152417-2.63934939-3.2186z" fill="#fff"/><path d="m6.7221924 7.63686.0544236-.0637868c.4874716-.5696922.9913288-1.158696 1.1010538-2.0221586.05174162-.40194927.0429637-.80938274-.0260414-1.2087306-.2732884-1.5706768-1.4027244-2.58658459-2.8774284-2.58658459-.78649434-.0005007-1.53898063.32066442-2.0827268.88891939-.55743438.57620728-.85919646 1.35270937-.8371286 2.1541212.0532532 1.6921058.9726024 3.345881 1.6441194 4.5537338.13934013.25050826.39221793.41720006.677369.4465076.02916013.00303591.05846247.00450102.08778.00439497.25579833 0 .49888449-.11152922.665665-.30548037.53272707-.61816627 1.06369853-1.23847827 1.5929144-1.860936z" fill="#fff"/><path d="m13.167 1.75559024c-.8236485.00068442-1.6089554.34809296-2.1634844.95710436-.4057678.45756981-.6634468 1.02729942-.7391076 1.634171-.0439461.31382901-.0537567.63149605-.02926.9474388.076076 1.0755976.6981436 1.7872008 1.3000218 2.4751034l1.5534134 1.8044642c.167249.1955373.4118696.30784668.6691762.30723253h.0400862c.2644958-.01048615.5093172-.14256227.6633242-.35785233 1.0079911-1.38563925 1.5749336-3.04292634 1.626856-4.7556278.00543-.80671368-.3089317-1.58272839-.8742888-2.1582176-.5397877-.5480844-1.2774755-.85581465-2.046737-.85381656z" fill="#fff"/><g fill="#d8d0d0"><path d="m12.8744.8778h1v1h-1z"/><path d="m12.8744 10.5336h1v1h-1z"/><path d="m16.3856 5.5594h1v1h-1z"/><path d="m8.1928 6.1446h1v1h-1z"/><path d="m9.3632 3.2186h1v1h-1z"/><path d="m9.9484 6.7298h1v1h-1z"/><path d="m5.2668 9.6558h1v1h-1z"/><path d="m5.5594.2926h1v1h-1z"/><path d="m1.1704 5.5594h1v1h-1z"/><path d="m2.3408 1.7556h1v1h-1z"/><path d="m8.778 12.5818h1v1h-1z"/><path d="m4.9742 11.704h1v1h-1z"/></g></g><g transform="translate(17.2 2.3)"><path d="m15.9636708.9266642c-1.084501-.80809618-2.4657214-1.10715394-3.7873568-.82002727-1.3216354.28712666-2.45426584 1.13232113-3.105714 2.31755407-.74210491-1.35009251-2.10146011-2.24815181-3.63445534-2.40110637-1.53299523-.15295455-3.04299357.45881508-4.03722406 1.63566477-1.9402306 2.2913506-1.1750816 6.1881974.684684 8.630237 1.70956305 2.2467561 4.39525218 3.5343446 7.21749048 3.4602506 2.82223832-.0740939 5.43666662-1.5008297 7.02598492-3.8341934 1.0495132-1.54613338 1.5858244-3.38334984 1.5329314-5.2512922-.0314458-1.4691258-.7292314-2.8442403-1.8963406-3.7370872z" fill="#dd8856"/><path d="m9.06465191 7.0224c-1.75055957 1.17658787-2.62637687 2.24945454-2.62745191 3.2186 0 1.7556 1.71288103 2.0482 2.63340063 2.0482s2.63510097-.6252138 2.63340067-2.0482c-.0011353-.9486575-.8809184-2.02152417-2.63934939-3.2186z" fill="#fff"/><path d="m6.7221924 7.63686.0544236-.0637868c.4874716-.5696922.9913288-1.158696 1.1010538-2.0221586.05174162-.40194927.0429637-.80938274-.0260414-1.2087306-.2732884-1.5706768-1.4027244-2.58658459-2.8774284-2.58658459-.78649434-.0005007-1.53898063.32066442-2.0827268.88891939-.55743438.57620728-.85919646 1.35270937-.8371286 2.1541212.0532532 1.6921058.9726024 3.345881 1.6441194 4.5537338.13934013.25050826.39221793.41720006.677369.4465076.02916013.00303591.05846247.00450102.08778.00439497.25579833 0 .49888449-.11152922.665665-.30548037.53272707-.61816627 1.06369853-1.23847827 1.5929144-1.860936z" fill="#fff"/><path d="m13.167 1.75559024c-.8236485.00068442-1.6089554.34809296-2.1634844.95710436-.4057678.45756981-.6634468 1.02729942-.7391076 1.634171-.0439461.31382901-.0537567.63149605-.02926.9474388.076076 1.0755976.6981436 1.7872008 1.3000218 2.4751034l1.5534134 1.8044642c.167249.1955373.4118696.30784668.6691762.30723253h.0400862c.2644958-.01048615.5093172-.14256227.6633242-.35785233 1.0079911-1.38563925 1.5749336-3.04292634 1.626856-4.7556278.00543-.80671368-.3089317-1.58272839-.8742888-2.1582176-.5397877-.5480844-1.2774755-.85581465-2.046737-.85381656z" fill="#fff"/><g fill="#d8d0d0"><path d="m12.8744.8778h1v1h-1z"/><path d="m12.8744 10.5336h1v1h-1z"/><path d="m16.3856 5.5594h1v1h-1z"/><path d="m8.1928 6.1446h1v1h-1z"/><path d="m9.3632 3.2186h1v1h-1z"/><path d="m9.9484 6.7298h1v1h-1z"/><path d="m5.2668 9.6558h1v1h-1z"/><path d="m5.5594.2926h1v1h-1z"/><path d="m1.1704 5.5594h1v1h-1z"/><path d="m2.3408 1.7556h1v1h-1z"/><path d="m8.778 12.5818h1v1h-1z"/><path d="m4.9742 11.704h1v1h-1z"/></g></g><g transform="translate(.1 2.3)"><path d="m15.9636708.9266642c-1.084501-.80809618-2.4657214-1.10715394-3.7873568-.82002727-1.3216354.28712666-2.45426584 1.13232113-3.105714 2.31755407-.74210491-1.35009251-2.10146011-2.24815181-3.63445534-2.40110637-1.53299523-.15295455-3.04299357.45881508-4.03722406 1.63566477-1.9402306 2.2913506-1.1750816 6.1881974.684684 8.630237 1.70956305 2.2467561 4.39525218 3.5343446 7.21749048 3.4602506 2.82223832-.0740939 5.43666662-1.5008297 7.02598492-3.8341934 1.0495132-1.54613338 1.5858244-3.38334984 1.5329314-5.2512922-.0314458-1.4691258-.7292314-2.8442403-1.8963406-3.7370872z" fill="#dd8856"/><path d="m9.06465191 7.0224c-1.75055957 1.17658787-2.62637687 2.24945454-2.62745191 3.2186 0 1.7556 1.71288103 2.0482 2.63340063 2.0482s2.63510097-.6252138 2.63340067-2.0482c-.0011353-.9486575-.8809184-2.02152417-2.63934939-3.2186z" fill="#fff"/><path d="m6.7221924 7.63686.0544236-.0637868c.4874716-.5696922.9913288-1.158696 1.1010538-2.0221586.05174162-.40194927.0429637-.80938274-.0260414-1.2087306-.2732884-1.5706768-1.4027244-2.58658459-2.8774284-2.58658459-.78649434-.0005007-1.53898063.32066442-2.0827268.88891939-.55743438.57620728-.85919646 1.35270937-.8371286 2.1541212.0532532 1.6921058.9726024 3.345881 1.6441194 4.5537338.13934013.25050826.39221793.41720006.677369.4465076.02916013.00303591.05846247.00450102.08778.00439497.25579833 0 .49888449-.11152922.665665-.30548037.53272707-.61816627 1.06369853-1.23847827 1.5929144-1.860936z" fill="#fff"/><path d="m13.167 1.75559024c-.8236485.00068442-1.6089554.34809296-2.1634844.95710436-.4057678.45756981-.6634468 1.02729942-.7391076 1.634171-.0439461.31382901-.0537567.63149605-.02926.9474388.076076 1.0755976.6981436 1.7872008 1.3000218 2.4751034l1.5534134 1.8044642c.167249.1955373.4118696.30784668.6691762.30723253h.0400862c.2644958-.01048615.5093172-.14256227.6633242-.35785233 1.0079911-1.38563925 1.5749336-3.04292634 1.626856-4.7556278.00543-.80671368-.3089317-1.58272839-.8742888-2.1582176-.5397877-.5480844-1.2774755-.85581465-2.046737-.85381656z" fill="#fff"/><g fill="#d8d0d0"><path d="m12.8744.8778h1v1h-1z"/><path d="m12.8744 10.5336h1v1h-1z"/><path d="m16.3856 5.5594h1v1h-1z"/><path d="m8.1928 6.1446h1v1h-1z"/><path d="m9.3632 3.2186h1v1h-1z"/><path d="m9.9484 6.7298h1v1h-1z"/><path d="m5.2668 9.6558h1v1h-1z"/><path d="m5.5594.2926h1v1h-1z"/><path d="m1.1704 5.5594h1v1h-1z"/><path d="m2.3408 1.7556h1v1h-1z"/><path d="m8.778 12.5818h1v1h-1z"/><path d="m4.9742 11.704h1v1h-1z"/></g></g><g transform="translate(41.9 11.8)"><path d="m15.9636708.9266642c-1.084501-.80809618-2.4657214-1.10715394-3.7873568-.82002727-1.3216354.28712666-2.45426584 1.13232113-3.105714 2.31755407-.74210491-1.35009251-2.10146011-2.24815181-3.63445534-2.40110637-1.53299523-.15295455-3.04299357.45881508-4.03722406 1.63566477-1.9402306 2.2913506-1.1750816 6.1881974.684684 8.630237 1.70956305 2.2467561 4.39525218 3.5343446 7.21749048 3.4602506 2.82223832-.0740939 5.43666662-1.5008297 7.02598492-3.8341934 1.0495132-1.54613338 1.5858244-3.38334984 1.5329314-5.2512922-.0314458-1.4691258-.7292314-2.8442403-1.8963406-3.7370872z" fill="#dd8856"/><path d="m9.06465191 7.0224c-1.75055957 1.17658787-2.62637687 2.24945454-2.62745191 3.2186 0 1.7556 1.71288103 2.0482 2.63340063 2.0482s2.63510097-.6252138 2.63340067-2.0482c-.0011353-.9486575-.8809184-2.02152417-2.63934939-3.2186z" fill="#fff"/><path d="m6.7221924 7.63686.0544236-.0637868c.4874716-.5696922.9913288-1.158696 1.1010538-2.0221586.05174162-.40194927.0429637-.80938274-.0260414-1.2087306-.2732884-1.5706768-1.4027244-2.58658459-2.8774284-2.58658459-.78649434-.0005007-1.53898063.32066442-2.0827268.88891939-.55743438.57620728-.85919646 1.35270937-.8371286 2.1541212.0532532 1.6921058.9726024 3.345881 1.6441194 4.5537338.13934013.25050826.39221793.41720006.677369.4465076.02916013.00303591.05846247.00450102.08778.00439497.25579833 0 .49888449-.11152922.665665-.30548037.53272707-.61816627 1.06369853-1.23847827 1.5929144-1.860936z" fill="#fff"/><path d="m13.167 1.75559024c-.8236485.00068442-1.6089554.34809296-2.1634844.95710436-.4057678.45756981-.6634468 1.02729942-.7391076 1.634171-.0439461.31382901-.0537567.63149605-.02926.9474388.076076 1.0755976.6981436 1.7872008 1.3000218 2.4751034l1.5534134 1.8044642c.167249.1955373.4118696.30784668.6691762.30723253h.0400862c.2644958-.01048615.5093172-.14256227.6633242-.35785233 1.0079911-1.38563925 1.5749336-3.04292634 1.626856-4.7556278.00543-.80671368-.3089317-1.58272839-.8742888-2.1582176-.5397877-.5480844-1.2774755-.85581465-2.046737-.85381656z" fill="#fff"/><g fill="#d8d0d0"><path d="m12.8744.8778h1v1h-1z"/><path d="m12.8744 10.5336h1v1h-1z"/><path d="m16.3856 5.5594h1v1h-1z"/><path d="m8.1928 6.1446h1v1h-1z"/><path d="m9.3632 3.2186h1v1h-1z"/><path d="m9.9484 6.7298h1v1h-1z"/><path d="m5.2668 9.6558h1v1h-1z"/><path d="m5.5594.2926h1v1h-1z"/><path d="m1.1704 5.5594h1v1h-1z"/><path d="m2.3408 1.7556h1v1h-1z"/><path d="m8.778 12.5818h1v1h-1z"/><path d="m4.9742 11.704h1v1h-1z"/></g></g><g transform="translate(34.3 15.6)"><path d="m15.9636708.9266642c-1.084501-.80809618-2.4657214-1.10715394-3.7873568-.82002727-1.3216354.28712666-2.45426584 1.13232113-3.105714 2.31755407-.74210491-1.35009251-2.10146011-2.24815181-3.63445534-2.40110637-1.53299523-.15295455-3.04299357.45881508-4.03722406 1.63566477-1.9402306 2.2913506-1.1750816 6.1881974.684684 8.630237 1.70956305 2.2467561 4.39525218 3.5343446 7.21749048 3.4602506 2.82223832-.0740939 5.43666662-1.5008297 7.02598492-3.8341934 1.0495132-1.54613338 1.5858244-3.38334984 1.5329314-5.2512922-.0314458-1.4691258-.7292314-2.8442403-1.8963406-3.7370872z" fill="#dd8856"/><path d="m9.06465191 7.0224c-1.75055957 1.17658787-2.62637687 2.24945454-2.62745191 3.2186 0 1.7556 1.71288103 2.0482 2.63340063 2.0482s2.63510097-.6252138 2.63340067-2.0482c-.0011353-.9486575-.8809184-2.02152417-2.63934939-3.2186z" fill="#fff"/><path d="m6.7221924 7.63686.0544236-.0637868c.4874716-.5696922.9913288-1.158696 1.1010538-2.0221586.05174162-.40194927.0429637-.80938274-.0260414-1.2087306-.2732884-1.5706768-1.4027244-2.58658459-2.8774284-2.58658459-.78649434-.0005007-1.53898063.32066442-2.0827268.88891939-.55743438.57620728-.85919646 1.35270937-.8371286 2.1541212.0532532 1.6921058.9726024 3.345881 1.6441194 4.5537338.13934013.25050826.39221793.41720006.677369.4465076.02916013.00303591.05846247.00450102.08778.00439497.25579833 0 .49888449-.11152922.665665-.30548037.53272707-.61816627 1.06369853-1.23847827 1.5929144-1.860936z" fill="#fff"/><path d="m13.167 1.75559024c-.8236485.00068442-1.6089554.34809296-2.1634844.95710436-.4057678.45756981-.6634468 1.02729942-.7391076 1.634171-.0439461.31382901-.0537567.63149605-.02926.9474388.076076 1.0755976.6981436 1.7872008 1.3000218 2.4751034l1.5534134 1.8044642c.167249.1955373.4118696.30784668.6691762.30723253h.0400862c.2644958-.01048615.5093172-.14256227.6633242-.35785233 1.0079911-1.38563925 1.5749336-3.04292634 1.626856-4.7556278.00543-.80671368-.3089317-1.58272839-.8742888-2.1582176-.5397877-.5480844-1.2774755-.85581465-2.046737-.85381656z" fill="#fff"/><g fill="#d8d0d0"><path d="m12.8744.8778h1v1h-1z"/><path d="m12.8744 10.5336h1v1h-1z"/><path d="m16.3856 5.5594h1v1h-1z"/><path d="m8.1928 6.1446h1v1h-1z"/><path d="m9.3632 3.2186h1v1h-1z"/><path d="m9.9484 6.7298h1v1h-1z"/><path d="m5.2668 9.6558h1v1h-1z"/><path d="m5.5594.2926h1v1h-1z"/><path d="m1.1704 5.5594h1v1h-1z"/><path d="m2.3408 1.7556h1v1h-1z"/><path d="m8.778 12.5818h1v1h-1z"/><path d="m4.9742 11.704h1v1h-1z"/></g></g><g transform="translate(26.7 8)"><path d="m15.9636708.9266642c-1.084501-.80809618-2.4657214-1.10715394-3.7873568-.82002727-1.3216354.28712666-2.45426584 1.13232113-3.105714 2.31755407-.74210491-1.35009251-2.10146011-2.24815181-3.63445534-2.40110637-1.53299523-.15295455-3.04299357.45881508-4.03722406 1.63566477-1.9402306 2.2913506-1.1750816 6.1881974.684684 8.630237 1.70956305 2.2467561 4.39525218 3.5343446 7.21749048 3.4602506 2.82223832-.0740939 5.43666662-1.5008297 7.02598492-3.8341934 1.0495132-1.54613338 1.5858244-3.38334984 1.5329314-5.2512922-.0314458-1.4691258-.7292314-2.8442403-1.8963406-3.7370872z" fill="#dd8856"/><path d="m9.06465191 7.0224c-1.75055957 1.17658787-2.62637687 2.24945454-2.62745191 3.2186 0 1.7556 1.71288103 2.0482 2.63340063 2.0482s2.63510097-.6252138 2.63340067-2.0482c-.0011353-.9486575-.8809184-2.02152417-2.63934939-3.2186z" fill="#fff"/><path d="m6.7221924 7.63686.0544236-.0637868c.4874716-.5696922.9913288-1.158696 1.1010538-2.0221586.05174162-.40194927.0429637-.80938274-.0260414-1.2087306-.2732884-1.5706768-1.4027244-2.58658459-2.8774284-2.58658459-.78649434-.0005007-1.53898063.32066442-2.0827268.88891939-.55743438.57620728-.85919646 1.35270937-.8371286 2.1541212.0532532 1.6921058.9726024 3.345881 1.6441194 4.5537338.13934013.25050826.39221793.41720006.677369.4465076.02916013.00303591.05846247.00450102.08778.00439497.25579833 0 .49888449-.11152922.665665-.30548037.53272707-.61816627 1.06369853-1.23847827 1.5929144-1.860936z" fill="#fff"/><path d="m13.167 1.75559024c-.8236485.00068442-1.6089554.34809296-2.1634844.95710436-.4057678.45756981-.6634468 1.02729942-.7391076 1.634171-.0439461.31382901-.0537567.63149605-.02926.9474388.076076 1.0755976.6981436 1.7872008 1.3000218 2.4751034l1.5534134 1.8044642c.167249.1955373.4118696.30784668.6691762.30723253h.0400862c.2644958-.01048615.5093172-.14256227.6633242-.35785233 1.0079911-1.38563925 1.5749336-3.04292634 1.626856-4.7556278.00543-.80671368-.3089317-1.58272839-.8742888-2.1582176-.5397877-.5480844-1.2774755-.85581465-2.046737-.85381656z" fill="#fff"/><g fill="#d8d0d0"><path d="m12.8744.8778h1v1h-1z"/><path d="m12.8744 10.5336h1v1h-1z"/><path d="m16.3856 5.5594h1v1h-1z"/><path d="m8.1928 6.1446h1v1h-1z"/><path d="m9.3632 3.2186h1v1h-1z"/><path d="m9.9484 6.7298h1v1h-1z"/><path d="m5.2668 9.6558h1v1h-1z"/><path d="m5.5594.2926h1v1h-1z"/><path d="m1.1704 5.5594h1v1h-1z"/><path d="m2.3408 1.7556h1v1h-1z"/><path d="m8.778 12.5818h1v1h-1z"/><path d="m4.9742 11.704h1v1h-1z"/></g></g><g transform="translate(9.6 8)"><path d="m15.9636708.9266642c-1.084501-.80809618-2.4657214-1.10715394-3.7873568-.82002727-1.3216354.28712666-2.45426584 1.13232113-3.105714 2.31755407-.74210491-1.35009251-2.10146011-2.24815181-3.63445534-2.40110637-1.53299523-.15295455-3.04299357.45881508-4.03722406 1.63566477-1.9402306 2.2913506-1.1750816 6.1881974.684684 8.630237 1.70956305 2.2467561 4.39525218 3.5343446 7.21749048 3.4602506 2.82223832-.0740939 5.43666662-1.5008297 7.02598492-3.8341934 1.0495132-1.54613338 1.5858244-3.38334984 1.5329314-5.2512922-.0314458-1.4691258-.7292314-2.8442403-1.8963406-3.7370872z" fill="#dd8856"/><path d="m9.06465191 7.0224c-1.75055957 1.17658787-2.62637687 2.24945454-2.62745191 3.2186 0 1.7556 1.71288103 2.0482 2.63340063 2.0482s2.63510097-.6252138 2.63340067-2.0482c-.0011353-.9486575-.8809184-2.02152417-2.63934939-3.2186z" fill="#fff"/><path d="m6.7221924 7.63686.0544236-.0637868c.4874716-.5696922.9913288-1.158696 1.1010538-2.0221586.05174162-.40194927.0429637-.80938274-.0260414-1.2087306-.2732884-1.5706768-1.4027244-2.58658459-2.8774284-2.58658459-.78649434-.0005007-1.53898063.32066442-2.0827268.88891939-.55743438.57620728-.85919646 1.35270937-.8371286 2.1541212.0532532 1.6921058.9726024 3.345881 1.6441194 4.5537338.13934013.25050826.39221793.41720006.677369.4465076.02916013.00303591.05846247.00450102.08778.00439497.25579833 0 .49888449-.11152922.665665-.30548037.53272707-.61816627 1.06369853-1.23847827 1.5929144-1.860936z" fill="#fff"/><path d="m13.167 1.75559024c-.8236485.00068442-1.6089554.34809296-2.1634844.95710436-.4057678.45756981-.6634468 1.02729942-.7391076 1.634171-.0439461.31382901-.0537567.63149605-.02926.9474388.076076 1.0755976.6981436 1.7872008 1.3000218 2.4751034l1.5534134 1.8044642c.167249.1955373.4118696.30784668.6691762.30723253h.0400862c.2644958-.01048615.5093172-.14256227.6633242-.35785233 1.0079911-1.38563925 1.5749336-3.04292634 1.626856-4.7556278.00543-.80671368-.3089317-1.58272839-.8742888-2.1582176-.5397877-.5480844-1.2774755-.85581465-2.046737-.85381656z" fill="#fff"/><g fill="#d8d0d0"><path d="m12.8744.8778h1v1h-1z"/><path d="m12.8744 10.5336h1v1h-1z"/><path d="m16.3856 5.5594h1v1h-1z"/><path d="m8.1928 6.1446h1v1h-1z"/><path d="m9.3632 3.2186h1v1h-1z"/><path d="m9.9484 6.7298h1v1h-1z"/><path d="m5.2668 9.6558h1v1h-1z"/><path d="m5.5594.2926h1v1h-1z"/><path d="m1.1704 5.5594h1v1h-1z"/><path d="m2.3408 1.7556h1v1h-1z"/><path d="m8.778 12.5818h1v1h-1z"/><path d="m4.9742 11.704h1v1h-1z"/></g></g><g transform="translate(19.1 15.6)"><path d="m15.9636708.9266642c-1.084501-.80809618-2.4657214-1.10715394-3.7873568-.82002727-1.3216354.28712666-2.45426584 1.13232113-3.105714 2.31755407-.74210491-1.35009251-2.10146011-2.24815181-3.63445534-2.40110637-1.53299523-.15295455-3.04299357.45881508-4.03722406 1.63566477-1.9402306 2.2913506-1.1750816 6.1881974.684684 8.630237 1.70956305 2.2467561 4.39525218 3.5343446 7.21749048 3.4602506 2.82223832-.0740939 5.43666662-1.5008297 7.02598492-3.8341934 1.0495132-1.54613338 1.5858244-3.38334984 1.5329314-5.2512922-.0314458-1.4691258-.7292314-2.8442403-1.8963406-3.7370872z" fill="#dd8856"/><path d="m9.06465191 7.0224c-1.75055957 1.17658787-2.62637687 2.24945454-2.62745191 3.2186 0 1.7556 1.71288103 2.0482 2.63340063 2.0482s2.63510097-.6252138 2.63340067-2.0482c-.0011353-.9486575-.8809184-2.02152417-2.63934939-3.2186z" fill="#fff"/><path d="m6.7221924 7.63686.0544236-.0637868c.4874716-.5696922.9913288-1.158696 1.1010538-2.0221586.05174162-.40194927.0429637-.80938274-.0260414-1.2087306-.2732884-1.5706768-1.4027244-2.58658459-2.8774284-2.58658459-.78649434-.0005007-1.53898063.32066442-2.0827268.88891939-.55743438.57620728-.85919646 1.35270937-.8371286 2.1541212.0532532 1.6921058.9726024 3.345881 1.6441194 4.5537338.13934013.25050826.39221793.41720006.677369.4465076.02916013.00303591.05846247.00450102.08778.00439497.25579833 0 .49888449-.11152922.665665-.30548037.53272707-.61816627 1.06369853-1.23847827 1.5929144-1.860936z" fill="#fff"/><path d="m13.167 1.75559024c-.8236485.00068442-1.6089554.34809296-2.1634844.95710436-.4057678.45756981-.6634468 1.02729942-.7391076 1.634171-.0439461.31382901-.0537567.63149605-.02926.9474388.076076 1.0755976.6981436 1.7872008 1.3000218 2.4751034l1.5534134 1.8044642c.167249.1955373.4118696.30784668.6691762.30723253h.0400862c.2644958-.01048615.5093172-.14256227.6633242-.35785233 1.0079911-1.38563925 1.5749336-3.04292634 1.626856-4.7556278.00543-.80671368-.3089317-1.58272839-.8742888-2.1582176-.5397877-.5480844-1.2774755-.85581465-2.046737-.85381656z" fill="#fff"/><g fill="#d8d0d0"><path d="m12.8744.8778h1v1h-1z"/><path d="m12.8744 10.5336h1v1h-1z"/><path d="m16.3856 5.5594h1v1h-1z"/><path d="m8.1928 6.1446h1v1h-1z"/><path d="m9.3632 3.2186h1v1h-1z"/><path d="m9.9484 6.7298h1v1h-1z"/><path d="m5.2668 9.6558h1v1h-1z"/><path d="m5.5594.2926h1v1h-1z"/><path d="m1.1704 5.5594h1v1h-1z"/><path d="m2.3408 1.7556h1v1h-1z"/><path d="m8.778 12.5818h1v1h-1z"/><path d="m4.9742 11.704h1v1h-1z"/></g></g><g transform="translate(.1 11.8)"><path d="m15.9636708.9266642c-1.084501-.80809618-2.4657214-1.10715394-3.7873568-.82002727-1.3216354.28712666-2.45426584 1.13232113-3.105714 2.31755407-.74210491-1.35009251-2.10146011-2.24815181-3.63445534-2.40110637-1.53299523-.15295455-3.04299357.45881508-4.03722406 1.63566477-1.9402306 2.2913506-1.1750816 6.1881974.684684 8.630237 1.70956305 2.2467561 4.39525218 3.5343446 7.21749048 3.4602506 2.82223832-.0740939 5.43666662-1.5008297 7.02598492-3.8341934 1.0495132-1.54613338 1.5858244-3.38334984 1.5329314-5.2512922-.0314458-1.4691258-.7292314-2.8442403-1.8963406-3.7370872z" fill="#dd8856"/><path d="m9.06465191 7.0224c-1.75055957 1.17658787-2.62637687 2.24945454-2.62745191 3.2186 0 1.7556 1.71288103 2.0482 2.63340063 2.0482s2.63510097-.6252138 2.63340067-2.0482c-.0011353-.9486575-.8809184-2.02152417-2.63934939-3.2186z" fill="#fff"/><path d="m6.7221924 7.63686.0544236-.0637868c.4874716-.5696922.9913288-1.158696 1.1010538-2.0221586.05174162-.40194927.0429637-.80938274-.0260414-1.2087306-.2732884-1.5706768-1.4027244-2.58658459-2.8774284-2.58658459-.78649434-.0005007-1.53898063.32066442-2.0827268.88891939-.55743438.57620728-.85919646 1.35270937-.8371286 2.1541212.0532532 1.6921058.9726024 3.345881 1.6441194 4.5537338.13934013.25050826.39221793.41720006.677369.4465076.02916013.00303591.05846247.00450102.08778.00439497.25579833 0 .49888449-.11152922.665665-.30548037.53272707-.61816627 1.06369853-1.23847827 1.5929144-1.860936z" fill="#fff"/><path d="m13.167 1.75559024c-.8236485.00068442-1.6089554.34809296-2.1634844.95710436-.4057678.45756981-.6634468 1.02729942-.7391076 1.634171-.0439461.31382901-.0537567.63149605-.02926.9474388.076076 1.0755976.6981436 1.7872008 1.3000218 2.4751034l1.5534134 1.8044642c.167249.1955373.4118696.30784668.6691762.30723253h.0400862c.2644958-.01048615.5093172-.14256227.6633242-.35785233 1.0079911-1.38563925 1.5749336-3.04292634 1.626856-4.7556278.00543-.80671368-.3089317-1.58272839-.8742888-2.1582176-.5397877-.5480844-1.2774755-.85581465-2.046737-.85381656z" fill="#fff"/><g fill="#d8d0d0"><path d="m12.8744.8778h1v1h-1z"/><path d="m12.8744 10.5336h1v1h-1z"/><path d="m16.3856 5.5594h1v1h-1z"/><path d="m8.1928 6.1446h1v1h-1z"/><path d="m9.3632 3.2186h1v1h-1z"/><path d="m9.9484 6.7298h1v1h-1z"/><path d="m5.2668 9.6558h1v1h-1z"/><path d="m5.5594.2926h1v1h-1z"/><path d="m1.1704 5.5594h1v1h-1z"/><path d="m2.3408 1.7556h1v1h-1z"/><path d="m8.778 12.5818h1v1h-1z"/><path d="m4.9742 11.704h1v1h-1z"/></g></g><g transform="translate(41.9 23.2)"><path d="m15.9636708.9266642c-1.084501-.80809618-2.4657214-1.10715394-3.7873568-.82002727-1.3216354.28712666-2.45426584 1.13232113-3.105714 2.31755407-.74210491-1.35009251-2.10146011-2.24815181-3.63445534-2.40110637-1.53299523-.15295455-3.04299357.45881508-4.03722406 1.63566477-1.9402306 2.2913506-1.1750816 6.1881974.684684 8.630237 1.70956305 2.2467561 4.39525218 3.5343446 7.21749048 3.4602506 2.82223832-.0740939 5.43666662-1.5008297 7.02598492-3.8341934 1.0495132-1.54613338 1.5858244-3.38334984 1.5329314-5.2512922-.0314458-1.4691258-.7292314-2.8442403-1.8963406-3.7370872z" fill="#dd8856"/><path d="m9.06465191 7.0224c-1.75055957 1.17658787-2.62637687 2.24945454-2.62745191 3.2186 0 1.7556 1.71288103 2.0482 2.63340063 2.0482s2.63510097-.6252138 2.63340067-2.0482c-.0011353-.9486575-.8809184-2.02152417-2.63934939-3.2186z" fill="#fff"/><path d="m6.7221924 7.63686.0544236-.0637868c.4874716-.5696922.9913288-1.158696 1.1010538-2.0221586.05174162-.40194927.0429637-.80938274-.0260414-1.2087306-.2732884-1.5706768-1.4027244-2.58658459-2.8774284-2.58658459-.78649434-.0005007-1.53898063.32066442-2.0827268.88891939-.55743438.57620728-.85919646 1.35270937-.8371286 2.1541212.0532532 1.6921058.9726024 3.345881 1.6441194 4.5537338.13934013.25050826.39221793.41720006.677369.4465076.02916013.00303591.05846247.00450102.08778.00439497.25579833 0 .49888449-.11152922.665665-.30548037.53272707-.61816627 1.06369853-1.23847827 1.5929144-1.860936z" fill="#fff"/><path d="m13.167 1.75559024c-.8236485.00068442-1.6089554.34809296-2.1634844.95710436-.4057678.45756981-.6634468 1.02729942-.7391076 1.634171-.0439461.31382901-.0537567.63149605-.02926.9474388.076076 1.0755976.6981436 1.7872008 1.3000218 2.4751034l1.5534134 1.8044642c.167249.1955373.4118696.30784668.6691762.30723253h.0400862c.2644958-.01048615.5093172-.14256227.6633242-.35785233 1.0079911-1.38563925 1.5749336-3.04292634 1.626856-4.7556278.00543-.80671368-.3089317-1.58272839-.8742888-2.1582176-.5397877-.5480844-1.2774755-.85581465-2.046737-.85381656z" fill="#fff"/><g fill="#d8d0d0"><path d="m12.8744.8778h1v1h-1z"/><path d="m12.8744 10.5336h1v1h-1z"/><path d="m16.3856 5.5594h1v1h-1z"/><path d="m8.1928 6.1446h1v1h-1z"/><path d="m9.3632 3.2186h1v1h-1z"/><path d="m9.9484 6.7298h1v1h-1z"/><path d="m5.2668 9.6558h1v1h-1z"/><path d="m5.5594.2926h1v1h-1z"/><path d="m1.1704 5.5594h1v1h-1z"/><path d="m2.3408 1.7556h1v1h-1z"/><path d="m8.778 12.5818h1v1h-1z"/><path d="m4.9742 11.704h1v1h-1z"/></g></g><g transform="translate(15.3 23.2)"><path d="m15.9636708.9266642c-1.084501-.80809618-2.4657214-1.10715394-3.7873568-.82002727-1.3216354.28712666-2.45426584 1.13232113-3.105714 2.31755407-.74210491-1.35009251-2.10146011-2.24815181-3.63445534-2.40110637-1.53299523-.15295455-3.04299357.45881508-4.03722406 1.63566477-1.9402306 2.2913506-1.1750816 6.1881974.684684 8.630237 1.70956305 2.2467561 4.39525218 3.5343446 7.21749048 3.4602506 2.82223832-.0740939 5.43666662-1.5008297 7.02598492-3.8341934 1.0495132-1.54613338 1.5858244-3.38334984 1.5329314-5.2512922-.0314458-1.4691258-.7292314-2.8442403-1.8963406-3.7370872z" fill="#dd8856"/><path d="m9.06465191 7.0224c-1.75055957 1.17658787-2.62637687 2.24945454-2.62745191 3.2186 0 1.7556 1.71288103 2.0482 2.63340063 2.0482s2.63510097-.6252138 2.63340067-2.0482c-.0011353-.9486575-.8809184-2.02152417-2.63934939-3.2186z" fill="#fff"/><path d="m6.7221924 7.63686.0544236-.0637868c.4874716-.5696922.9913288-1.158696 1.1010538-2.0221586.05174162-.40194927.0429637-.80938274-.0260414-1.2087306-.2732884-1.5706768-1.4027244-2.58658459-2.8774284-2.58658459-.78649434-.0005007-1.53898063.32066442-2.0827268.88891939-.55743438.57620728-.85919646 1.35270937-.8371286 2.1541212.0532532 1.6921058.9726024 3.345881 1.6441194 4.5537338.13934013.25050826.39221793.41720006.677369.4465076.02916013.00303591.05846247.00450102.08778.00439497.25579833 0 .49888449-.11152922.665665-.30548037.53272707-.61816627 1.06369853-1.23847827 1.5929144-1.860936z" fill="#fff"/><path d="m13.167 1.75559024c-.8236485.00068442-1.6089554.34809296-2.1634844.95710436-.4057678.45756981-.6634468 1.02729942-.7391076 1.634171-.0439461.31382901-.0537567.63149605-.02926.9474388.076076 1.0755976.6981436 1.7872008 1.3000218 2.4751034l1.5534134 1.8044642c.167249.1955373.4118696.30784668.6691762.30723253h.0400862c.2644958-.01048615.5093172-.14256227.6633242-.35785233 1.0079911-1.38563925 1.5749336-3.04292634 1.626856-4.7556278.00543-.80671368-.3089317-1.58272839-.8742888-2.1582176-.5397877-.5480844-1.2774755-.85581465-2.046737-.85381656z" fill="#fff"/><g fill="#d8d0d0"><path d="m12.8744.8778h1v1h-1z"/><path d="m12.8744 10.5336h1v1h-1z"/><path d="m16.3856 5.5594h1v1h-1z"/><path d="m8.1928 6.1446h1v1h-1z"/><path d="m9.3632 3.2186h1v1h-1z"/><path d="m9.9484 6.7298h1v1h-1z"/><path d="m5.2668 9.6558h1v1h-1z"/><path d="m5.5594.2926h1v1h-1z"/><path d="m1.1704 5.5594h1v1h-1z"/><path d="m2.3408 1.7556h1v1h-1z"/><path d="m8.778 12.5818h1v1h-1z"/><path d="m4.9742 11.704h1v1h-1z"/></g></g><g transform="translate(28.6 23.2)"><path d="m15.9636708.9266642c-1.084501-.80809618-2.4657214-1.10715394-3.7873568-.82002727-1.3216354.28712666-2.45426584 1.13232113-3.105714 2.31755407-.74210491-1.35009251-2.10146011-2.24815181-3.63445534-2.40110637-1.53299523-.15295455-3.04299357.45881508-4.03722406 1.63566477-1.9402306 2.2913506-1.1750816 6.1881974.684684 8.630237 1.70956305 2.2467561 4.39525218 3.5343446 7.21749048 3.4602506 2.82223832-.0740939 5.43666662-1.5008297 7.02598492-3.8341934 1.0495132-1.54613338 1.5858244-3.38334984 1.5329314-5.2512922-.0314458-1.4691258-.7292314-2.8442403-1.8963406-3.7370872z" fill="#dd8856"/><path d="m9.06465191 7.0224c-1.75055957 1.17658787-2.62637687 2.24945454-2.62745191 3.2186 0 1.7556 1.71288103 2.0482 2.63340063 2.0482s2.63510097-.6252138 2.63340067-2.0482c-.0011353-.9486575-.8809184-2.02152417-2.63934939-3.2186z" fill="#fff"/><path d="m6.7221924 7.63686.0544236-.0637868c.4874716-.5696922.9913288-1.158696 1.1010538-2.0221586.05174162-.40194927.0429637-.80938274-.0260414-1.2087306-.2732884-1.5706768-1.4027244-2.58658459-2.8774284-2.58658459-.78649434-.0005007-1.53898063.32066442-2.0827268.88891939-.55743438.57620728-.85919646 1.35270937-.8371286 2.1541212.0532532 1.6921058.9726024 3.345881 1.6441194 4.5537338.13934013.25050826.39221793.41720006.677369.4465076.02916013.00303591.05846247.00450102.08778.00439497.25579833 0 .49888449-.11152922.665665-.30548037.53272707-.61816627 1.06369853-1.23847827 1.5929144-1.860936z" fill="#fff"/><path d="m13.167 1.75559024c-.8236485.00068442-1.6089554.34809296-2.1634844.95710436-.4057678.45756981-.6634468 1.02729942-.7391076 1.634171-.0439461.31382901-.0537567.63149605-.02926.9474388.076076 1.0755976.6981436 1.7872008 1.3000218 2.4751034l1.5534134 1.8044642c.167249.1955373.4118696.30784668.6691762.30723253h.0400862c.2644958-.01048615.5093172-.14256227.6633242-.35785233 1.0079911-1.38563925 1.5749336-3.04292634 1.626856-4.7556278.00543-.80671368-.3089317-1.58272839-.8742888-2.1582176-.5397877-.5480844-1.2774755-.85581465-2.046737-.85381656z" fill="#fff"/><g fill="#d8d0d0"><path d="m12.8744.8778h1v1h-1z"/><path d="m12.8744 10.5336h1v1h-1z"/><path d="m16.3856 5.5594h1v1h-1z"/><path d="m8.1928 6.1446h1v1h-1z"/><path d="m9.3632 3.2186h1v1h-1z"/><path d="m9.9484 6.7298h1v1h-1z"/><path d="m5.2668 9.6558h1v1h-1z"/><path d="m5.5594.2926h1v1h-1z"/><path d="m1.1704 5.5594h1v1h-1z"/><path d="m2.3408 1.7556h1v1h-1z"/><path d="m8.778 12.5818h1v1h-1z"/><path d="m4.9742 11.704h1v1h-1z"/></g></g><g transform="translate(2 23.2)"><path d="m15.9636708.9266642c-1.084501-.80809618-2.4657214-1.10715394-3.7873568-.82002727-1.3216354.28712666-2.45426584 1.13232113-3.105714 2.31755407-.74210491-1.35009251-2.10146011-2.24815181-3.63445534-2.40110637-1.53299523-.15295455-3.04299357.45881508-4.03722406 1.63566477-1.9402306 2.2913506-1.1750816 6.1881974.684684 8.630237 1.70956305 2.2467561 4.39525218 3.5343446 7.21749048 3.4602506 2.82223832-.0740939 5.43666662-1.5008297 7.02598492-3.8341934 1.0495132-1.54613338 1.5858244-3.38334984 1.5329314-5.2512922-.0314458-1.4691258-.7292314-2.8442403-1.8963406-3.7370872z" fill="#dd8856"/><path d="m9.06465191 7.0224c-1.75055957 1.17658787-2.62637687 2.24945454-2.62745191 3.2186 0 1.7556 1.71288103 2.0482 2.63340063 2.0482s2.63510097-.6252138 2.63340067-2.0482c-.0011353-.9486575-.8809184-2.02152417-2.63934939-3.2186z" fill="#fff"/><path d="m6.7221924 7.63686.0544236-.0637868c.4874716-.5696922.9913288-1.158696 1.1010538-2.0221586.05174162-.40194927.0429637-.80938274-.0260414-1.2087306-.2732884-1.5706768-1.4027244-2.58658459-2.8774284-2.58658459-.78649434-.0005007-1.53898063.32066442-2.0827268.88891939-.55743438.57620728-.85919646 1.35270937-.8371286 2.1541212.0532532 1.6921058.9726024 3.345881 1.6441194 4.5537338.13934013.25050826.39221793.41720006.677369.4465076.02916013.00303591.05846247.00450102.08778.00439497.25579833 0 .49888449-.11152922.665665-.30548037.53272707-.61816627 1.06369853-1.23847827 1.5929144-1.860936z" fill="#fff"/><path d="m13.167 1.75559024c-.8236485.00068442-1.6089554.34809296-2.1634844.95710436-.4057678.45756981-.6634468 1.02729942-.7391076 1.634171-.0439461.31382901-.0537567.63149605-.02926.9474388.076076 1.0755976.6981436 1.7872008 1.3000218 2.4751034l1.5534134 1.8044642c.167249.1955373.4118696.30784668.6691762.30723253h.0400862c.2644958-.01048615.5093172-.14256227.6633242-.35785233 1.0079911-1.38563925 1.5749336-3.04292634 1.626856-4.7556278.00543-.80671368-.3089317-1.58272839-.8742888-2.1582176-.5397877-.5480844-1.2774755-.85581465-2.046737-.85381656z" fill="#fff"/><g fill="#d8d0d0"><path d="m12.8744.8778h1v1h-1z"/><path d="m12.8744 10.5336h1v1h-1z"/><path d="m16.3856 5.5594h1v1h-1z"/><path d="m8.1928 6.1446h1v1h-1z"/><path d="m9.3632 3.2186h1v1h-1z"/><path d="m9.9484 6.7298h1v1h-1z"/><path d="m5.2668 9.6558h1v1h-1z"/><path d="m5.5594.2926h1v1h-1z"/><path d="m1.1704 5.5594h1v1h-1z"/><path d="m2.3408 1.7556h1v1h-1z"/><path d="m8.778 12.5818h1v1h-1z"/><path d="m4.9742 11.704h1v1h-1z"/></g></g><g transform="translate(2 23.2)"><path d="m15.9636708.9266642c-1.084501-.80809618-2.4657214-1.10715394-3.7873568-.82002727-1.3216354.28712666-2.45426584 1.13232113-3.105714 2.31755407-.74210491-1.35009251-2.10146011-2.24815181-3.63445534-2.40110637-1.53299523-.15295455-3.04299357.45881508-4.03722406 1.63566477-1.9402306 2.2913506-1.1750816 6.1881974.684684 8.630237 1.70956305 2.2467561 4.39525218 3.5343446 7.21749048 3.4602506 2.82223832-.0740939 5.43666662-1.5008297 7.02598492-3.8341934 1.0495132-1.54613338 1.5858244-3.38334984 1.5329314-5.2512922-.0314458-1.4691258-.7292314-2.8442403-1.8963406-3.7370872z" fill="#dd8856"/><path d="m9.06465191 7.0224c-1.75055957 1.17658787-2.62637687 2.24945454-2.62745191 3.2186 0 1.7556 1.71288103 2.0482 2.63340063 2.0482s2.63510097-.6252138 2.63340067-2.0482c-.0011353-.9486575-.8809184-2.02152417-2.63934939-3.2186z" fill="#fff"/><path d="m6.7221924 7.63686.0544236-.0637868c.4874716-.5696922.9913288-1.158696 1.1010538-2.0221586.05174162-.40194927.0429637-.80938274-.0260414-1.2087306-.2732884-1.5706768-1.4027244-2.58658459-2.8774284-2.58658459-.78649434-.0005007-1.53898063.32066442-2.0827268.88891939-.55743438.57620728-.85919646 1.35270937-.8371286 2.1541212.0532532 1.6921058.9726024 3.345881 1.6441194 4.5537338.13934013.25050826.39221793.41720006.677369.4465076.02916013.00303591.05846247.00450102.08778.00439497.25579833 0 .49888449-.11152922.665665-.30548037.53272707-.61816627 1.06369853-1.23847827 1.5929144-1.860936z" fill="#fff"/><path d="m13.167 1.75559024c-.8236485.00068442-1.6089554.34809296-2.1634844.95710436-.4057678.45756981-.6634468 1.02729942-.7391076 1.634171-.0439461.31382901-.0537567.63149605-.02926.9474388.076076 1.0755976.6981436 1.7872008 1.3000218 2.4751034l1.5534134 1.8044642c.167249.1955373.4118696.30784668.6691762.30723253h.0400862c.2644958-.01048615.5093172-.14256227.6633242-.35785233 1.0079911-1.38563925 1.5749336-3.04292634 1.626856-4.7556278.00543-.80671368-.3089317-1.58272839-.8742888-2.1582176-.5397877-.5480844-1.2774755-.85581465-2.046737-.85381656z" fill="#fff"/><g fill="#d8d0d0"><path d="m12.8744.8778h1v1h-1z"/><path d="m12.8744 10.5336h1v1h-1z"/><path d="m16.3856 5.5594h1v1h-1z"/><path d="m8.1928 6.1446h1v1h-1z"/><path d="m9.3632 3.2186h1v1h-1z"/><path d="m9.9484 6.7298h1v1h-1z"/><path d="m5.2668 9.6558h1v1h-1z"/><path d="m5.5594.2926h1v1h-1z"/><path d="m1.1704 5.5594h1v1h-1z"/><path d="m2.3408 1.7556h1v1h-1z"/><path d="m8.778 12.5818h1v1h-1z"/><path d="m4.9742 11.704h1v1h-1z"/></g></g><g transform="translate(13.4 53.6)"><path d="m15.9636708.9266642c-1.084501-.80809618-2.4657214-1.10715394-3.7873568-.82002727-1.3216354.28712666-2.45426584 1.13232113-3.105714 2.31755407-.74210491-1.35009251-2.10146011-2.24815181-3.63445534-2.40110637-1.53299523-.15295455-3.04299357.45881508-4.03722406 1.63566477-1.9402306 2.2913506-1.1750816 6.1881974.684684 8.630237 1.70956305 2.2467561 4.39525218 3.5343446 7.21749048 3.4602506 2.82223832-.0740939 5.43666662-1.5008297 7.02598492-3.8341934 1.0495132-1.54613338 1.5858244-3.38334984 1.5329314-5.2512922-.0314458-1.4691258-.7292314-2.8442403-1.8963406-3.7370872z" fill="#dd8856"/><path d="m9.06465191 7.0224c-1.75055957 1.17658787-2.62637687 2.24945454-2.62745191 3.2186 0 1.7556 1.71288103 2.0482 2.63340063 2.0482s2.63510097-.6252138 2.63340067-2.0482c-.0011353-.9486575-.8809184-2.02152417-2.63934939-3.2186z" fill="#fff"/><path d="m6.7221924 7.63686.0544236-.0637868c.4874716-.5696922.9913288-1.158696 1.1010538-2.0221586.05174162-.40194927.0429637-.80938274-.0260414-1.2087306-.2732884-1.5706768-1.4027244-2.58658459-2.8774284-2.58658459-.78649434-.0005007-1.53898063.32066442-2.0827268.88891939-.55743438.57620728-.85919646 1.35270937-.8371286 2.1541212.0532532 1.6921058.9726024 3.345881 1.6441194 4.5537338.13934013.25050826.39221793.41720006.677369.4465076.02916013.00303591.05846247.00450102.08778.00439497.25579833 0 .49888449-.11152922.665665-.30548037.53272707-.61816627 1.06369853-1.23847827 1.5929144-1.860936z" fill="#fff"/><path d="m13.167 1.75559024c-.8236485.00068442-1.6089554.34809296-2.1634844.95710436-.4057678.45756981-.6634468 1.02729942-.7391076 1.634171-.0439461.31382901-.0537567.63149605-.02926.9474388.076076 1.0755976.6981436 1.7872008 1.3000218 2.4751034l1.5534134 1.8044642c.167249.1955373.4118696.30784668.6691762.30723253h.0400862c.2644958-.01048615.5093172-.14256227.6633242-.35785233 1.0079911-1.38563925 1.5749336-3.04292634 1.626856-4.7556278.00543-.80671368-.3089317-1.58272839-.8742888-2.1582176-.5397877-.5480844-1.2774755-.85581465-2.046737-.85381656z" fill="#fff"/><g fill="#d8d0d0"><path d="m12.8744.8778h1v1h-1z"/><path d="m12.8744 10.5336h1v1h-1z"/><path d="m16.3856 5.5594h1v1h-1z"/><path d="m8.1928 6.1446h1v1h-1z"/><path d="m9.3632 3.2186h1v1h-1z"/><path d="m9.9484 6.7298h1v1h-1z"/><path d="m5.2668 9.6558h1v1h-1z"/><path d="m5.5594.2926h1v1h-1z"/><path d="m1.1704 5.5594h1v1h-1z"/><path d="m2.3408 1.7556h1v1h-1z"/><path d="m8.778 12.5818h1v1h-1z"/><path d="m4.9742 11.704h1v1h-1z"/></g></g><g transform="translate(40 53.6)"><path d="m15.9636708.9266642c-1.084501-.80809618-2.4657214-1.10715394-3.7873568-.82002727-1.3216354.28712666-2.45426584 1.13232113-3.105714 2.31755407-.74210491-1.35009251-2.10146011-2.24815181-3.63445534-2.40110637-1.53299523-.15295455-3.04299357.45881508-4.03722406 1.63566477-1.9402306 2.2913506-1.1750816 6.1881974.684684 8.630237 1.70956305 2.2467561 4.39525218 3.5343446 7.21749048 3.4602506 2.82223832-.0740939 5.43666662-1.5008297 7.02598492-3.8341934 1.0495132-1.54613338 1.5858244-3.38334984 1.5329314-5.2512922-.0314458-1.4691258-.7292314-2.8442403-1.8963406-3.7370872z" fill="#dd8856"/><path d="m9.06465191 7.0224c-1.75055957 1.17658787-2.62637687 2.24945454-2.62745191 3.2186 0 1.7556 1.71288103 2.0482 2.63340063 2.0482s2.63510097-.6252138 2.63340067-2.0482c-.0011353-.9486575-.8809184-2.02152417-2.63934939-3.2186z" fill="#fff"/><path d="m6.7221924 7.63686.0544236-.0637868c.4874716-.5696922.9913288-1.158696 1.1010538-2.0221586.05174162-.40194927.0429637-.80938274-.0260414-1.2087306-.2732884-1.5706768-1.4027244-2.58658459-2.8774284-2.58658459-.78649434-.0005007-1.53898063.32066442-2.0827268.88891939-.55743438.57620728-.85919646 1.35270937-.8371286 2.1541212.0532532 1.6921058.9726024 3.345881 1.6441194 4.5537338.13934013.25050826.39221793.41720006.677369.4465076.02916013.00303591.05846247.00450102.08778.00439497.25579833 0 .49888449-.11152922.665665-.30548037.53272707-.61816627 1.06369853-1.23847827 1.5929144-1.860936z" fill="#fff"/><path d="m13.167 1.75559024c-.8236485.00068442-1.6089554.34809296-2.1634844.95710436-.4057678.45756981-.6634468 1.02729942-.7391076 1.634171-.0439461.31382901-.0537567.63149605-.02926.9474388.076076 1.0755976.6981436 1.7872008 1.3000218 2.4751034l1.5534134 1.8044642c.167249.1955373.4118696.30784668.6691762.30723253h.0400862c.2644958-.01048615.5093172-.14256227.6633242-.35785233 1.0079911-1.38563925 1.5749336-3.04292634 1.626856-4.7556278.00543-.80671368-.3089317-1.58272839-.8742888-2.1582176-.5397877-.5480844-1.2774755-.85581465-2.046737-.85381656z" fill="#fff"/><g fill="#d8d0d0"><path d="m12.8744.8778h1v1h-1z"/><path d="m12.8744 10.5336h1v1h-1z"/><path d="m16.3856 5.5594h1v1h-1z"/><path d="m8.1928 6.1446h1v1h-1z"/><path d="m9.3632 3.2186h1v1h-1z"/><path d="m9.9484 6.7298h1v1h-1z"/><path d="m5.2668 9.6558h1v1h-1z"/><path d="m5.5594.2926h1v1h-1z"/><path d="m1.1704 5.5594h1v1h-1z"/><path d="m2.3408 1.7556h1v1h-1z"/><path d="m8.778 12.5818h1v1h-1z"/><path d="m4.9742 11.704h1v1h-1z"/></g></g><g transform="translate(28.6 63.1)"><path d="m15.9636708.9266642c-1.084501-.80809618-2.4657214-1.10715394-3.7873568-.82002727-1.3216354.28712666-2.45426584 1.13232113-3.105714 2.31755407-.74210491-1.35009251-2.10146011-2.24815181-3.63445534-2.40110637-1.53299523-.15295455-3.04299357.45881508-4.03722406 1.63566477-1.9402306 2.2913506-1.1750816 6.1881974.684684 8.630237 1.70956305 2.2467561 4.39525218 3.5343446 7.21749048 3.4602506 2.82223832-.0740939 5.43666662-1.5008297 7.02598492-3.8341934 1.0495132-1.54613338 1.5858244-3.38334984 1.5329314-5.2512922-.0314458-1.4691258-.7292314-2.8442403-1.8963406-3.7370872z" fill="#dd8856"/><path d="m9.06465191 7.0224c-1.75055957 1.17658787-2.62637687 2.24945454-2.62745191 3.2186 0 1.7556 1.71288103 2.0482 2.63340063 2.0482s2.63510097-.6252138 2.63340067-2.0482c-.0011353-.9486575-.8809184-2.02152417-2.63934939-3.2186z" fill="#fff"/><path d="m6.7221924 7.63686.0544236-.0637868c.4874716-.5696922.9913288-1.158696 1.1010538-2.0221586.05174162-.40194927.0429637-.80938274-.0260414-1.2087306-.2732884-1.5706768-1.4027244-2.58658459-2.8774284-2.58658459-.78649434-.0005007-1.53898063.32066442-2.0827268.88891939-.55743438.57620728-.85919646 1.35270937-.8371286 2.1541212.0532532 1.6921058.9726024 3.345881 1.6441194 4.5537338.13934013.25050826.39221793.41720006.677369.4465076.02916013.00303591.05846247.00450102.08778.00439497.25579833 0 .49888449-.11152922.665665-.30548037.53272707-.61816627 1.06369853-1.23847827 1.5929144-1.860936z" fill="#fff"/><path d="m13.167 1.75559024c-.8236485.00068442-1.6089554.34809296-2.1634844.95710436-.4057678.45756981-.6634468 1.02729942-.7391076 1.634171-.0439461.31382901-.0537567.63149605-.02926.9474388.076076 1.0755976.6981436 1.7872008 1.3000218 2.4751034l1.5534134 1.8044642c.167249.1955373.4118696.30784668.6691762.30723253h.0400862c.2644958-.01048615.5093172-.14256227.6633242-.35785233 1.0079911-1.38563925 1.5749336-3.04292634 1.626856-4.7556278.00543-.80671368-.3089317-1.58272839-.8742888-2.1582176-.5397877-.5480844-1.2774755-.85581465-2.046737-.85381656z" fill="#fff"/><g fill="#d8d0d0"><path d="m12.8744.8778h1v1h-1z"/><path d="m12.8744 10.5336h1v1h-1z"/><path d="m16.3856 5.5594h1v1h-1z"/><path d="m8.1928 6.1446h1v1h-1z"/><path d="m9.3632 3.2186h1v1h-1z"/><path d="m9.9484 6.7298h1v1h-1z"/><path d="m5.2668 9.6558h1v1h-1z"/><path d="m5.5594.2926h1v1h-1z"/><path d="m1.1704 5.5594h1v1h-1z"/><path d="m2.3408 1.7556h1v1h-1z"/><path d="m8.778 12.5818h1v1h-1z"/><path d="m4.9742 11.704h1v1h-1z"/></g></g><g transform="translate(41.9 63.1)"><path d="m15.9636708.9266642c-1.084501-.80809618-2.4657214-1.10715394-3.7873568-.82002727-1.3216354.28712666-2.45426584 1.13232113-3.105714 2.31755407-.74210491-1.35009251-2.10146011-2.24815181-3.63445534-2.40110637-1.53299523-.15295455-3.04299357.45881508-4.03722406 1.63566477-1.9402306 2.2913506-1.1750816 6.1881974.684684 8.630237 1.70956305 2.2467561 4.39525218 3.5343446 7.21749048 3.4602506 2.82223832-.0740939 5.43666662-1.5008297 7.02598492-3.8341934 1.0495132-1.54613338 1.5858244-3.38334984 1.5329314-5.2512922-.0314458-1.4691258-.7292314-2.8442403-1.8963406-3.7370872z" fill="#dd8856"/><path d="m9.06465191 7.0224c-1.75055957 1.17658787-2.62637687 2.24945454-2.62745191 3.2186 0 1.7556 1.71288103 2.0482 2.63340063 2.0482s2.63510097-.6252138 2.63340067-2.0482c-.0011353-.9486575-.8809184-2.02152417-2.63934939-3.2186z" fill="#fff"/><path d="m6.7221924 7.63686.0544236-.0637868c.4874716-.5696922.9913288-1.158696 1.1010538-2.0221586.05174162-.40194927.0429637-.80938274-.0260414-1.2087306-.2732884-1.5706768-1.4027244-2.58658459-2.8774284-2.58658459-.78649434-.0005007-1.53898063.32066442-2.0827268.88891939-.55743438.57620728-.85919646 1.35270937-.8371286 2.1541212.0532532 1.6921058.9726024 3.345881 1.6441194 4.5537338.13934013.25050826.39221793.41720006.677369.4465076.02916013.00303591.05846247.00450102.08778.00439497.25579833 0 .49888449-.11152922.665665-.30548037.53272707-.61816627 1.06369853-1.23847827 1.5929144-1.860936z" fill="#fff"/><path d="m13.167 1.75559024c-.8236485.00068442-1.6089554.34809296-2.1634844.95710436-.4057678.45756981-.6634468 1.02729942-.7391076 1.634171-.0439461.31382901-.0537567.63149605-.02926.9474388.076076 1.0755976.6981436 1.7872008 1.3000218 2.4751034l1.5534134 1.8044642c.167249.1955373.4118696.30784668.6691762.30723253h.0400862c.2644958-.01048615.5093172-.14256227.6633242-.35785233 1.0079911-1.38563925 1.5749336-3.04292634 1.626856-4.7556278.00543-.80671368-.3089317-1.58272839-.8742888-2.1582176-.5397877-.5480844-1.2774755-.85581465-2.046737-.85381656z" fill="#fff"/><g fill="#d8d0d0"><path d="m12.8744.8778h1v1h-1z"/><path d="m12.8744 10.5336h1v1h-1z"/><path d="m16.3856 5.5594h1v1h-1z"/><path d="m8.1928 6.1446h1v1h-1z"/><path d="m9.3632 3.2186h1v1h-1z"/><path d="m9.9484 6.7298h1v1h-1z"/><path d="m5.2668 9.6558h1v1h-1z"/><path d="m5.5594.2926h1v1h-1z"/><path d="m1.1704 5.5594h1v1h-1z"/><path d="m2.3408 1.7556h1v1h-1z"/><path d="m8.778 12.5818h1v1h-1z"/><path d="m4.9742 11.704h1v1h-1z"/></g></g><g transform="translate(19.1 47.9)"><path d="m15.9636708.9266642c-1.084501-.80809618-2.4657214-1.10715394-3.7873568-.82002727-1.3216354.28712666-2.45426584 1.13232113-3.105714 2.31755407-.74210491-1.35009251-2.10146011-2.24815181-3.63445534-2.40110637-1.53299523-.15295455-3.04299357.45881508-4.03722406 1.63566477-1.9402306 2.2913506-1.1750816 6.1881974.684684 8.630237 1.70956305 2.2467561 4.39525218 3.5343446 7.21749048 3.4602506 2.82223832-.0740939 5.43666662-1.5008297 7.02598492-3.8341934 1.0495132-1.54613338 1.5858244-3.38334984 1.5329314-5.2512922-.0314458-1.4691258-.7292314-2.8442403-1.8963406-3.7370872z" fill="#dd8856"/><path d="m9.06465191 7.0224c-1.75055957 1.17658787-2.62637687 2.24945454-2.62745191 3.2186 0 1.7556 1.71288103 2.0482 2.63340063 2.0482s2.63510097-.6252138 2.63340067-2.0482c-.0011353-.9486575-.8809184-2.02152417-2.63934939-3.2186z" fill="#fff"/><path d="m6.7221924 7.63686.0544236-.0637868c.4874716-.5696922.9913288-1.158696 1.1010538-2.0221586.05174162-.40194927.0429637-.80938274-.0260414-1.2087306-.2732884-1.5706768-1.4027244-2.58658459-2.8774284-2.58658459-.78649434-.0005007-1.53898063.32066442-2.0827268.88891939-.55743438.57620728-.85919646 1.35270937-.8371286 2.1541212.0532532 1.6921058.9726024 3.345881 1.6441194 4.5537338.13934013.25050826.39221793.41720006.677369.4465076.02916013.00303591.05846247.00450102.08778.00439497.25579833 0 .49888449-.11152922.665665-.30548037.53272707-.61816627 1.06369853-1.23847827 1.5929144-1.860936z" fill="#fff"/><path d="m13.167 1.75559024c-.8236485.00068442-1.6089554.34809296-2.1634844.95710436-.4057678.45756981-.6634468 1.02729942-.7391076 1.634171-.0439461.31382901-.0537567.63149605-.02926.9474388.076076 1.0755976.6981436 1.7872008 1.3000218 2.4751034l1.5534134 1.8044642c.167249.1955373.4118696.30784668.6691762.30723253h.0400862c.2644958-.01048615.5093172-.14256227.6633242-.35785233 1.0079911-1.38563925 1.5749336-3.04292634 1.626856-4.7556278.00543-.80671368-.3089317-1.58272839-.8742888-2.1582176-.5397877-.5480844-1.2774755-.85581465-2.046737-.85381656z" fill="#fff"/><g fill="#d8d0d0"><path d="m12.8744.8778h1v1h-1z"/><path d="m12.8744 10.5336h1v1h-1z"/><path d="m16.3856 5.5594h1v1h-1z"/><path d="m8.1928 6.1446h1v1h-1z"/><path d="m9.3632 3.2186h1v1h-1z"/><path d="m9.9484 6.7298h1v1h-1z"/><path d="m5.2668 9.6558h1v1h-1z"/><path d="m5.5594.2926h1v1h-1z"/><path d="m1.1704 5.5594h1v1h-1z"/><path d="m2.3408 1.7556h1v1h-1z"/><path d="m8.778 12.5818h1v1h-1z"/><path d="m4.9742 11.704h1v1h-1z"/></g></g><g transform="translate(2 53.6)"><path d="m15.9636708.9266642c-1.084501-.80809618-2.4657214-1.10715394-3.7873568-.82002727-1.3216354.28712666-2.45426584 1.13232113-3.105714 2.31755407-.74210491-1.35009251-2.10146011-2.24815181-3.63445534-2.40110637-1.53299523-.15295455-3.04299357.45881508-4.03722406 1.63566477-1.9402306 2.2913506-1.1750816 6.1881974.684684 8.630237 1.70956305 2.2467561 4.39525218 3.5343446 7.21749048 3.4602506 2.82223832-.0740939 5.43666662-1.5008297 7.02598492-3.8341934 1.0495132-1.54613338 1.5858244-3.38334984 1.5329314-5.2512922-.0314458-1.4691258-.7292314-2.8442403-1.8963406-3.7370872z" fill="#dd8856"/><path d="m9.06465191 7.0224c-1.75055957 1.17658787-2.62637687 2.24945454-2.62745191 3.2186 0 1.7556 1.71288103 2.0482 2.63340063 2.0482s2.63510097-.6252138 2.63340067-2.0482c-.0011353-.9486575-.8809184-2.02152417-2.63934939-3.2186z" fill="#fff"/><path d="m6.7221924 7.63686.0544236-.0637868c.4874716-.5696922.9913288-1.158696 1.1010538-2.0221586.05174162-.40194927.0429637-.80938274-.0260414-1.2087306-.2732884-1.5706768-1.4027244-2.58658459-2.8774284-2.58658459-.78649434-.0005007-1.53898063.32066442-2.0827268.88891939-.55743438.57620728-.85919646 1.35270937-.8371286 2.1541212.0532532 1.6921058.9726024 3.345881 1.6441194 4.5537338.13934013.25050826.39221793.41720006.677369.4465076.02916013.00303591.05846247.00450102.08778.00439497.25579833 0 .49888449-.11152922.665665-.30548037.53272707-.61816627 1.06369853-1.23847827 1.5929144-1.860936z" fill="#fff"/><path d="m13.167 1.75559024c-.8236485.00068442-1.6089554.34809296-2.1634844.95710436-.4057678.45756981-.6634468 1.02729942-.7391076 1.634171-.0439461.31382901-.0537567.63149605-.02926.9474388.076076 1.0755976.6981436 1.7872008 1.3000218 2.4751034l1.5534134 1.8044642c.167249.1955373.4118696.30784668.6691762.30723253h.0400862c.2644958-.01048615.5093172-.14256227.6633242-.35785233 1.0079911-1.38563925 1.5749336-3.04292634 1.626856-4.7556278.00543-.80671368-.3089317-1.58272839-.8742888-2.1582176-.5397877-.5480844-1.2774755-.85581465-2.046737-.85381656z" fill="#fff"/><g fill="#d8d0d0"><path d="m12.8744.8778h1v1h-1z"/><path d="m12.8744 10.5336h1v1h-1z"/><path d="m16.3856 5.5594h1v1h-1z"/><path d="m8.1928 6.1446h1v1h-1z"/><path d="m9.3632 3.2186h1v1h-1z"/><path d="m9.9484 6.7298h1v1h-1z"/><path d="m5.2668 9.6558h1v1h-1z"/><path d="m5.5594.2926h1v1h-1z"/><path d="m1.1704 5.5594h1v1h-1z"/><path d="m2.3408 1.7556h1v1h-1z"/><path d="m8.778 12.5818h1v1h-1z"/><path d="m4.9742 11.704h1v1h-1z"/></g></g><g transform="translate(40 47.9)"><path d="m15.9636708.9266642c-1.084501-.80809618-2.4657214-1.10715394-3.7873568-.82002727-1.3216354.28712666-2.45426584 1.13232113-3.105714 2.31755407-.74210491-1.35009251-2.10146011-2.24815181-3.63445534-2.40110637-1.53299523-.15295455-3.04299357.45881508-4.03722406 1.63566477-1.9402306 2.2913506-1.1750816 6.1881974.684684 8.630237 1.70956305 2.2467561 4.39525218 3.5343446 7.21749048 3.4602506 2.82223832-.0740939 5.43666662-1.5008297 7.02598492-3.8341934 1.0495132-1.54613338 1.5858244-3.38334984 1.5329314-5.2512922-.0314458-1.4691258-.7292314-2.8442403-1.8963406-3.7370872z" fill="#dd8856"/><path d="m9.06465191 7.0224c-1.75055957 1.17658787-2.62637687 2.24945454-2.62745191 3.2186 0 1.7556 1.71288103 2.0482 2.63340063 2.0482s2.63510097-.6252138 2.63340067-2.0482c-.0011353-.9486575-.8809184-2.02152417-2.63934939-3.2186z" fill="#fff"/><path d="m6.7221924 7.63686.0544236-.0637868c.4874716-.5696922.9913288-1.158696 1.1010538-2.0221586.05174162-.40194927.0429637-.80938274-.0260414-1.2087306-.2732884-1.5706768-1.4027244-2.58658459-2.8774284-2.58658459-.78649434-.0005007-1.53898063.32066442-2.0827268.88891939-.55743438.57620728-.85919646 1.35270937-.8371286 2.1541212.0532532 1.6921058.9726024 3.345881 1.6441194 4.5537338.13934013.25050826.39221793.41720006.677369.4465076.02916013.00303591.05846247.00450102.08778.00439497.25579833 0 .49888449-.11152922.665665-.30548037.53272707-.61816627 1.06369853-1.23847827 1.5929144-1.860936z" fill="#fff"/><path d="m13.167 1.75559024c-.8236485.00068442-1.6089554.34809296-2.1634844.95710436-.4057678.45756981-.6634468 1.02729942-.7391076 1.634171-.0439461.31382901-.0537567.63149605-.02926.9474388.076076 1.0755976.6981436 1.7872008 1.3000218 2.4751034l1.5534134 1.8044642c.167249.1955373.4118696.30784668.6691762.30723253h.0400862c.2644958-.01048615.5093172-.14256227.6633242-.35785233 1.0079911-1.38563925 1.5749336-3.04292634 1.626856-4.7556278.00543-.80671368-.3089317-1.58272839-.8742888-2.1582176-.5397877-.5480844-1.2774755-.85581465-2.046737-.85381656z" fill="#fff"/><g fill="#d8d0d0"><path d="m12.8744.8778h1v1h-1z"/><path d="m12.8744 10.5336h1v1h-1z"/><path d="m16.3856 5.5594h1v1h-1z"/><path d="m8.1928 6.1446h1v1h-1z"/><path d="m9.3632 3.2186h1v1h-1z"/><path d="m9.9484 6.7298h1v1h-1z"/><path d="m5.2668 9.6558h1v1h-1z"/><path d="m5.5594.2926h1v1h-1z"/><path d="m1.1704 5.5594h1v1h-1z"/><path d="m2.3408 1.7556h1v1h-1z"/><path d="m8.778 12.5818h1v1h-1z"/><path d="m4.9742 11.704h1v1h-1z"/></g></g><g transform="translate(28.6 38.4)"><path d="m15.9636708.9266642c-1.084501-.80809618-2.4657214-1.10715394-3.7873568-.82002727-1.3216354.28712666-2.45426584 1.13232113-3.105714 2.31755407-.74210491-1.35009251-2.10146011-2.24815181-3.63445534-2.40110637-1.53299523-.15295455-3.04299357.45881508-4.03722406 1.63566477-1.9402306 2.2913506-1.1750816 6.1881974.684684 8.630237 1.70956305 2.2467561 4.39525218 3.5343446 7.21749048 3.4602506 2.82223832-.0740939 5.43666662-1.5008297 7.02598492-3.8341934 1.0495132-1.54613338 1.5858244-3.38334984 1.5329314-5.2512922-.0314458-1.4691258-.7292314-2.8442403-1.8963406-3.7370872z" fill="#dd8856"/><path d="m9.06465191 7.0224c-1.75055957 1.17658787-2.62637687 2.24945454-2.62745191 3.2186 0 1.7556 1.71288103 2.0482 2.63340063 2.0482s2.63510097-.6252138 2.63340067-2.0482c-.0011353-.9486575-.8809184-2.02152417-2.63934939-3.2186z" fill="#fff"/><path d="m6.7221924 7.63686.0544236-.0637868c.4874716-.5696922.9913288-1.158696 1.1010538-2.0221586.05174162-.40194927.0429637-.80938274-.0260414-1.2087306-.2732884-1.5706768-1.4027244-2.58658459-2.8774284-2.58658459-.78649434-.0005007-1.53898063.32066442-2.0827268.88891939-.55743438.57620728-.85919646 1.35270937-.8371286 2.1541212.0532532 1.6921058.9726024 3.345881 1.6441194 4.5537338.13934013.25050826.39221793.41720006.677369.4465076.02916013.00303591.05846247.00450102.08778.00439497.25579833 0 .49888449-.11152922.665665-.30548037.53272707-.61816627 1.06369853-1.23847827 1.5929144-1.860936z" fill="#fff"/><path d="m13.167 1.75559024c-.8236485.00068442-1.6089554.34809296-2.1634844.95710436-.4057678.45756981-.6634468 1.02729942-.7391076 1.634171-.0439461.31382901-.0537567.63149605-.02926.9474388.076076 1.0755976.6981436 1.7872008 1.3000218 2.4751034l1.5534134 1.8044642c.167249.1955373.4118696.30784668.6691762.30723253h.0400862c.2644958-.01048615.5093172-.14256227.6633242-.35785233 1.0079911-1.38563925 1.5749336-3.04292634 1.626856-4.7556278.00543-.80671368-.3089317-1.58272839-.8742888-2.1582176-.5397877-.5480844-1.2774755-.85581465-2.046737-.85381656z" fill="#fff"/><g fill="#d8d0d0"><path d="m12.8744.8778h1v1h-1z"/><path d="m12.8744 10.5336h1v1h-1z"/><path d="m16.3856 5.5594h1v1h-1z"/><path d="m8.1928 6.1446h1v1h-1z"/><path d="m9.3632 3.2186h1v1h-1z"/><path d="m9.9484 6.7298h1v1h-1z"/><path d="m5.2668 9.6558h1v1h-1z"/><path d="m5.5594.2926h1v1h-1z"/><path d="m1.1704 5.5594h1v1h-1z"/><path d="m2.3408 1.7556h1v1h-1z"/><path d="m8.778 12.5818h1v1h-1z"/><path d="m4.9742 11.704h1v1h-1z"/></g></g></g><path d="m45.1748939 0 16.7947988.82695001c.3821739.01935946.6819976.33082168.6820515.70852737v5.20071275l-.0047367.02268084c-.0002615.00874609.0039492.01627801.0033341.02510637l-.5571496 8.14701796-.1347289 6.0346074-.4982166 7.796567.3775225 7.5493103c.0042685.0756648-.0042689.1515027-.0252614.2243971l-2.6707218 9.5003564 2.1570591 8.2169753c.0195602.0743132.026671.1512843.0210507.2278637l-.5599663 7.8014153.0364882 6.3289534 1.3893961 7.3214438 2.3731916 6.4487746c.0691336.1914086.0501713.403067-.0519199.5795317v4.8033313c.0001544.1935687-.0799731.3787637-.2217458.5125104-.14447.1297277-.3338188.1998732-.5290914.1960056l-18.9055514-.8567372-2.7953622.1843971c-.0045585.0000879-.0083323.0025986-.0128937.0025986-.0022792 0-.0042107-.0012993-.00649-.0012993l-4.4168455.2914098c-.0025437 0-.0047367.0014723-.0072804.0014723l-.0036847-.0006922-4.4252641.291929-.0024546.000173-13.8482184.9137103-16.79620136-.82695c-.38217959-.0193522-.68201159-.3308165-.68206589-.7085274v-5.2007071l.01193087-.0566212-.0021068-.0597362 1.24343482-7.3879345.6961007-7.0451035.66803109-5.5567097-2.0335655-7.8505897c-.01518154-.0574301-.02272933-.1165655-.02245338-.1759176v-9.7517691l-.55996919-8.2862377.50241588-7.7910209-1.57745037-6.8144652-.19367331-6.8864937-.54470423-7.95560518c-.02485809-.06724959-.03900149-.13789678-.04192643-.20942403v-5.20071558c0-.19357188.07996631-.37877175.22174028-.51252178.14291692-.13221484.33333031-.2027548.52909148-.19600559l18.90555134.85673723 2.7880818-.18397155c.0066653-.00017305.0121033-.00372199.0187686-.00372199.0033456 0 .0061537.00181844.0094849.00190355l4.4100969-.29095307c.004386-.00008794.0080708-.00251064.0124568-.00251064.0022017 0 .0040326.00121135.0062256.00121135l4.4175468-.29140981.0068407-.00138723.0034232.00069503zm-41.32247523 55.4577468 2.04478931 7.5820552c.02242475.0813815.02814279.1660917.01684291.2495199l-.68206589 5.4508298-.70030855 6.7995641-1.12036951 6.3998329 13.04528306.802959 3.4036469-.2042726c.009735-.0003325.017892-.0053227.0277161-.0053227.0051764 0 .0093872.00266.0144745.0027445l4.396933-.2639074c.0067544-.0001663.0123677-.0036602.0192084-.0036602l.0099994.0019077 4.40991-.2646568c.003771-.0000845.0069297-.0020795.0163141-.0009893l13.2427273-.7948864 20.8300863.6499978-2.0227757-5.3030305-1.4328974-7.261342-.047712-6.2526169.5529504-7.4356731zm44.19807693-48.90025164-3.4035693.2126297c-.0097379.0003461-.017984.00554043-.0422798.00268369l-4.3967576.27460982c-.0068406.00017588-.0124568.00389787-.0294722.00191205l-4.4115828.27556585c-.003679.00009361-.0066625.00207943-.0157852.00104113l-13.2429027.82730462-20.98937251-.68177277.50356269 7.36395155.17683041 6.7763717 1.58306371 6.7749901c.0154291.0667333.02109996.135303.01684004.2036226l-.50944334 7.8014152.30754114 4.5143499 55.49207406.0144568 1.3086077-4.6541655-.3719092-7.5146806.4968025-7.8471315.1347289-6.0373705.5101447-7.4693161z" fill="#ed0000"/><g fill="#ad2020"><path d="m21.7446909 2.96326686v3.74937434l-2.9934962-.0976567v-3.55639853l.9206373.04146665zm4.4320214-.2924481v3.83586508l-2.9949132.18682829v-3.82504239zm-11.8561536.18795169 2.9934962.13497016v3.57432193l-2.9934962-.09774464zm-4.43202142-.19981552 2.99491322.1350581v3.6293829l-2.99491322-.09774464zm20.71877942-.28049917v3.85179415l-2.9934962.18674035v-3.84105657zm-25.14938381.08077159 2.99349625.13497016v3.68453749l-2.99349625-.09766238zm29.58000831-.37322254v3.86779982l-2.9934962.18675454v-3.85699132zm-33.60083282.19193751 2.58370487.11652761v3.73968073l-2.58370487-.08432621zm57.19382572-.19583254 2.5837077.12795739v3.76980837l-2.5837077-.16449071zm-19.1609715-.28853889v3.88372322l-2.9949132.18683113v-3.8729062zm14.7303585.06916026 2.9934962.14821554v3.71292896l-2.9934962-.19055028zm-10.2926404-.36205659c-.0006099.01219857-.0071051.02250779-.0071051.03480282v3.86539131l-2.9935048.18673751v-3.88884945zm5.860619.14259001 2.9949132.14830348v3.65024531l-2.9949132-.19072333zm-4.4536844-.22050771 3.0165762.14934462v3.58747937l-.2792818-.01774751-2.7142259.16933893v-3.77569489c-.0044203-.03815381-.0121379-.07586468-.0230685-.11272052z"/><path d="m19.169396 83.9888306v3.775692c.0044219.0381536.0121395.0758643.0230685.1127205l-3.0179788-.1494297v-3.5874765l.2806844.0178354zm4.430613-.2764311v3.8888466l-3.0006128.1980822c.0006266-.0122071.0071166-.0225106.0071166-.0348057v-3.8653828zm-11.8561277.1458779 2.9934962.1905503v3.6079106l-2.9934962-.1483007zm16.2867321-.4224026v3.8730055l-2.9934962.197563v-3.8837402zm-20.71733654.1403403 2.99349624.1905531v3.6705914l-2.99349624-.1483035zm-4.02226736-.2560793 2.58511036.1645787v3.7332722l-2.58511036-.1280425zm29.1716225-.1607801v3.8570821l-2.9949104.197651v-3.8678168zm28.0236374.0064965 2.5837078.0843233v3.771885l-2.5837078-.1165304zm-23.593033-.2829162v3.8411331l-2.9934963.1974751v-3.8518679zm19.1610002.1382496 2.9949103.0977446v3.7218424l-2.9949103-.1350552zm-4.4306044-.1445787 2.9934962.0976567v3.6666964l-2.9934962-.1349702zm-10.2997915-.2701048v3.8252154l-2.9934962.1974751v-3.8359502zm5.8691871.1255233 2.9934962.0976567v3.6115503l-2.9934962-.1349702zm-4.4320732-.1446638 2.9949104.0977418v3.5563106l-.920646-.0414581-2.0742644.1368737z"/></g></g><g fill="#ad2020"><path d="m27.0097633 45.91h1.9830367l-4.9928 14.55h-2z"/><path d="m33.0025633 45.91h1.9830367l-4.9928 14.55h-2z"/><path d="m38.9953633 45.91h1.9830367l-4.9928 14.55h-2z"/><path d="m44.9881633 45.91h1.9830367l-4.9928 14.55h-2z"/><path d="m50.9809633 45.91h1.9830367l-4.9928 14.55h-2z"/><path d="m56.9737633 45.91h1.9830367l-4.9928 14.55h-2z"/><path d="m62.9665633 45.91h1.9830367l-4.9928 14.55h-2z"/><path d="m68.9665633 45.91h1.9830367l-4.9928 14.55h-2z"/><path d="m74.9665633 45.91h1.9830367l-4.9928 14.55h-2z"/></g></g></svg>