<?xml version="1.0" encoding="UTF-8"?>
<svg width="45471px" height="45471px" viewBox="0 0 45471 45471" version="1.1" xmlns="http://www.w3.org/2000/svg" xmlns:xlink="http://www.w3.org/1999/xlink">
    <title>Brain</title>
    <g id="Page-1" stroke="none" stroke-width="1" fill="none" fill-rule="evenodd">
        <g id="Artboard" transform="translate(-13425.000000, -9204.000000)" fill="#6D7278">
            <g id="Brain" transform="translate(15554.000000, 9204.000000)">
                <path d="M20606,1016.73 C21099.02,1016.73 21524.58,770.39 21933.04,533.95 C22458.32,229.87 22961.09,-61.14 23631.47,15.09 C27352.87,438.26 29957.96,1667.77 31684.05,3423.13 C33655.2,5427.71 34466.49,8097.14 34476.18,11025.43 C34494.7,11040.57 34511.83,11057.35 34527.37,11075.53 C36769.12,11994.15 38366.73,13386.57 39439.3,15099.94 C40684.87,17089.67 41211.67,19498.06 41211.67,22088.24 C41211.67,22949.97 41153.35,23791.49 41029.78,24604.17 C41033.46,24626.2 41035.36,24648.82 41035.27,24671.91 C41035.01,24738.67 41018.32,24801.52 40989.08,24856.68 C40727.02,26397.13 40224.13,27828.93 39431.06,29091.24 C38348.21,30814.79 36730.98,32212.84 34456.93,33129.13 C34460.53,33208.07 34463.68,33289.54 34466.38,33373.52 C34473.12,33583.06 34476.45,33765.12 34476.45,33920.39 C34476.45,36800.8 33826.32,39445.01 32162.23,41498.47 C30499.61,43550.15 27840.61,44991.37 23829.08,45459.05 C23136.54,45539.77 22589.23,45170.74 22022.39,44788.54 C21579.7,44490.03 21122.07,44181.46 20645.97,44181.46 C20151.14,44181.46 19662.81,44509.99 19206.63,44816.88 C18662.38,45183.02 18154.53,45524.66 17560.38,45454.23 C13838.13,45012.96 11236.54,43730.15 9514.22,41898.41 C7538.25,39796.9 6735.55,36993.82 6735.55,33920.39 C6735.55,33765.12 6738.88,33583.06 6745.62,33373.52 C6746.93,33332.75 6748.35,33292.57 6749.87,33252.99 C6745.99,33249.31 6742.17,33245.57 6738.41,33241.71 C6693.49,33195.53 6662.04,33141.24 6643.92,33083.72 C4428.23,32166.95 2846.06,30786.57 1780.94,29091.24 C529.45,27099.29 0.33,24685.36 0.33,22088.24 C0.33,19498.06 527.13,17089.67 1772.7,15099.94 C2853.41,13373.57 4467.03,11972.95 6735.65,11054.61 C6740.03,8111.94 7551.79,5429.04 9533.58,3417.33 C11263.29,1661.53 13873.52,432.86 17602.19,12.65 C18261.6,-61.66 18766.34,230.14 19292.55,534.34 C19701.61,770.82 20126.96,1016.73 20606,1016.73 Z M13382.76,26214.83 C13540.68,26061.23 13793.23,26064.72 13946.83,26222.64 C14100.43,26380.56 14096.94,26633.11 13939.02,26786.71 L10623.63,30006.44 C10606.48,30034.64 10585.52,30061.16 10560.76,30085.24 L7561.1,32998.36 C7552.76,33138.72 7546.56,33272.09 7542.5,33398.52 C7537.85,33543.13 7535.55,33717.4 7535.55,33920.39 C7535.55,36801.53 8275.05,39415.45 10095.48,41351.53 C10817.87,42119.81 11712.95,42784.66 12802.49,43321.06 L15626.04,40548.03 C15783.09,40393.57 16035.65,40395.67 16190.11,40552.72 C16344.57,40709.77 16342.47,40962.33 16185.42,41116.79 L13585.34,43670.35 C14742.95,44137.34 16092.27,44475.32 17654.14,44660.47 C17957.18,44696.39 18346.09,44434.76 18762.87,44154.38 C19202.59,43858.56 19666.87,43546.27 20206,43429.35 L20206,30524.01 L15946.39,34892.88 L15940.14,34899.13 C15901.46,34937.25 15895.88,34942.78 15895.99,34942.89 C15936.32,34983.81 15988.27,35034.15 16048.41,35092.42 C16105.19,35147.43 16169.3,35209.56 16245.6,35285.28 L18288.93,37249.43 C18447.71,37402.16 18452.6,37654.71 18299.87,37813.49 C18147.14,37972.27 17894.59,37977.16 17735.81,37824.43 L15692.5,35860.26 L15687.81,35855.57 C15618.24,35786.48 15551.32,35721.63 15492.15,35664.3 C15429.85,35603.93 15376.05,35551.81 15327.23,35502.27 L15324.69,35499.68 L13031.28,37784.21 C12875.09,37939.54 12622.55,37938.84 12467.22,37782.65 C12311.89,37626.46 12312.59,37373.92 12468.78,37218.59 L15402.27,34296.46 C15420.37,34278.46 15439.78,34262.57 15460.17,34248.76 L20206,29381.2 L20206,22918.67 L16787.63,26185.32 C16627.99,26337.19 16375.44,26330.9 16223.57,26171.26 C16071.7,26011.62 16077.99,25759.07 16237.63,25607.2 L20085.48,21930.13 L17761.51,19681.39 C17603.59,19527.79 17600.1,19275.24 17753.7,19117.32 C17907.3,18959.4 18159.85,18955.91 18317.77,19109.51 L20819.78,21530.52 L22759.2,21523.01 C22830.28,21288.54 22958.28,21078.81 23127.16,20909.93 C23393.48,20643.62 23761.38,20478.89 24167.68,20478.89 C24574,20478.89 24941.89,20643.62 25208.2,20909.93 C25474.51,21176.24 25639.24,21544.13 25639.24,21950.45 C25639.24,22356.75 25474.51,22724.65 25208.2,22990.97 C24941.89,23257.28 24574,23422.01 24167.68,23422.01 C23761.38,23422.01 23393.48,23257.28 23127.16,22990.97 C22944.49,22808.29 22809.63,22577.82 22742.92,22319.95 L21006,22326.68 L21006,32479.34 L26780.98,32488.21 C26850.1,32242.17 26981.59,32022.19 27157.32,31846.45 C27423.64,31580.14 27791.54,31415.41 28197.84,31415.41 C28604.16,31415.41 28972.05,31580.14 29238.36,31846.45 C29504.67,32112.77 29669.4,32480.67 29669.4,32886.97 C29669.4,33293.29 29504.67,33661.18 29238.36,33927.49 C28972.05,34193.8 28604.16,34358.53 28197.84,34358.53 C27791.54,34358.53 27423.64,34193.8 27157.32,33927.49 C26981.43,33751.6 26849.88,33531.4 26780.8,33285.09 L21006,33276.22 L21006,43413.49 C21558.83,43512.17 22020.31,43823.31 22469.27,44126.04 C22911.36,44424.12 23338.21,44711.94 23738.46,44665.29 C24147.23,44617.63 24540.8,44559.48 24919.75,44491.38 L24919.75,40923.07 C24678.16,40853.14 24462.13,40722.99 24289.02,40549.89 C24022.71,40283.58 23857.98,39915.69 23857.98,39509.37 C23857.98,39103.07 24022.71,38735.17 24289.02,38468.85 C24555.34,38202.54 24923.24,38037.81 25329.54,38037.81 C25735.86,38037.81 26103.75,38202.54 26370.06,38468.85 C26636.37,38735.17 26801.1,39103.07 26801.1,39509.37 C26801.1,39915.69 26636.37,40283.58 26370.06,40549.89 C26192.29,40727.66 25969.25,40860.14 25719.75,40928.6 L25719.75,44327.91 C28414.58,43707.6 30294.28,42536.86 31543.47,40995.35 C33077.23,39102.71 33676.45,36630.33 33676.45,33920.39 C33676.45,33717.4 33674.15,33543.13 33669.5,33398.52 C33666.09,33292.3 33661.16,33181.2 33654.73,33065.16 L28875.64,28059.69 C28678.34,28157.96 28455.88,28213.23 28220.52,28213.23 C27814.22,28213.23 27446.32,28048.5 27180,27782.19 C26913.69,27515.88 26748.96,27147.99 26748.96,26741.67 C26748.96,26335.37 26913.69,25967.47 27180,25701.15 C27446.32,25434.84 27814.22,25270.11 28220.52,25270.11 C28626.84,25270.11 28994.73,25434.84 29261.04,25701.15 C29527.35,25967.47 29692.08,26335.37 29692.08,26741.67 C29692.08,27029.04 29609.66,27297.18 29467.2,27523.77 L34125.18,32402.38 C36250.34,31553.22 37755.08,30259.47 38756.06,28666.24 C39431.21,27591.63 39880.2,26376.48 40138.23,25065.88 L36040.2,25041.87 C35973.44,25299.5 35838.65,25529.74 35656.12,25712.27 C35389.81,25978.58 35021.92,26143.31 34615.6,26143.31 C34209.3,26143.31 33841.4,25978.58 33575.08,25712.27 C33308.77,25445.96 33144.04,25078.07 33144.04,24671.75 C33144.04,24265.45 33308.77,23897.55 33575.08,23631.23 C33841.4,23364.92 34209.3,23200.19 34615.6,23200.19 C35021.92,23200.19 35389.81,23364.92 35656.12,23631.23 C35825.13,23800.25 35953.2,24010.18 36024.24,24244.87 L40270.17,24269.75 C40366.13,23564.14 40411.67,22834.84 40411.67,22088.24 C40411.67,20711.39 40257.23,19393.34 39916.78,18174.73 L33765.62,18174.73 C33695.69,18416.32 33565.54,18632.35 33392.44,18805.46 C33126.13,19071.77 32758.24,19236.5 32351.92,19236.5 C31945.62,19236.5 31577.72,19071.77 31311.4,18805.46 C31045.09,18539.14 30880.36,18171.24 30880.36,17764.94 C30880.36,17358.62 31045.09,16990.73 31311.4,16724.42 C31577.72,16458.11 31945.62,16293.38 32351.92,16293.38 C32758.24,16293.38 33126.13,16458.11 33392.44,16724.42 C33570.21,16902.19 33702.69,17125.23 33771.15,17374.73 L39660.9,17374.73 C39423.9,16721 39126.87,16101.01 38764.3,15521.82 C37748.67,13899.43 36210.12,12586.27 34025.13,11735.23 L27680.21,11735.23 C27610.28,11976.82 27480.13,12192.85 27307.03,12365.96 C27040.72,12632.27 26672.83,12797 26266.51,12797 C25860.21,12797 25492.31,12632.27 25225.99,12365.96 C24959.68,12099.64 24794.95,11731.74 24794.95,11325.44 C24794.95,10919.12 24959.68,10551.23 25225.99,10284.92 C25492.31,10018.61 25860.21,9853.88 26266.51,9853.88 C26672.83,9853.88 27040.72,10018.61 27307.03,10284.92 C27484.8,10462.69 27617.28,10685.73 27685.74,10935.23 L33675.72,10935.23 C33650.25,8241.33 32902.5,5800.02 31115.29,3982.51 C30031.95,2880.8 28561.85,2000.9 26633.79,1422.74 L26633.79,4732.98 C26875.39,4802.9 27091.42,4933.07 27264.52,5106.17 C27530.83,5372.48 27695.56,5740.37 27695.56,6146.69 C27695.56,6552.99 27530.83,6920.89 27264.52,7187.21 C26998.21,7453.52 26630.32,7618.25 26224,7618.25 C25817.7,7618.25 25449.8,7453.52 25183.48,7187.21 C24917.17,6920.89 24752.44,6552.99 24752.44,6146.69 C24752.44,5740.37 24917.17,5372.48 25183.48,5106.17 C25361.25,4928.41 25584.29,4795.93 25833.79,4727.47 L25833.79,1206.68 C25127,1035.88 24364.7,902.18 23543.97,808.85 C23132.11,762.02 22741.33,988.22 22333.04,1224.57 C21931.76,1456.86 21516.99,1696.9 21006,1783.26 L21006,11682.67 L25530.42,16421.4 C25746.96,16296.05 25998.36,16224.28 26266.51,16224.28 C26672.83,16224.28 27040.72,16389.01 27307.03,16655.32 C27573.34,16921.63 27738.07,17289.52 27738.07,17695.84 C27738.07,18102.14 27573.34,18470.04 27307.03,18736.36 C27040.72,19002.67 26672.83,19167.4 26266.51,19167.4 C25860.21,19167.4 25492.31,19002.67 25225.99,18736.36 C24959.68,18470.04 24794.95,18102.14 24794.95,17695.84 C24794.95,17441.42 24859.54,17202.08 24973.21,16993.3 L20612.3,12425.82 L15540.71,17408.53 C15383.66,17562.99 15131.1,17560.89 14976.64,17403.84 C14822.18,17246.79 14824.28,16994.23 14981.33,16839.77 L20206,11706.66 L20206,1782.16 C19705.45,1694.91 19292.64,1456.27 18892.55,1224.96 C18483.14,988.28 18090.43,761.25 17689.69,806.41 C17046.51,878.9 16439.26,976.21 15866.32,1096.63 L15868.27,7579.47 L18160.18,10381.04 C18299.97,10551.9 18274.79,10803.76 18103.93,10943.55 C17933.07,11083.34 17681.21,11058.16 17541.42,10887.3 L15469.87,8355.09 L13398.3,10887.3 C13258.51,11058.16 13006.65,11083.34 12835.79,10943.55 C12664.93,10803.76 12639.75,10551.9 12779.54,10381.04 L15071.38,7579.56 L15069.49,1284.57 C12900.98,1854.88 11275.34,2786.02 10102.34,3976.71 C8279.4,5827.17 7535.55,8325.26 7535.55,11078.53 C7535.55,11246.48 7533.76,11109.25 7534.48,11199.3 L7534.48,11200.87 C7534.58,11214.33 7534.72,11228.44 7534.89,11243.2 L10349.01,13976.97 C10506.93,14130.57 10510.42,14383.12 10356.82,14541.04 C10203.22,14698.96 9950.67,14702.45 9792.75,14548.85 L6981.13,11817.51 C4904.91,12669.79 3431.15,13950.83 2447.7,15521.82 C1289.98,17371.21 800.33,19636.51 800.33,22088.24 C800.33,23261.95 912.74,24392.98 1157.03,25456.24 L11136.53,15650 C11293.58,15495.54 11546.14,15497.64 11700.6,15654.69 C11855.06,15811.74 11852.96,16064.3 11695.91,16218.76 L7783.17,20063.57 L10893.94,23084.58 C11051.86,23238.18 11055.35,23490.73 10901.75,23648.65 C10748.15,23806.57 10495.6,23810.06 10337.68,23656.46 L7213.97,20622.88 L1395.86,26339.98 C1655.47,27169.06 2005.3,27948.98 2455.94,28666.24 C3450.56,30249.34 4942.62,31536.72 7046.43,32386.09 L9731.03,29778.94 L6649.9,26786.71 C6491.98,26633.11 6488.49,26380.56 6642.09,26222.64 C6795.69,26064.72 7048.24,26061.23 7206.16,26214.83 L10294.46,29214.02 L13382.76,26214.83 L13382.76,26214.83 Z M24167.68,21278.89 C23982.2,21278.89 23814.29,21354.05 23692.78,21475.55 C23571.28,21597.05 23496.12,21764.96 23496.12,21950.45 C23496.12,22135.93 23571.28,22303.84 23692.78,22425.35 C23814.29,22546.85 23982.2,22622.01 24167.68,22622.01 C24353.17,22622.01 24521.08,22546.85 24642.58,22425.35 C24764.08,22303.84 24839.24,22135.93 24839.24,21950.45 C24839.24,21764.96 24764.08,21597.05 24642.58,21475.55 C24521.08,21354.05 24353.17,21278.89 24167.68,21278.89 Z M35090.5,24196.85 C34969,24075.35 34801.09,24000.19 34615.6,24000.19 C34430.12,24000.19 34262.21,24075.35 34140.7,24196.85 C34019.2,24318.36 33944.04,24486.27 33944.04,24671.75 C33944.04,24857.24 34019.2,25025.15 34140.7,25146.65 C34262.21,25268.15 34430.12,25343.31 34615.6,25343.31 C34801.09,25343.31 34969,25268.15 35090.5,25146.65 C35212,25025.15 35287.16,24857.24 35287.16,24671.75 C35287.16,24486.27 35212,24318.36 35090.5,24196.85 Z M25804.44,39984.27 C25925.94,39862.77 26001.1,39694.86 26001.1,39509.37 C26001.1,39323.89 25925.94,39155.98 25804.44,39034.47 C25682.94,38912.97 25515.03,38837.81 25329.54,38837.81 C25144.06,38837.81 24976.15,38912.97 24854.64,39034.47 C24733.14,39155.98 24657.98,39323.89 24657.98,39509.37 C24657.98,39694.86 24733.14,39862.77 24854.64,39984.27 C24976.15,40105.77 25144.06,40180.93 25329.54,40180.93 C25515.03,40180.93 25682.94,40105.77 25804.44,39984.27 Z M27722.94,33361.87 C27844.45,33483.37 28012.36,33558.53 28197.84,33558.53 C28383.33,33558.53 28551.24,33483.37 28672.74,33361.87 C28794.24,33240.37 28869.4,33072.46 28869.4,32886.97 C28869.4,32701.49 28794.24,32533.58 28672.74,32412.07 C28551.24,32290.57 28383.33,32215.41 28197.84,32215.41 C28012.36,32215.41 27844.45,32290.57 27722.94,32412.07 C27601.44,32533.58 27526.28,32701.49 27526.28,32886.97 C27526.28,33072.46 27601.44,33240.37 27722.94,33361.87 Z M32826.82,17290.04 C32705.32,17168.54 32537.41,17093.38 32351.92,17093.38 C32166.44,17093.38 31998.53,17168.54 31877.02,17290.04 C31755.52,17411.54 31680.36,17579.45 31680.36,17764.94 C31680.36,17950.42 31755.52,18118.33 31877.02,18239.84 C31998.53,18361.34 32166.44,18436.5 32351.92,18436.5 C32537.41,18436.5 32705.32,18361.34 32826.82,18239.84 C32948.32,18118.33 33023.48,17950.42 33023.48,17764.94 C33023.48,17579.45 32948.32,17411.54 32826.82,17290.04 Z M28695.42,26266.77 C28573.92,26145.27 28406.01,26070.11 28220.52,26070.11 C28035.04,26070.11 27867.13,26145.27 27745.62,26266.77 C27624.12,26388.28 27548.96,26556.19 27548.96,26741.67 C27548.96,26927.16 27624.12,27095.07 27745.62,27216.57 C27867.13,27338.07 28035.04,27413.23 28220.52,27413.23 C28406.01,27413.23 28573.92,27338.07 28695.42,27216.57 C28816.92,27095.07 28892.08,26927.16 28892.08,26741.67 C28892.08,26556.19 28816.92,26388.28 28695.42,26266.77 Z M26741.41,17220.94 C26619.91,17099.44 26452,17024.28 26266.51,17024.28 C26081.03,17024.28 25913.12,17099.44 25791.61,17220.94 C25670.11,17342.44 25594.95,17510.35 25594.95,17695.84 C25594.95,17881.32 25670.11,18049.23 25791.61,18170.74 C25913.12,18292.24 26081.03,18367.4 26266.51,18367.4 C26452,18367.4 26619.91,18292.24 26741.41,18170.74 C26862.91,18049.23 26938.07,17881.32 26938.07,17695.84 C26938.07,17510.35 26862.91,17342.44 26741.41,17220.94 Z M25749.1,5671.79 C25627.6,5793.29 25552.44,5961.2 25552.44,6146.69 C25552.44,6332.17 25627.6,6500.08 25749.1,6621.59 C25870.61,6743.09 26038.52,6818.25 26224,6818.25 C26409.49,6818.25 26577.4,6743.09 26698.9,6621.59 C26820.4,6500.08 26895.56,6332.17 26895.56,6146.69 C26895.56,5961.2 26820.4,5793.29 26698.9,5671.79 C26577.4,5550.29 26409.49,5475.13 26224,5475.13 C26038.52,5475.13 25870.61,5550.29 25749.1,5671.79 Z M26741.41,10850.54 C26619.91,10729.04 26452,10653.88 26266.51,10653.88 C26081.03,10653.88 25913.12,10729.04 25791.61,10850.54 C25670.11,10972.04 25594.95,11139.95 25594.95,11325.44 C25594.95,11510.92 25670.11,11678.83 25791.61,11800.34 C25913.12,11921.84 26081.03,11997 26266.51,11997 C26452,11997 26619.91,11921.84 26741.41,11800.34 C26862.91,11678.83 26938.07,11510.92 26938.07,11325.44 C26938.07,11139.95 26862.91,10972.04 26741.41,10850.54 Z" id="Shape"></path>
            </g>
        </g>
    </g>
</svg>