<?xml version="1.0" encoding="UTF-8"?>
<svg width="17px" height="23px" viewBox="0 0 17 23" version="1.1" xmlns="http://www.w3.org/2000/svg" xmlns:xlink="http://www.w3.org/1999/xlink">
    <g id="Page-1" stroke="none" stroke-width="1" fill="none" fill-rule="evenodd">
        <g id="Blario-Factory" transform="translate(-55.000000, -77.000000)">
            <g id="HuskieBot" transform="translate(55.500000, 78.000000)">
                <path d="M3.55271368e-15,4.5 C3.55271368e-15,6.47784759 0.280209454,10.4623306 0.840628362,16.4534489 L0.840623505,16.4534494 C0.904788954,17.1394055 1.24918776,17.7684769 1.79249469,18.1921167 C4.19318615,20.0640389 6.24278859,21 7.94130199,21 C9.63880212,21 11.6869725,20.0651553 14.0858131,18.1954659 L14.0858027,18.1954524 C14.6316426,17.7700173 14.9767088,17.1373512 15.03884,16.4480936 C15.5205761,11.1039142 15.7999622,7.25214393 15.8769983,4.8927827 C16,1.1256471 3.55271368e-15,1.3637234 3.55271368e-15,4.5 Z" id="Face" stroke="#434040" stroke-width="0.5" fill="#FBEFEA" stroke-linecap="square"></path>
                <g id="Mouth" transform="translate(2.500000, 14.000000)" stroke="#434040" stroke-width="0.5">
                    <path d="M0.590230211,0.25 C0.576459996,0.25 0.56271332,0.25113771 0.549130464,0.253401519 C0.412937884,0.276100282 0.320932967,0.404907166 0.34363173,0.541099747 L0.676965063,2.54109975 C0.697056229,2.66164674 0.801353756,2.75 0.923563544,2.75 L10.0764365,2.75 C10.1986462,2.75 10.3029438,2.66164674 10.3230349,2.54109975 L10.6563683,0.541099747 C10.6586321,0.52751689 10.6597698,0.513770215 10.6597698,0.5 C10.6597698,0.361928813 10.547841,0.25 10.4097698,0.25 L0.590230211,0.25 Z" id="Lips" fill="#FFFFFF"></path>
                    <path d="M10.4,1.5 L0.6,1.5" id="Teeth" stroke-linecap="square"></path>
                    <path d="M2.4,0.5 L2.4,2.5" id="Teeth" stroke-linecap="square"></path>
                    <path d="M4.5,0.5 L4.5,2.5" id="Teeth" stroke-linecap="square"></path>
                    <path d="M6.6,0.5 L6.6,2.5" id="Teeth" stroke-linecap="square"></path>
                    <path d="M8.7,0.5 L8.7,2.5" id="Teeth" stroke-linecap="square"></path>
                </g>
                <path d="M8.5,11 C8.83333333,11.3333333 9,11.6666667 9,12 C9,12.3333333 8.5,12.5 7.5,12.5" id="Nose" stroke="#434040" stroke-width="0.5" stroke-linecap="round"></path>
                <g id="Eyes" transform="translate(3.500000, 7.000000)" fill="#152450" stroke="#152450">
                    <circle id="Right-Eye" cx="8" cy="1" r="0.2"></circle>
                    <circle id="Left-Eye" cx="1" cy="1" r="0.2"></circle>
                </g>
                <g id="Glasses" transform="translate(1.500000, 5.000000)" stroke="#000000">
                    <path d="M5.6104968,1.35 L0.556433137,1.35 C0.548427964,1.35014247 0.548427964,1.35014247 0.540453169,1.35085363 C0.458081901,1.35967912 0.398461271,1.4336087 0.407286764,1.51597997 L0.680851039,4.06924653 C0.716239331,4.39953726 0.994970871,4.65 1.32715199,4.65 L4.67284801,4.65 C5.00502913,4.65 5.28376067,4.39953726 5.31914896,4.06924653 L5.6104968,1.35 Z" id="Left-Lens" stroke-width="0.7"></path>
                    <path d="M7.3895032,1.35 L7.68085104,4.06924653 C7.71623933,4.39953726 7.99497087,4.65 8.32715199,4.65 L11.672848,4.65 C12.0050291,4.65 12.2837607,4.39953726 12.319149,4.06924653 L12.5927132,1.51597997 C12.5934244,1.50800517 12.5934244,1.50800517 12.5935669,1.5 C12.5935669,1.41715729 12.5264096,1.35 12.4435669,1.35 L7.3895032,1.35 Z" id="Right-Lens" stroke-width="0.7"></path>
                    <path d="M1.46153846,1.3 L11.5,1.3" id="Frame" stroke-width="0.6" stroke-linecap="square"></path>
                </g>
                <path d="M12.5,0 C9.16002368,0.0648143007 6.97606111,0.231480967 5.94811229,0.5 C2.11343071,1.50168896 0.361597914,3.18577364 0.252571911,3.76450347 C0.248600338,3.78558531 0.252571911,3.79954856 0.252571911,3.81712227 C0.726672637,3.31712227 6.42221302,3 9.7409181,3.5 C11.2893793,3.73329298 12.9703458,4 14.4819254,4 C15.4301268,4 13.4595319,4 15.3559348,4 C14.8818341,3 15.0650692,3.00700196 14.3397897,2 C14.0209488,1.55731082 13.4076856,0.890644152 12.5,0 Z" id="Hair" stroke="#000000" fill="#000000" stroke-linecap="square"></path>
            </g>
        </g>
    </g>
</svg>