<svg height="23" viewBox="0 0 17 23" width="17" xmlns="http://www.w3.org/2000/svg"><g fill="none" fill-rule="evenodd" transform="translate(.5 1)"><g stroke="#434040" stroke-width=".5"><path d="m0 4.5c0 1.97784759.28020945 5.9623306.84062836 11.9534489l-.00000485.0000005c.06416544.6859561.40856425 1.3150275.95187118 1.7386673 2.40069146 1.8719222 4.4502939 2.8078833 6.1488073 2.8078833 1.69750013 0 3.74567051-.9348447 6.14451111-2.8045341l-.0000104-.0000135c.5458399-.4254351.8909061-1.0581012.9530373-1.7473588.4817361-5.3441794.7611222-9.19594967.8381583-11.5553109.1230017-3.7671356-15.8769983-3.5290593-15.8769983-.3927827z" fill="#fbefea" stroke-linecap="square"/><g transform="translate(2.5 14)"><path d="m.59023021.25c-.01377021 0-.02751689.00113771-.04109975.00340152-.13619258.02269876-.22819749.15150565-.20549873.28769823l.33333333 2c.02009117.12054699.1243887.20890025.24659848.20890025h9.15287296c.1222097 0 .2265073-.08835326.2465984-.20890025l.3333334-2c.0022638-.01358286.0034015-.02732953.0034015-.04109975 0-.13807119-.1119288-.25-.25-.25z" fill="#fff"/><g stroke-linecap="square"><path d="m10.4 1.5h-9.8"/><path d="m2.4.5v2"/><path d="m4.5.5v2"/><path d="m6.6.5v2"/><path d="m8.7.5v2"/></g></g><path d="m8.5 11c.33333333.3333333.5.6666667.5 1s-.5.5-1.5.5" stroke-linecap="round"/></g><g fill="#152450" stroke="#152450"><circle cx="11.5" cy="8" r=".25"/><circle cx="4.5" cy="8" r=".25"/></g><g stroke="#000"><g transform="translate(1.5 5)"><path d="m5.6104968 1.35h-5.05406366c-.00800518.00014247-.00800518.00014247-.01597997.00085363-.08237127.00882549-.1419919.08275507-.13316641.16512634l.27356428 2.55326656c.03538829.33029073.31411983.58075347.64630095.58075347h3.34569602c.33218112 0 .61091266-.25046274.64630095-.58075347z" stroke-width=".7"/><path d="m7.3895032 1.35.29134784 2.71924653c.03538829.33029073.31411983.58075347.64630095.58075347h3.34569601c.3321811 0 .6109127-.25046274.646301-.58075347l.2735642-2.55326656c.0007112-.0079748.0007112-.0079748.0008537-.01597997 0-.08284271-.0671573-.15-.15-.15z" stroke-width=".7"/><path d="m1.46153846 1.3h10.03846154" stroke-linecap="square" stroke-width=".6"/></g><path d="m12.5 0c-3.33997632.0648143-5.52393889.23148097-6.55188771.5-3.83468158 1.00168896-5.58651438 2.68577364-5.69554038 3.26450347-.00397157.02108184 0 .03504509 0 .0526188.47410073-.5 6.16964111-.81712227 9.48834619-.31712227 1.5484612.23329298 3.2294277.5 4.7410073.5h.8740094c-.4741007-1-.2908656-.99299804-1.0161451-2-.3188409-.44268918-.9321041-1.10935585-1.8397897-2z" fill="#000" stroke-linecap="square"/></g></g></svg>